<svg width="399" height="59" viewBox="0 0 399 59" fill="none" xmlns="http://www.w3.org/2000/svg">
<mask id="path-1-outside-1_9702_641" maskUnits="userSpaceOnUse" x="-2" y="-2" width="403" height="63" fill="black">
<rect fill="white" x="-2" y="-2" width="403" height="63"/>
<path d="M0.875 44L0.875 13.25C0.875 9.4375 2.03125 6.32292 4.34375 3.90625C6.65625 1.48958 9.65625 0.28125 13.3437 0.28125C17.7187 0.28125 21.0833 2.29167 23.4375 6.3125C24.875 4.14583 26.4167 2.60417 28.0625 1.6875C29.7083 0.75 31.7396 0.28125 34.1562 0.28125C37.9896 0.28125 40.9271 1.48958 42.9687 3.90625C45.0104 6.32292 46.0312 9.80208 46.0312 14.3438L46.0312 44L33.3437 44L33.3437 16.25C33.3437 14.875 33.2292 13.9688 33 13.5313C32.7917 13.0729 32.3542 12.8438 31.6875 12.8438C30.4375 12.8438 29.8125 13.9063 29.8125 16.0313L29.8125 44L17.125 44L17.125 16.25C17.125 14.8958 17.0104 13.9896 16.7812 13.5313C16.5521 13.0729 16.1042 12.8438 15.4375 12.8438C14.1875 12.8438 13.5625 13.9792 13.5625 16.25L13.5625 44L0.875 44ZM70.1875 32.3125L70.1875 44.4063C69.2292 44.5729 68.3542 44.6563 67.5625 44.6563C62.875 44.6563 58.9687 43.1146 55.8437 40.0313C52.7187 36.9479 51.1562 33.0833 51.1562 28.4375C51.1562 23.9167 52.7292 20.0833 55.875 16.9375C59.0417 13.7917 62.8854 12.2188 67.4062 12.2188C72.4479 12.2188 76.4167 13.6979 79.3125 16.6563C82.2292 19.5938 83.6875 23.6146 83.6875 28.7188L83.6875 44L72 44L72 29.5625C72 27.9167 71.5937 26.6042 70.7812 25.625C69.9896 24.6458 68.9167 24.1563 67.5625 24.1563C66.3333 24.1563 65.2708 24.6042 64.375 25.5C63.4792 26.3958 63.0312 27.4583 63.0312 28.6875C63.0312 29.9792 63.4375 31.0417 64.25 31.875C65.0625 32.7083 66.0937 33.125 67.3437 33.125C68.3646 33.125 69.3125 32.8542 70.1875 32.3125ZM107.594 12.5313L107.594 25.0313C106.781 24.5729 106.042 24.3438 105.375 24.3438C103.25 24.3438 102.187 25.9688 102.187 29.2188L102.187 44L90.5 44L90.5 26.9688C90.5 22.4688 91.7292 18.8854 94.1875 16.2188C96.6458 13.5313 99.9271 12.1875 104.031 12.1875C104.948 12.1875 106.135 12.3021 107.594 12.5313ZM122.75 1.34375L122.75 44L111.062 44L111.062 1.34375L122.75 1.34375ZM140.656 12.8438L134.937 24.1875L143.437 44L130.5 44L123.187 23.6563L128.5 12.8438L140.656 12.8438ZM176.187 30.3125L158.469 30.3125C158.198 29.4167 158.062 28.5938 158.062 27.8438C158.062 26.8021 158.25 25.7813 158.625 24.7813L164.562 24.7813C164.146 22.4688 162.844 21.3125 160.656 21.3125C159.198 21.3125 158.01 21.9375 157.094 23.1875C156.177 24.4167 155.719 26 155.719 27.9375C155.719 29.9583 156.156 31.5938 157.031 32.8438C157.927 34.0938 159.094 34.7188 160.531 34.7188C161.698 34.7188 162.823 34.1354 163.906 32.9688L170.562 40.9688C167.458 43.4063 164.01 44.625 160.219 44.625C155.594 44.625 151.708 43.0729 148.562 39.9688C145.417 36.8646 143.844 33.0208 143.844 28.4375C143.844 23.875 145.427 20.0208 148.594 16.875C151.781 13.7292 155.687 12.1563 160.312 12.1563C164.833 12.1563 168.625 13.6979 171.687 16.7813C174.771 19.8438 176.312 23.625 176.312 28.125C176.312 28.5833 176.271 29.3125 176.187 30.3125ZM191.469 1.34375L191.469 13.2813L196.719 13.2813L196.719 25.625L191.469 25.625C191.469 28.1042 191.854 29.8125 192.625 30.75C193.417 31.6875 194.854 32.1563 196.937 32.1563L196.937 44.4375C196.333 44.4583 195.885 44.4688 195.594 44.4688C192.948 44.4688 190.448 43.8542 188.094 42.625C185.76 41.3958 183.885 39.7292 182.469 37.625C180.677 34.9375 179.781 31.375 179.781 26.9375L179.781 1.34375L191.469 1.34375ZM213.5 1.34375L213.5 26.875C213.5 31.0208 214.99 33.0938 217.969 33.0938C219.24 33.0938 220.312 32.6667 221.187 31.8125C222.083 30.9375 222.531 29.8854 222.531 28.6563C222.531 27.3854 222.115 26.3229 221.281 25.4688C220.448 24.5938 219.427 24.1563 218.219 24.1563C217.365 24.1563 216.385 24.5313 215.281 25.2813L215.281 12.4063C216.656 12.2813 217.698 12.2188 218.406 12.2188C222.802 12.2188 226.562 13.8021 229.687 16.9688C232.833 20.1354 234.406 23.9479 234.406 28.4063C234.406 32.9688 232.812 36.8125 229.625 39.9375C226.437 43.0625 222.521 44.625 217.875 44.625C215.542 44.625 213.26 44.1146 211.031 43.0938C208.823 42.0729 207 40.6979 205.562 38.9688C203.062 35.9688 201.812 32.0833 201.812 27.3125L201.812 1.34375L213.5 1.34375ZM254.344 12.1875C258.76 12.1875 262.542 13.7813 265.687 16.9688C268.854 20.1354 270.437 23.9375 270.437 28.375C270.437 32.875 268.833 36.7083 265.625 39.875C262.437 43.0417 258.583 44.625 254.062 44.625C249.542 44.625 245.677 43.0417 242.469 39.875C239.26 36.6875 237.656 32.8542 237.656 28.375C237.656 23.8125 239.26 19.9792 242.469 16.875C245.677 13.75 249.635 12.1875 254.344 12.1875ZM254.031 23.7188C252.781 23.7188 251.719 24.1771 250.844 25.0938C249.969 25.9896 249.531 27.0938 249.531 28.4063C249.531 29.6979 249.969 30.8021 250.844 31.7188C251.74 32.6354 252.802 33.0938 254.031 33.0938C255.281 33.0938 256.344 32.6354 257.219 31.7188C258.115 30.8021 258.562 29.6979 258.562 28.4063C258.562 27.0938 258.125 25.9896 257.25 25.0938C256.375 24.1771 255.302 23.7188 254.031 23.7188ZM291.031 12.8438L302.719 12.8438L302.719 19.6875C302.719 21.6458 302.427 23.2292 301.844 24.4375C301.281 25.625 300.302 26.6771 298.906 27.5938C300.323 28.5521 301.312 29.6042 301.875 30.75C302.437 31.8958 302.719 33.3958 302.719 35.25L302.719 44L291.031 44L291.031 34.5938C291.031 32.4479 290.281 31.375 288.781 31.375C287.323 31.375 286.594 32.3021 286.594 34.1563L286.594 44L274.906 44L274.906 35.6875C274.906 33.7708 275.25 32.2083 275.937 31C276.646 29.7917 277.865 28.6563 279.594 27.5938C277.865 26.4688 276.646 25.2813 275.937 24.0313C275.25 22.7813 274.906 21.1875 274.906 19.25L274.906 12.8438L286.594 12.8438L286.594 20.7188C286.594 21.5313 286.802 22.1979 287.219 22.7188C287.635 23.2396 288.167 23.5 288.812 23.5C290.292 23.5 291.031 22.5729 291.031 20.7188L291.031 12.8438ZM317.781 30C319.823 30 321.573 30.7396 323.031 32.2188C324.51 33.6979 325.25 35.4583 325.25 37.5C325.25 39.5417 324.521 41.2813 323.062 42.7188C321.604 44.1354 319.844 44.8438 317.781 44.8438C315.635 44.8438 313.865 44.1563 312.469 42.7813C311.094 41.3854 310.406 39.6146 310.406 37.4688C310.406 35.3854 311.125 33.625 312.562 32.1875C314 30.7292 315.74 30 317.781 30ZM361.156 44L349.469 44L349.469 26.4063C349.469 24.6146 348.729 23.7188 347.25 23.7188C345.792 23.7188 345.062 24.6146 345.062 26.4063L345.062 44L333.375 44L333.375 26.625C333.375 22.5625 334.719 19.1458 337.406 16.375C340.094 13.5833 343.385 12.1875 347.281 12.1875C351.74 12.1875 355.312 13.8021 358 17.0313C360.104 19.5521 361.156 23.0625 361.156 27.5625L361.156 44ZM384.625 31.1563L384.625 41.875C382.937 42.5 381.323 42.8125 379.781 42.8125C376.01 42.8125 372.812 41.3854 370.187 38.5313C367.583 35.6771 366.281 32.1875 366.281 28.0625C366.281 23.6042 367.854 19.8438 371 16.7813C374.146 13.7188 378.01 12.1875 382.594 12.1875C385.031 12.1875 387.365 12.6771 389.594 13.6563C391.823 14.6354 393.573 15.9479 394.844 17.5938C396.969 20.3229 398.031 24.2813 398.031 29.4688L398.031 39.7188C398.031 45.2813 396.448 49.7917 393.281 53.25C390.135 56.7292 386.031 58.4688 380.969 58.4688C379.427 58.4688 377.479 58.0833 375.125 57.3125L375.125 46.6875C376.646 47.5208 378.187 47.9375 379.75 47.9375C381.854 47.9375 383.479 47.2396 384.625 45.8438C385.771 44.4688 386.344 42.4896 386.344 39.9063L386.344 28.1875C386.344 24.9167 385.021 23.2813 382.375 23.2813C381.25 23.2813 380.26 23.7188 379.406 24.5938C378.573 25.4479 378.156 26.4375 378.156 27.5625C378.156 28.75 378.552 29.7396 379.344 30.5313C380.156 31.3229 381.156 31.7188 382.344 31.7188C383.135 31.7188 383.896 31.5313 384.625 31.1563Z"/>
</mask>
<path d="M0.875 44L0.875 13.25C0.875 9.4375 2.03125 6.32292 4.34375 3.90625C6.65625 1.48958 9.65625 0.28125 13.3437 0.28125C17.7187 0.28125 21.0833 2.29167 23.4375 6.3125C24.875 4.14583 26.4167 2.60417 28.0625 1.6875C29.7083 0.75 31.7396 0.28125 34.1562 0.28125C37.9896 0.28125 40.9271 1.48958 42.9687 3.90625C45.0104 6.32292 46.0312 9.80208 46.0312 14.3438L46.0312 44L33.3437 44L33.3437 16.25C33.3437 14.875 33.2292 13.9688 33 13.5313C32.7917 13.0729 32.3542 12.8438 31.6875 12.8438C30.4375 12.8438 29.8125 13.9063 29.8125 16.0313L29.8125 44L17.125 44L17.125 16.25C17.125 14.8958 17.0104 13.9896 16.7812 13.5313C16.5521 13.0729 16.1042 12.8438 15.4375 12.8438C14.1875 12.8438 13.5625 13.9792 13.5625 16.25L13.5625 44L0.875 44ZM70.1875 32.3125L70.1875 44.4063C69.2292 44.5729 68.3542 44.6563 67.5625 44.6563C62.875 44.6563 58.9687 43.1146 55.8437 40.0313C52.7187 36.9479 51.1562 33.0833 51.1562 28.4375C51.1562 23.9167 52.7292 20.0833 55.875 16.9375C59.0417 13.7917 62.8854 12.2188 67.4062 12.2188C72.4479 12.2188 76.4167 13.6979 79.3125 16.6563C82.2292 19.5938 83.6875 23.6146 83.6875 28.7188L83.6875 44L72 44L72 29.5625C72 27.9167 71.5937 26.6042 70.7812 25.625C69.9896 24.6458 68.9167 24.1563 67.5625 24.1563C66.3333 24.1563 65.2708 24.6042 64.375 25.5C63.4792 26.3958 63.0312 27.4583 63.0312 28.6875C63.0312 29.9792 63.4375 31.0417 64.25 31.875C65.0625 32.7083 66.0937 33.125 67.3437 33.125C68.3646 33.125 69.3125 32.8542 70.1875 32.3125ZM107.594 12.5313L107.594 25.0313C106.781 24.5729 106.042 24.3438 105.375 24.3438C103.25 24.3438 102.187 25.9688 102.187 29.2188L102.187 44L90.5 44L90.5 26.9688C90.5 22.4688 91.7292 18.8854 94.1875 16.2188C96.6458 13.5313 99.9271 12.1875 104.031 12.1875C104.948 12.1875 106.135 12.3021 107.594 12.5313ZM122.75 1.34375L122.75 44L111.062 44L111.062 1.34375L122.75 1.34375ZM140.656 12.8438L134.937 24.1875L143.437 44L130.5 44L123.187 23.6563L128.5 12.8438L140.656 12.8438ZM176.187 30.3125L158.469 30.3125C158.198 29.4167 158.062 28.5938 158.062 27.8438C158.062 26.8021 158.25 25.7813 158.625 24.7813L164.562 24.7813C164.146 22.4688 162.844 21.3125 160.656 21.3125C159.198 21.3125 158.01 21.9375 157.094 23.1875C156.177 24.4167 155.719 26 155.719 27.9375C155.719 29.9583 156.156 31.5938 157.031 32.8438C157.927 34.0938 159.094 34.7188 160.531 34.7188C161.698 34.7188 162.823 34.1354 163.906 32.9688L170.562 40.9688C167.458 43.4063 164.01 44.625 160.219 44.625C155.594 44.625 151.708 43.0729 148.562 39.9688C145.417 36.8646 143.844 33.0208 143.844 28.4375C143.844 23.875 145.427 20.0208 148.594 16.875C151.781 13.7292 155.687 12.1563 160.312 12.1563C164.833 12.1563 168.625 13.6979 171.687 16.7813C174.771 19.8438 176.312 23.625 176.312 28.125C176.312 28.5833 176.271 29.3125 176.187 30.3125ZM191.469 1.34375L191.469 13.2813L196.719 13.2813L196.719 25.625L191.469 25.625C191.469 28.1042 191.854 29.8125 192.625 30.75C193.417 31.6875 194.854 32.1563 196.937 32.1563L196.937 44.4375C196.333 44.4583 195.885 44.4688 195.594 44.4688C192.948 44.4688 190.448 43.8542 188.094 42.625C185.76 41.3958 183.885 39.7292 182.469 37.625C180.677 34.9375 179.781 31.375 179.781 26.9375L179.781 1.34375L191.469 1.34375ZM213.5 1.34375L213.5 26.875C213.5 31.0208 214.99 33.0938 217.969 33.0938C219.24 33.0938 220.312 32.6667 221.187 31.8125C222.083 30.9375 222.531 29.8854 222.531 28.6563C222.531 27.3854 222.115 26.3229 221.281 25.4688C220.448 24.5938 219.427 24.1563 218.219 24.1563C217.365 24.1563 216.385 24.5313 215.281 25.2813L215.281 12.4063C216.656 12.2813 217.698 12.2188 218.406 12.2188C222.802 12.2188 226.562 13.8021 229.687 16.9688C232.833 20.1354 234.406 23.9479 234.406 28.4063C234.406 32.9688 232.812 36.8125 229.625 39.9375C226.437 43.0625 222.521 44.625 217.875 44.625C215.542 44.625 213.26 44.1146 211.031 43.0938C208.823 42.0729 207 40.6979 205.562 38.9688C203.062 35.9688 201.812 32.0833 201.812 27.3125L201.812 1.34375L213.5 1.34375ZM254.344 12.1875C258.76 12.1875 262.542 13.7813 265.687 16.9688C268.854 20.1354 270.437 23.9375 270.437 28.375C270.437 32.875 268.833 36.7083 265.625 39.875C262.437 43.0417 258.583 44.625 254.062 44.625C249.542 44.625 245.677 43.0417 242.469 39.875C239.26 36.6875 237.656 32.8542 237.656 28.375C237.656 23.8125 239.26 19.9792 242.469 16.875C245.677 13.75 249.635 12.1875 254.344 12.1875ZM254.031 23.7188C252.781 23.7188 251.719 24.1771 250.844 25.0938C249.969 25.9896 249.531 27.0938 249.531 28.4063C249.531 29.6979 249.969 30.8021 250.844 31.7188C251.74 32.6354 252.802 33.0938 254.031 33.0938C255.281 33.0938 256.344 32.6354 257.219 31.7188C258.115 30.8021 258.562 29.6979 258.562 28.4063C258.562 27.0938 258.125 25.9896 257.25 25.0938C256.375 24.1771 255.302 23.7188 254.031 23.7188ZM291.031 12.8438L302.719 12.8438L302.719 19.6875C302.719 21.6458 302.427 23.2292 301.844 24.4375C301.281 25.625 300.302 26.6771 298.906 27.5938C300.323 28.5521 301.312 29.6042 301.875 30.75C302.437 31.8958 302.719 33.3958 302.719 35.25L302.719 44L291.031 44L291.031 34.5938C291.031 32.4479 290.281 31.375 288.781 31.375C287.323 31.375 286.594 32.3021 286.594 34.1563L286.594 44L274.906 44L274.906 35.6875C274.906 33.7708 275.25 32.2083 275.937 31C276.646 29.7917 277.865 28.6563 279.594 27.5938C277.865 26.4688 276.646 25.2813 275.937 24.0313C275.25 22.7813 274.906 21.1875 274.906 19.25L274.906 12.8438L286.594 12.8438L286.594 20.7188C286.594 21.5313 286.802 22.1979 287.219 22.7188C287.635 23.2396 288.167 23.5 288.812 23.5C290.292 23.5 291.031 22.5729 291.031 20.7188L291.031 12.8438ZM317.781 30C319.823 30 321.573 30.7396 323.031 32.2188C324.51 33.6979 325.25 35.4583 325.25 37.5C325.25 39.5417 324.521 41.2813 323.062 42.7188C321.604 44.1354 319.844 44.8438 317.781 44.8438C315.635 44.8438 313.865 44.1563 312.469 42.7813C311.094 41.3854 310.406 39.6146 310.406 37.4688C310.406 35.3854 311.125 33.625 312.562 32.1875C314 30.7292 315.74 30 317.781 30ZM361.156 44L349.469 44L349.469 26.4063C349.469 24.6146 348.729 23.7188 347.25 23.7188C345.792 23.7188 345.062 24.6146 345.062 26.4063L345.062 44L333.375 44L333.375 26.625C333.375 22.5625 334.719 19.1458 337.406 16.375C340.094 13.5833 343.385 12.1875 347.281 12.1875C351.74 12.1875 355.312 13.8021 358 17.0313C360.104 19.5521 361.156 23.0625 361.156 27.5625L361.156 44ZM384.625 31.1563L384.625 41.875C382.937 42.5 381.323 42.8125 379.781 42.8125C376.01 42.8125 372.812 41.3854 370.187 38.5313C367.583 35.6771 366.281 32.1875 366.281 28.0625C366.281 23.6042 367.854 19.8438 371 16.7813C374.146 13.7188 378.01 12.1875 382.594 12.1875C385.031 12.1875 387.365 12.6771 389.594 13.6563C391.823 14.6354 393.573 15.9479 394.844 17.5938C396.969 20.3229 398.031 24.2813 398.031 29.4688L398.031 39.7188C398.031 45.2813 396.448 49.7917 393.281 53.25C390.135 56.7292 386.031 58.4688 380.969 58.4688C379.427 58.4688 377.479 58.0833 375.125 57.3125L375.125 46.6875C376.646 47.5208 378.187 47.9375 379.75 47.9375C381.854 47.9375 383.479 47.2396 384.625 45.8438C385.771 44.4688 386.344 42.4896 386.344 39.9063L386.344 28.1875C386.344 24.9167 385.021 23.2813 382.375 23.2813C381.25 23.2813 380.26 23.7188 379.406 24.5938C378.573 25.4479 378.156 26.4375 378.156 27.5625C378.156 28.75 378.552 29.7396 379.344 30.5313C380.156 31.3229 381.156 31.7188 382.344 31.7188C383.135 31.7188 383.896 31.5313 384.625 31.1563Z" fill="black"/>
<path d="M0.875 44L-1.125 44L-1.125 46L0.875 46L0.875 44ZM23.4375 6.3125L21.7116 7.32302L23.3315 10.0899L25.1041 7.4182L23.4375 6.3125ZM28.0625 1.6875L29.0357 3.43477L29.0441 3.43009L29.0524 3.42534L28.0625 1.6875ZM46.0312 44L46.0312 46L48.0312 46L48.0312 44L46.0312 44ZM33.3437 44L31.3437 44L31.3437 46L33.3437 46L33.3437 44ZM33 13.5313L31.1793 14.3589L31.2024 14.4097L31.2283 14.4593L33 13.5313ZM29.8125 44L29.8125 46L31.8125 46L31.8125 44L29.8125 44ZM17.125 44L15.125 44L15.125 46L17.125 46L17.125 44ZM13.5625 44L13.5625 46L15.5625 46L15.5625 44L13.5625 44ZM2.875 44L2.875 13.25L-1.125 13.25L-1.125 44L2.875 44ZM2.875 13.25C2.875 9.87489 3.88283 7.28077 5.78876 5.28898L2.89874 2.52352C0.179674 5.36506 -1.125 9.00011 -1.125 13.25L2.875 13.25ZM5.78876 5.28898C7.68327 3.30913 10.1401 2.28125 13.3437 2.28125L13.3437 -1.71875C9.17235 -1.71875 5.62923 -0.329964 2.89874 2.52352L5.78876 5.28898ZM13.3437 2.28125C16.954 2.28125 19.6878 3.86645 21.7116 7.32302L25.1634 5.30198C22.4789 0.716883 18.4835 -1.71875 13.3437 -1.71875L13.3437 2.28125ZM25.1041 7.4182C26.4285 5.4219 27.7545 4.14835 29.0357 3.43477L27.0893 -0.0597702C25.0789 1.05998 23.3215 2.86977 21.7709 5.2068L25.1041 7.4182ZM29.0524 3.42534C30.3244 2.70081 31.9928 2.28125 34.1562 2.28125L34.1562 -1.71875C31.4863 -1.71875 29.0923 -1.20081 27.0726 -0.0503384L29.0524 3.42534ZM34.1562 2.28125C37.5375 2.28125 39.8595 3.32502 41.441 5.19695L44.4965 2.61555C41.9946 -0.345856 38.4417 -1.71875 34.1562 -1.71875L34.1562 2.28125ZM41.441 5.19695C43.0687 7.1237 44.0312 10.0726 44.0312 14.3438L48.0312 14.3438C48.0312 9.53154 46.9521 5.52213 44.4965 2.61555L41.441 5.19695ZM44.0312 14.3438L44.0312 44L48.0312 44L48.0312 14.3438L44.0312 14.3438ZM46.0312 42L33.3437 42L33.3437 46L46.0312 46L46.0312 42ZM35.3437 44L35.3437 16.25L31.3437 16.25L31.3437 44L35.3437 44ZM35.3437 16.25C35.3437 15.516 35.3137 14.8548 35.242 14.2882C35.1758 13.7643 35.0543 13.1429 34.7717 12.6032L31.2283 14.4593C31.1748 14.3571 31.2253 14.4076 31.2736 14.7899C31.3166 15.1296 31.3437 15.609 31.3437 16.25L35.3437 16.25ZM34.8207 12.7036C34.1786 11.291 32.835 10.8438 31.6875 10.8438L31.6875 14.8438C31.8056 14.8438 31.7376 14.8659 31.5876 14.7873C31.5086 14.7459 31.4223 14.6842 31.3431 14.5998C31.2642 14.5158 31.2116 14.43 31.1793 14.3589L34.8207 12.7036ZM31.6875 10.8438C30.3661 10.8438 29.2354 11.4739 28.5574 12.6266C27.9764 13.6143 27.8125 14.8381 27.8125 16.0313L31.8125 16.0313C31.8125 15.5921 31.8453 15.2614 31.8923 15.0215C31.94 14.7785 31.9933 14.6748 32.0051 14.6547C32.0094 14.6474 31.966 14.7191 31.8532 14.783C31.7418 14.8462 31.6648 14.8438 31.6875 14.8438L31.6875 10.8438ZM27.8125 16.0313L27.8125 44L31.8125 44L31.8125 16.0313L27.8125 16.0313ZM29.8125 42L17.125 42L17.125 46L29.8125 46L29.8125 42ZM19.125 44L19.125 16.25L15.125 16.25L15.125 44L19.125 44ZM19.125 16.25C19.125 15.5249 19.0948 14.8694 19.0233 14.3038C18.9562 13.7734 18.8355 13.1676 18.5701 12.6368L14.9924 14.4257C14.9562 14.3532 15.0073 14.4298 15.0549 14.8056C15.0979 15.1462 15.125 15.6209 15.125 16.25L19.125 16.25ZM18.5701 12.6368C17.8966 11.2897 16.5926 10.8438 15.4375 10.8438L15.4375 14.8438C15.5529 14.8438 15.497 14.8649 15.3625 14.7961C15.2923 14.7602 15.2152 14.7067 15.1434 14.6338C15.0719 14.5612 15.0231 14.4871 14.9924 14.4257L18.5701 12.6368ZM15.4375 10.8438C14.8121 10.8438 14.17 10.9893 13.5812 11.3459C12.9962 11.7001 12.5735 12.1961 12.2792 12.7309C11.7237 13.74 11.5625 14.9966 11.5625 16.25L15.5625 16.25C15.5625 15.7683 15.5961 15.3973 15.6468 15.1207C15.6984 14.8399 15.759 14.7041 15.7833 14.6598C15.8015 14.6268 15.7694 14.697 15.6532 14.7674C15.5992 14.8001 15.5457 14.8211 15.5005 14.8328C15.4568 14.8442 15.433 14.8438 15.4375 14.8438L15.4375 10.8438ZM11.5625 16.25L11.5625 44L15.5625 44L15.5625 16.25L11.5625 16.25ZM13.5625 42L0.875 42L0.875 46L13.5625 46L13.5625 42ZM70.1875 32.3125L72.1875 32.3125L72.1875 28.7222L69.1348 30.612L70.1875 32.3125ZM70.1875 44.4063L70.5302 46.3767L72.1875 46.0884L72.1875 44.4063L70.1875 44.4063ZM55.875 16.9375L54.4655 15.5186L54.4608 15.5233L55.875 16.9375ZM79.3125 16.6563L77.8833 18.0553L77.8882 18.0604L77.8933 18.0654L79.3125 16.6563ZM83.6875 44L83.6875 46L85.6875 46L85.6875 44L83.6875 44ZM72 44L70 44L70 46L72 46L72 44ZM70.7812 25.625L69.226 26.8824L69.234 26.8923L69.2421 26.9021L70.7812 25.625ZM68.1875 32.3125L68.1875 44.4063L72.1875 44.4063L72.1875 32.3125L68.1875 32.3125ZM69.8448 42.4358C68.9751 42.5871 68.2168 42.6563 67.5625 42.6563L67.5625 46.6563C68.4915 46.6563 69.4832 46.5588 70.5302 46.3767L69.8448 42.4358ZM67.5625 42.6563C63.3614 42.6563 59.972 41.2949 57.2484 38.6076L54.4391 41.4549C57.9655 44.9343 62.3886 46.6563 67.5625 46.6563L67.5625 42.6563ZM57.2484 38.6076C54.5283 35.9237 53.1562 32.5829 53.1562 28.4375L49.1562 28.4375C49.1562 33.5837 50.9092 37.9721 54.4391 41.4549L57.2484 38.6076ZM53.1562 28.4375C53.1562 24.4375 54.5252 21.1157 57.2892 18.3517L54.4608 15.5233C50.9331 19.0509 49.1562 23.3959 49.1562 28.4375L53.1562 28.4375ZM57.2845 18.3564C60.0712 15.5881 63.406 14.2188 67.4062 14.2188L67.4062 10.2188C62.3649 10.2188 58.0122 11.9953 54.4655 15.5186L57.2845 18.3564ZM67.4062 14.2188C72.0353 14.2188 75.4431 15.5624 77.8833 18.0553L80.7417 15.2572C77.3903 11.8334 72.8605 10.2188 67.4062 10.2188L67.4062 14.2188ZM77.8933 18.0654C80.3552 20.5449 81.6875 24.0122 81.6875 28.7188L85.6875 28.7188C85.6875 23.217 84.1032 18.6426 80.7317 15.2471L77.8933 18.0654ZM81.6875 28.7188L81.6875 44L85.6875 44L85.6875 28.7188L81.6875 28.7188ZM83.6875 42L72 42L72 46L83.6875 46L83.6875 42ZM74 44L74 29.5625L70 29.5625L70 44L74 44ZM74 29.5625C74 27.5894 73.5089 25.7802 72.3204 24.3479L69.2421 26.9021C69.6786 27.4282 70 28.2439 70 29.5625L74 29.5625ZM72.3365 24.3676C71.1335 22.8796 69.4684 22.1563 67.5625 22.1563L67.5625 26.1563C68.3649 26.1563 68.8457 26.4121 69.226 26.8824L72.3365 24.3676ZM67.5625 22.1563C65.785 22.1563 64.2188 22.8278 62.9608 24.0858L65.7892 26.9142C66.3229 26.3806 66.8817 26.1563 67.5625 26.1563L67.5625 22.1563ZM62.9608 24.0858C61.7028 25.3438 61.0312 26.91 61.0312 28.6875L65.0312 28.6875C65.0312 28.0067 65.2556 27.4479 65.7892 26.9142L62.9608 24.0858ZM61.0312 28.6875C61.0312 30.4383 61.5999 32.0219 62.818 33.2712L65.682 30.4788C65.2751 30.0615 65.0312 29.52 65.0312 28.6875L61.0312 28.6875ZM62.818 33.2712C64.0368 34.5212 65.5988 35.125 67.3437 35.125L67.3437 31.125C66.5887 31.125 66.0882 30.8954 65.682 30.4788L62.818 33.2712ZM67.3437 35.125C68.7397 35.125 70.0517 34.7488 71.2402 34.013L69.1348 30.612C68.5733 30.9595 67.9895 31.125 67.3437 31.125L67.3437 35.125ZM107.594 12.5313L109.594 12.5313L109.594 10.821L107.904 10.5555L107.594 12.5313ZM107.594 25.0313L106.611 26.7732L109.594 28.4557L109.594 25.0313L107.594 25.0313ZM102.187 44L102.187 46L104.187 46L104.187 44L102.187 44ZM90.5 44L88.5 44L88.5 46L90.5 46L90.5 44ZM94.1875 16.2188L95.658 17.5744L95.6632 17.5686L94.1875 16.2188ZM105.594 12.5313L105.594 25.0313L109.594 25.0313L109.594 12.5313L105.594 12.5313ZM108.576 23.2893C107.578 22.7259 106.496 22.3438 105.375 22.3438L105.375 26.3438C105.587 26.3438 105.985 26.42 106.611 26.7732L108.576 23.2893ZM105.375 22.3438C103.713 22.3438 102.251 23.03 101.31 24.468C100.467 25.7583 100.187 27.4395 100.187 29.2188L104.187 29.2188C104.187 27.748 104.439 26.9917 104.658 26.657C104.75 26.517 104.827 26.4616 104.889 26.4303C104.958 26.3951 105.101 26.3438 105.375 26.3438L105.375 22.3438ZM100.187 29.2188L100.187 44L104.187 44L104.187 29.2188L100.187 29.2188ZM102.187 42L90.5 42L90.5 46L102.187 46L102.187 42ZM92.5 44L92.5 26.9688L88.5 26.9688L88.5 44L92.5 44ZM92.5 26.9688C92.5 22.8446 93.6171 19.7882 95.658 17.5744L92.717 14.8631C89.8412 17.9827 88.5 22.0929 88.5 26.9688L92.5 26.9688ZM95.6632 17.5686C97.6926 15.3501 100.41 14.1875 104.031 14.1875L104.031 10.1875C99.4445 10.1875 95.5991 11.7124 92.7118 14.8689L95.6632 17.5686ZM104.031 14.1875C104.801 14.1875 105.874 14.2855 107.283 14.507L107.904 10.5555C106.397 10.3187 105.095 10.1875 104.031 10.1875L104.031 14.1875ZM122.75 1.34375L124.75 1.34375L124.75 -0.65625L122.75 -0.65625L122.75 1.34375ZM122.75 44L122.75 46L124.75 46L124.75 44L122.75 44ZM111.062 44L109.062 44L109.062 46L111.062 46L111.062 44ZM111.062 1.34375L111.062 -0.65625L109.062 -0.65625L109.062 1.34375L111.062 1.34375ZM140.656 12.8438L142.442 13.7441L143.904 10.8438L140.656 10.8438L140.656 12.8438ZM134.937 24.1875L133.152 23.2872L132.732 24.1195L133.1 24.976L134.937 24.1875ZM143.437 44L143.437 46L146.472 46L145.275 43.2115L143.437 44ZM130.5 44L128.618 44.6765L129.094 46L130.5 46L130.5 44ZM123.187 23.6563L121.392 22.7743L121.019 23.5351L121.305 24.3328L123.187 23.6563ZM128.5 12.8438L128.5 10.8438L127.254 10.8438L126.705 11.9618L128.5 12.8438ZM120.75 1.34375L120.75 44L124.75 44L124.75 1.34375L120.75 1.34375ZM122.75 42L111.062 42L111.062 46L122.75 46L122.75 42ZM113.062 44L113.062 1.34375L109.062 1.34375L109.062 44L113.062 44ZM111.062 3.34375L122.75 3.34375L122.75 -0.65625L111.062 -0.65625L111.062 3.34375ZM138.87 11.9434L133.152 23.2872L136.723 25.0878L142.442 13.7441L138.87 11.9434ZM133.1 24.976L141.6 44.7885L145.275 43.2115L136.775 23.399L133.1 24.976ZM143.437 42L130.5 42L130.5 46L143.437 46L143.437 42ZM132.382 43.3235L125.07 22.9797L121.305 24.3328L128.618 44.6765L132.382 43.3235ZM124.983 24.5382L130.295 13.7257L126.705 11.9618L121.392 22.7743L124.983 24.5382ZM128.5 14.8438L140.656 14.8438L140.656 10.8438L128.5 10.8438L128.5 14.8438ZM176.187 30.3125L176.187 32.3125L178.028 32.3125L178.181 30.4786L176.187 30.3125ZM158.469 30.3125L156.554 30.8913L156.984 32.3125L158.469 32.3125L158.469 30.3125ZM158.625 24.7813L158.625 22.7813L157.239 22.7813L156.752 24.079L158.625 24.7813ZM164.562 24.7813L164.562 26.7813L166.955 26.7813L166.531 24.4266L164.562 24.7813ZM157.094 23.1875L158.697 24.3831L158.702 24.3767L158.707 24.3702L157.094 23.1875ZM157.031 32.8438L155.393 33.9907L155.399 33.9998L155.406 34.0088L157.031 32.8438ZM163.906 32.9688L165.444 31.6896L163.989 29.9408L162.441 31.6078L163.906 32.9688ZM170.562 40.9688L171.798 42.5418L173.416 41.2711L172.1 39.6896L170.562 40.9688ZM148.562 39.9688L147.158 41.3924L148.562 39.9688ZM148.594 16.875L147.189 15.4515L147.184 15.4561L148.594 16.875ZM171.687 16.7813L170.268 18.1907L170.278 18.2002L171.687 16.7813ZM176.187 28.3125L158.469 28.3125L158.469 32.3125L176.187 32.3125L176.187 28.3125ZM160.383 29.7337C160.156 28.9812 160.062 28.3562 160.062 27.8438L156.062 27.8438C156.062 28.8313 156.24 29.8521 156.554 30.8913L160.383 29.7337ZM160.062 27.8438C160.062 27.048 160.205 26.2647 160.498 25.4835L156.752 24.079C156.295 25.2978 156.062 26.5562 156.062 27.8438L160.062 27.8438ZM158.625 26.7813L164.562 26.7813L164.562 22.7813L158.625 22.7813L158.625 26.7813ZM166.531 24.4266C166.271 22.9824 165.688 21.6492 164.601 20.6842C163.498 19.7041 162.11 19.3125 160.656 19.3125L160.656 23.3125C161.39 23.3125 161.747 23.4991 161.945 23.6752C162.161 23.8664 162.438 24.2676 162.594 25.1359L166.531 24.4266ZM160.656 19.3125C158.515 19.3125 156.747 20.2788 155.481 22.0048L158.707 24.3702C159.274 23.5962 159.88 23.3125 160.656 23.3125L160.656 19.3125ZM155.49 21.9919C154.255 23.6483 153.719 25.6839 153.719 27.9375L157.719 27.9375C157.719 26.3161 158.099 25.185 158.697 24.3831L155.49 21.9919ZM153.719 27.9375C153.719 30.2372 154.217 32.3109 155.393 33.9907L158.67 31.6968C158.096 30.8766 157.719 29.6795 157.719 27.9375L153.719 27.9375ZM155.406 34.0088C156.646 35.74 158.398 36.7188 160.531 36.7188L160.531 32.7188C159.79 32.7188 159.208 32.4475 158.657 31.6787L155.406 34.0088ZM160.531 36.7188C162.434 36.7188 164.053 35.7498 165.372 34.3297L162.441 31.6078C161.593 32.521 160.962 32.7188 160.531 32.7188L160.531 36.7188ZM162.369 34.2479L169.025 42.2479L172.1 39.6896L165.444 31.6896L162.369 34.2479ZM169.327 39.3957C166.56 41.5688 163.543 42.625 160.219 42.625L160.219 46.625C164.478 46.625 168.357 45.2437 171.798 42.5418L169.327 39.3957ZM160.219 42.625C156.092 42.625 152.72 41.2613 149.967 38.5451L147.158 41.3924C150.697 44.8845 155.095 46.625 160.219 46.625L160.219 42.625ZM149.967 38.5451C147.218 35.8321 145.844 32.508 145.844 28.4375L141.844 28.4375C141.844 33.5337 143.616 37.8971 147.158 41.3924L149.967 38.5451ZM145.844 28.4375C145.844 24.3945 147.224 21.055 150.003 18.2939L147.184 15.4561C143.63 18.9866 141.844 23.3555 141.844 28.4375L145.844 28.4375ZM149.999 18.2985C152.798 15.5353 156.194 14.1563 160.312 14.1563L160.312 10.1563C155.181 10.1563 150.764 11.923 147.189 15.4515L149.999 18.2985ZM160.312 14.1563C164.325 14.1563 167.598 15.502 170.268 18.1907L173.107 15.3718C169.652 11.8938 165.342 10.1563 160.312 10.1563L160.312 14.1563ZM170.278 18.2002C172.969 20.8727 174.312 24.1366 174.312 28.125L178.312 28.125C178.312 23.1134 176.573 18.8148 173.097 15.3623L170.278 18.2002ZM174.312 28.125C174.312 28.4942 174.277 29.1527 174.194 30.1464L178.181 30.4786C178.264 29.4723 178.312 28.6724 178.312 28.125L174.312 28.125ZM191.469 1.34375L193.469 1.34375L193.469 -0.65625L191.469 -0.65625L191.469 1.34375ZM191.469 13.2813L189.469 13.2813L189.469 15.2813L191.469 15.2813L191.469 13.2813ZM196.719 13.2813L198.719 13.2813L198.719 11.2813L196.719 11.2813L196.719 13.2813ZM196.719 25.625L196.719 27.625L198.719 27.625L198.719 25.625L196.719 25.625ZM191.469 25.625L191.469 23.625L189.469 23.625L189.469 25.625L191.469 25.625ZM192.625 30.75L191.08 32.0202L191.088 32.0303L191.097 32.0404L192.625 30.75ZM196.937 32.1563L198.937 32.1563L198.937 30.1563L196.937 30.1563L196.937 32.1563ZM196.937 44.4375L197.006 46.4363L198.937 46.3697L198.937 44.4375L196.937 44.4375ZM188.094 42.625L187.162 44.3945L187.168 44.3979L188.094 42.625ZM182.469 37.625L180.805 38.7344L180.81 38.742L182.469 37.625ZM179.781 1.34375L179.781 -0.65625L177.781 -0.65625L177.781 1.34375L179.781 1.34375ZM189.469 1.34375L189.469 13.2813L193.469 13.2813L193.469 1.34375L189.469 1.34375ZM191.469 15.2813L196.719 15.2813L196.719 11.2813L191.469 11.2813L191.469 15.2813ZM194.719 13.2813L194.719 25.625L198.719 25.625L198.719 13.2813L194.719 13.2813ZM196.719 23.625L191.469 23.625L191.469 27.625L196.719 27.625L196.719 23.625ZM189.469 25.625C189.469 28.1633 189.833 30.5037 191.08 32.0202L194.17 29.4798C193.875 29.1213 193.469 28.045 193.469 25.625L189.469 25.625ZM191.097 32.0404C192.466 33.6613 194.661 34.1563 196.937 34.1563L196.937 30.1563C195.047 30.1563 194.368 29.7137 194.153 29.4596L191.097 32.0404ZM194.937 32.1563L194.937 44.4375L198.937 44.4375L198.937 32.1563L194.937 32.1563ZM196.869 42.4387C196.269 42.4594 195.849 42.4688 195.594 42.4688L195.594 46.4688C195.922 46.4688 196.398 46.4573 197.006 46.4363L196.869 42.4387ZM195.594 42.4688C193.272 42.4688 191.089 41.9327 189.019 40.8521L187.168 44.3979C189.807 45.7757 192.624 46.4688 195.594 46.4688L195.594 42.4688ZM189.026 40.8555C186.973 39.7741 185.352 38.3269 184.128 36.508L180.81 38.742C182.418 41.1314 184.548 43.0176 187.162 44.3945L189.026 40.8555ZM184.133 36.5156C182.628 34.2584 181.781 31.1233 181.781 26.9375L177.781 26.9375C177.781 31.6267 178.726 35.6166 180.805 38.7344L184.133 36.5156ZM181.781 26.9375L181.781 1.34375L177.781 1.34375L177.781 26.9375L181.781 26.9375ZM179.781 3.34375L191.469 3.34375L191.469 -0.65625L179.781 -0.65625L179.781 3.34375ZM213.5 1.34375L215.5 1.34375L215.5 -0.65625L213.5 -0.65625L213.5 1.34375ZM221.187 31.8125L222.585 33.2436L222.585 33.2433L221.187 31.8125ZM221.281 25.4688L219.833 26.8481L219.841 26.8568L219.85 26.8654L221.281 25.4688ZM215.281 25.2813L213.281 25.2813L213.281 29.0575L216.405 26.9357L215.281 25.2813ZM215.281 12.4063L215.1 10.4145L213.281 10.5798L213.281 12.4063L215.281 12.4063ZM229.687 16.9688L228.264 18.3736L228.269 18.3783L229.687 16.9688ZM211.031 43.0938L210.192 44.9092L210.199 44.9121L211.031 43.0938ZM205.562 38.9688L207.1 37.6902L207.099 37.6884L205.562 38.9688ZM201.812 1.34375L201.812 -0.65625L199.812 -0.65625L199.812 1.34375L201.812 1.34375ZM211.5 1.34375L211.5 26.875L215.5 26.875L215.5 1.34375L211.5 1.34375ZM211.5 26.875C211.5 29.1273 211.894 31.1765 212.993 32.7062C214.18 34.358 215.958 35.0938 217.969 35.0938L217.969 31.0938C217 31.0938 216.544 30.7931 216.241 30.372C215.851 29.8287 215.5 28.7685 215.5 26.875L211.5 26.875ZM217.969 35.0938C219.739 35.0938 221.32 34.4781 222.585 33.2436L219.79 30.3814C219.305 30.8552 218.74 31.0938 217.969 31.0938L217.969 35.0938ZM222.585 33.2433C223.858 31.9999 224.531 30.4353 224.531 28.6563L220.531 28.6563C220.531 29.3355 220.309 29.8751 219.79 30.3817L222.585 33.2433ZM224.531 28.6563C224.531 26.901 223.936 25.3258 222.713 24.0721L219.85 26.8654C220.293 27.32 220.531 27.8699 220.531 28.6563L224.531 28.6563ZM222.73 24.0894C221.519 22.8181 219.974 22.1563 218.219 22.1563L218.219 26.1563C218.88 26.1563 219.377 26.3694 219.833 26.8481L222.73 24.0894ZM218.219 22.1563C216.796 22.1563 215.421 22.7688 214.157 23.6268L216.405 26.9357C217.35 26.2937 217.933 26.1563 218.219 26.1563L218.219 22.1563ZM217.281 25.2813L217.281 12.4063L213.281 12.4063L213.281 25.2813L217.281 25.2813ZM215.462 14.398C216.822 14.2744 217.791 14.2188 218.406 14.2188L218.406 10.2188C217.605 10.2188 216.49 10.2881 215.1 10.4145L215.462 14.398ZM218.406 14.2188C222.26 14.2188 225.51 15.5825 228.264 18.3736L231.111 15.5639C227.615 12.0216 223.344 10.2188 218.406 10.2188L218.406 14.2188ZM228.269 18.3783C231.043 21.1708 232.406 24.4768 232.406 28.4063L236.406 28.4063C236.406 23.4191 234.624 19.1001 231.106 15.5592L228.269 18.3783ZM232.406 28.4063C232.406 32.4448 231.019 35.7697 228.225 38.5094L231.025 41.3656C234.606 37.8553 236.406 33.4927 236.406 28.4063L232.406 28.4063ZM228.225 38.5094C225.428 41.2515 222.021 42.625 217.875 42.625L217.875 46.625C223.021 46.625 227.447 44.8735 231.025 41.3656L228.225 38.5094ZM217.875 42.625C215.844 42.625 213.845 42.1827 211.864 41.2754L210.199 44.9121C212.675 46.0464 215.24 46.625 217.875 46.625L217.875 42.625ZM211.87 41.2783C209.91 40.3719 208.333 39.1724 207.1 37.6902L204.025 40.2473C205.667 42.2235 207.736 43.7739 210.192 44.9092L211.87 41.2783ZM207.099 37.6884C204.961 35.1225 203.812 31.723 203.812 27.3125L199.812 27.3125C199.812 32.4437 201.164 36.815 204.026 40.2491L207.099 37.6884ZM203.812 27.3125L203.812 1.34375L199.812 1.34375L199.812 27.3125L203.812 27.3125ZM201.812 3.34375L213.5 3.34375L213.5 -0.65625L201.812 -0.65625L201.812 3.34375ZM265.687 16.9688L264.264 18.3737L264.273 18.383L265.687 16.9688ZM265.625 39.875L264.22 38.4516L264.215 38.4562L265.625 39.875ZM242.469 39.875L241.059 41.2938L241.064 41.2984L242.469 39.875ZM242.469 16.875L243.859 18.3124L243.864 18.3077L242.469 16.875ZM250.844 25.0938L252.275 26.4912L252.283 26.483L252.29 26.4747L250.844 25.0938ZM250.844 31.7188L249.397 33.0997L249.405 33.1082L249.413 33.1166L250.844 31.7188ZM257.219 31.7188L255.788 30.3209L255.78 30.3293L255.772 30.3378L257.219 31.7188ZM257.25 25.0938L255.803 26.4747L255.811 26.483L255.819 26.4912L257.25 25.0938ZM254.344 14.1875C258.217 14.1875 261.488 15.5609 264.264 18.3736L267.111 15.5639C263.595 12.0016 259.304 10.1875 254.344 10.1875L254.344 14.1875ZM264.273 18.383C267.069 21.1784 268.437 24.4734 268.437 28.375L272.437 28.375C272.437 23.4016 270.64 19.0924 267.102 15.5545L264.273 18.383ZM268.437 28.375C268.437 32.339 267.048 35.66 264.22 38.4516L267.03 41.2984C270.618 37.7567 272.437 33.411 272.437 28.375L268.437 28.375ZM264.215 38.4562C261.405 41.248 258.059 42.625 254.062 42.625L254.062 46.625C259.108 46.625 263.47 44.8353 267.035 41.2938L264.215 38.4562ZM254.062 42.625C250.066 42.625 246.707 41.2476 243.874 38.4516L241.064 41.2984C244.648 44.8357 249.017 46.625 254.062 46.625L254.062 42.625ZM243.878 38.4562C241.044 35.64 239.656 32.3157 239.656 28.375L235.656 28.375C235.656 33.3926 237.477 37.735 241.059 41.2938L243.878 38.4562ZM239.656 28.375C239.656 24.3409 241.05 21.0305 243.859 18.3124L241.078 15.4376C237.471 18.9278 235.656 23.2841 235.656 28.375L239.656 28.375ZM243.864 18.3077C246.678 15.5666 250.127 14.1875 254.344 14.1875L254.344 10.1875C249.144 10.1875 244.676 11.9334 241.073 15.4423L243.864 18.3077ZM254.031 21.7188C252.226 21.7188 250.644 22.4069 249.397 23.7128L252.29 26.4747C252.794 25.9472 253.336 25.7188 254.031 25.7188L254.031 21.7188ZM249.413 23.6963C248.154 24.9852 247.531 26.5993 247.531 28.4063L251.531 28.4063C251.531 27.5882 251.783 26.994 252.275 26.4912L249.413 23.6963ZM247.531 28.4063C247.531 30.2012 248.159 31.8031 249.397 33.0997L252.29 30.3378C251.778 29.8011 251.531 29.1946 251.531 28.4063L247.531 28.4063ZM249.413 33.1166C250.668 34.3999 252.238 35.0938 254.031 35.0938L254.031 31.0938C253.366 31.0938 252.812 30.8709 252.274 30.3209L249.413 33.1166ZM254.031 35.0938C255.836 35.0938 257.419 34.4056 258.665 33.0997L255.772 30.3378C255.269 30.8653 254.726 31.0938 254.031 31.0938L254.031 35.0938ZM258.649 33.1166C259.913 31.823 260.562 30.2158 260.562 28.4063L256.562 28.4063C256.562 29.18 256.316 29.7811 255.788 30.3209L258.649 33.1166ZM260.562 28.4063C260.562 26.5993 259.94 24.9852 258.681 23.6963L255.819 26.4912C256.31 26.994 256.562 27.5882 256.562 28.4063L260.562 28.4063ZM258.697 23.7128C257.443 22.3995 255.847 21.7188 254.031 21.7188L254.031 25.7188C254.757 25.7188 255.307 25.9547 255.803 26.4747L258.697 23.7128ZM291.031 12.8438L291.031 10.8438L289.031 10.8438L289.031 12.8438L291.031 12.8438ZM302.719 12.8438L304.719 12.8438L304.719 10.8438L302.719 10.8438L302.719 12.8438ZM301.844 24.4375L300.043 23.568L300.039 23.5747L300.036 23.5813L301.844 24.4375ZM298.906 27.5938L297.808 25.922L295.3 27.5691L297.786 29.2503L298.906 27.5938ZM302.719 44L302.719 46L304.719 46L304.719 44L302.719 44ZM291.031 44L289.031 44L289.031 46L291.031 46L291.031 44ZM286.594 44L286.594 46L288.594 46L288.594 44L286.594 44ZM274.906 44L272.906 44L272.906 46L274.906 46L274.906 44ZM275.937 31L274.212 29.9886L274.206 29.9997L274.199 30.011L275.937 31ZM279.594 27.5938L280.641 29.2978L283.335 27.642L280.684 25.9173L279.594 27.5938ZM275.937 24.0313L274.185 24.9951L274.191 25.0062L274.197 25.0173L275.937 24.0313ZM274.906 12.8438L274.906 10.8438L272.906 10.8438L272.906 12.8438L274.906 12.8438ZM286.594 12.8438L288.594 12.8438L288.594 10.8438L286.594 10.8438L286.594 12.8438ZM291.031 14.8438L302.719 14.8438L302.719 10.8438L291.031 10.8438L291.031 14.8438ZM300.719 12.8438L300.719 19.6875L304.719 19.6875L304.719 12.8438L300.719 12.8438ZM300.719 19.6875C300.719 21.4724 300.449 22.7262 300.043 23.568L303.645 25.307C304.405 23.7321 304.719 21.8192 304.719 19.6875L300.719 19.6875ZM300.036 23.5813C299.668 24.3582 298.979 25.153 297.808 25.922L300.004 29.2655C301.625 28.2012 302.894 26.8918 303.651 25.2937L300.036 23.5813ZM297.786 29.2503C299.008 30.0774 299.714 30.8869 300.08 31.6313L303.67 29.8687C302.911 28.3214 301.638 27.0267 300.027 25.9372L297.786 29.2503ZM300.08 31.6313C300.461 32.4074 300.719 33.5734 300.719 35.25L304.719 35.25C304.719 33.2183 304.414 31.3843 303.67 29.8687L300.08 31.6313ZM300.719 35.25L300.719 44L304.719 44L304.719 35.25L300.719 35.25ZM302.719 42L291.031 42L291.031 46L302.719 46L302.719 42ZM293.031 44L293.031 34.5938L289.031 34.5938L289.031 44L293.031 44ZM293.031 34.5938C293.031 33.3492 292.825 32.0594 292.108 31.0338C291.3 29.8778 290.074 29.375 288.781 29.375L288.781 33.375C288.918 33.375 288.942 33.399 288.905 33.3814C288.888 33.3732 288.868 33.3606 288.85 33.3453C288.832 33.3302 288.826 33.3208 288.83 33.3255C288.838 33.338 288.892 33.4227 288.943 33.6394C288.993 33.8565 289.031 34.1674 289.031 34.5938L293.031 34.5938ZM288.781 29.375C287.599 29.375 286.401 29.775 285.569 30.8339C284.808 31.8013 284.594 33.0213 284.594 34.1563L288.594 34.1563C288.594 33.8172 288.628 33.589 288.665 33.4467C288.702 33.3077 288.733 33.2811 288.713 33.3067C288.685 33.3422 288.64 33.3755 288.605 33.3903C288.582 33.3999 288.625 33.375 288.781 33.375L288.781 29.375ZM284.594 34.1563L284.594 44L288.594 44L288.594 34.1563L284.594 34.1563ZM286.594 42L274.906 42L274.906 46L286.594 46L286.594 42ZM276.906 44L276.906 35.6875L272.906 35.6875L272.906 44L276.906 44ZM276.906 35.6875C276.906 33.9923 277.213 32.8031 277.676 31.989L274.199 30.011C273.287 31.6136 272.906 33.5494 272.906 35.6875L276.906 35.6875ZM277.663 32.0114C278.148 31.1847 279.074 30.2604 280.641 29.2978L278.547 25.8897C276.655 27.0521 275.144 28.3987 274.212 29.9886L277.663 32.0114ZM280.684 25.9173C279.115 24.896 278.174 23.9216 277.678 23.0452L274.197 25.0173C275.118 26.6409 276.615 28.0415 278.503 29.2702L280.684 25.9173ZM277.69 23.0674C277.213 22.1996 276.906 20.966 276.906 19.25L272.906 19.25C272.906 21.409 273.287 23.3629 274.185 24.9951L277.69 23.0674ZM276.906 19.25L276.906 12.8438L272.906 12.8438L272.906 19.25L276.906 19.25ZM274.906 14.8438L286.594 14.8438L286.594 10.8438L274.906 10.8438L274.906 14.8438ZM284.594 12.8438L284.594 20.7188L288.594 20.7188L288.594 12.8438L284.594 12.8438ZM284.594 20.7188C284.594 21.8832 284.899 23.0203 285.657 23.9681L288.78 21.4694C288.705 21.3755 288.594 21.1793 288.594 20.7188L284.594 20.7188ZM285.657 23.9681C286.439 24.9454 287.536 25.5 288.812 25.5L288.812 21.5C288.786 21.5 288.777 21.4974 288.782 21.4984C288.787 21.4995 288.797 21.5027 288.81 21.5088C288.822 21.5149 288.828 21.5195 288.825 21.5172C288.821 21.5144 288.806 21.501 288.78 21.4694L285.657 23.9681ZM288.812 25.5C289.995 25.5 291.198 25.1068 292.04 24.0519C292.813 23.0833 293.031 21.8585 293.031 20.7188L289.031 20.7188C289.031 21.0559 288.997 21.2817 288.96 21.4216C288.924 21.5577 288.893 21.5829 288.913 21.5574C288.941 21.5226 288.984 21.4926 289.012 21.4808C289.028 21.474 288.977 21.5 288.812 21.5L288.812 25.5ZM293.031 20.7188L293.031 12.8438L289.031 12.8438L289.031 20.7188L293.031 20.7188ZM323.031 32.2188L321.607 33.6229L321.612 33.6279L321.617 33.633L323.031 32.2188ZM323.062 42.7188L324.456 44.1533L324.461 44.1482L324.466 44.1431L323.062 42.7188ZM312.469 42.7813L311.044 44.1848L311.055 44.1955L311.065 44.2061L312.469 42.7813ZM312.562 32.1875L313.977 33.6017L313.982 33.5966L313.987 33.5915L312.562 32.1875ZM317.781 32C319.277 32 320.517 32.5175 321.607 33.6229L324.455 30.8146C322.629 28.9617 320.369 28 317.781 28L317.781 32ZM321.617 33.633C322.731 34.7474 323.25 36.0032 323.25 37.5L327.25 37.5C327.25 34.9135 326.289 32.6484 324.445 30.8045L321.617 33.633ZM323.25 37.5C323.25 39.0045 322.737 40.2315 321.659 41.2944L324.466 44.1431C326.305 42.331 327.25 40.0789 327.25 37.5L323.25 37.5ZM321.669 41.2842C320.59 42.3324 319.332 42.8438 317.781 42.8438L317.781 46.8438C320.356 46.8438 322.618 45.9384 324.456 44.1533L321.669 41.2842ZM317.781 42.8438C316.106 42.8438 314.857 42.3261 313.872 41.3564L311.065 44.2061C312.873 45.9864 315.165 46.8438 317.781 46.8438L317.781 42.8438ZM313.894 41.3777C312.924 40.3934 312.406 39.1442 312.406 37.4688L308.406 37.4688C308.406 40.0849 309.264 42.3774 311.044 44.1848L313.894 41.3777ZM312.406 37.4688C312.406 35.9011 312.925 34.6539 313.977 33.6017L311.148 30.7733C309.325 32.5961 308.406 34.8697 308.406 37.4688L312.406 37.4688ZM313.987 33.5915C315.05 32.5132 316.277 32 317.781 32L317.781 28C315.202 28 312.95 28.9451 311.138 30.7835L313.987 33.5915ZM361.156 44L361.156 46L363.156 46L363.156 44L361.156 44ZM349.469 44L347.469 44L347.469 46L349.469 46L349.469 44ZM345.062 44L345.062 46L347.062 46L347.062 44L345.062 44ZM333.375 44L331.375 44L331.375 46L333.375 46L333.375 44ZM337.406 16.375L338.842 17.7675L338.847 17.7621L337.406 16.375ZM358 17.0313L356.463 18.3106L356.465 18.3129L358 17.0313ZM361.156 42L349.469 42L349.469 46L361.156 46L361.156 42ZM351.469 44L351.469 26.4063L347.469 26.4063L347.469 44L351.469 44ZM351.469 26.4063C351.469 25.2854 351.245 24.0729 350.456 23.1173C349.607 22.0884 348.41 21.7188 347.25 21.7188L347.25 25.7188C347.422 25.7188 347.482 25.7451 347.472 25.7413C347.45 25.7324 347.405 25.7046 347.372 25.6639C347.345 25.6313 347.369 25.6438 347.402 25.7611C347.435 25.8831 347.469 26.0894 347.469 26.4063L351.469 26.4063ZM347.25 21.7188C346.091 21.7188 344.899 22.0947 344.058 23.1281C343.281 24.0827 343.062 25.2906 343.062 26.4063L347.062 26.4063C347.062 26.0874 347.096 25.8787 347.129 25.7542C347.162 25.6339 347.187 25.6202 347.16 25.6532C347.127 25.6947 347.079 25.7259 347.051 25.7375C347.035 25.7442 347.086 25.7188 347.25 25.7188L347.25 21.7188ZM343.062 26.4063L343.062 44L347.062 44L347.062 26.4063L343.062 26.4063ZM345.062 42L333.375 42L333.375 46L345.062 46L345.062 42ZM335.375 44L335.375 26.625L331.375 26.625L331.375 44L335.375 44ZM335.375 26.625C335.375 23.0522 336.537 20.144 338.842 17.7675L335.971 14.9825C332.901 18.1477 331.375 22.0728 331.375 26.625L335.375 26.625ZM338.847 17.7621C341.155 15.3644 343.926 14.1875 347.281 14.1875L347.281 10.1875C342.845 10.1875 339.032 11.8023 335.965 14.9879L338.847 17.7621ZM347.281 14.1875C351.187 14.1875 354.181 15.5691 356.463 18.3106L359.537 15.7519C356.444 12.0351 352.292 10.1875 347.281 10.1875L347.281 14.1875ZM356.465 18.3129C358.174 20.3605 359.156 23.358 359.156 27.5625L363.156 27.5625C363.156 22.767 362.035 18.7436 359.535 15.7496L356.465 18.3129ZM359.156 27.5625L359.156 44L363.156 44L363.156 27.5625L359.156 27.5625ZM384.625 31.1563L386.625 31.1563L386.625 27.8787L383.71 29.3777L384.625 31.1563ZM384.625 41.875L385.32 43.7505L386.625 43.267L386.625 41.875L384.625 41.875ZM370.187 38.5313L368.71 39.8793L368.715 39.8851L370.187 38.5313ZM394.844 17.5938L393.261 18.8161L393.266 18.8225L394.844 17.5938ZM393.281 53.25L391.806 51.8993L391.798 51.9086L393.281 53.25ZM375.125 57.3125L373.125 57.3125L373.125 58.7621L374.503 59.2132L375.125 57.3125ZM375.125 46.6875L376.086 44.9335L373.125 43.311L373.125 46.6875L375.125 46.6875ZM384.625 45.8438L383.089 44.5634L383.084 44.5691L383.079 44.5748L384.625 45.8438ZM379.406 24.5938L377.975 23.1967L377.975 23.1971L379.406 24.5938ZM379.344 30.5313L377.93 31.9455L377.939 31.9546L377.948 31.9637L379.344 30.5313ZM382.625 31.1563L382.625 41.875L386.625 41.875L386.625 31.1563L382.625 31.1563ZM383.93 39.9995C382.429 40.5557 381.05 40.8125 379.781 40.8125L379.781 44.8125C381.596 44.8125 383.446 44.4443 385.32 43.7505L383.93 39.9995ZM379.781 40.8125C376.588 40.8125 373.918 39.633 371.66 37.1774L368.715 39.8851C371.707 43.1378 375.433 44.8125 379.781 44.8125L379.781 40.8125ZM371.665 37.1832C369.421 34.7239 368.281 31.7256 368.281 28.0625L364.281 28.0625C364.281 32.6494 365.746 36.6303 368.71 39.8793L371.665 37.1832ZM368.281 28.0625C368.281 24.1345 369.643 20.8938 372.395 18.2143L369.605 15.3482C366.066 18.7937 364.281 23.0738 364.281 28.0625L368.281 28.0625ZM372.395 18.2143C375.15 15.5327 378.506 14.1875 382.594 14.1875L382.594 10.1875C377.515 10.1875 373.142 11.9048 369.605 15.3482L372.395 18.2143ZM382.594 14.1875C384.755 14.1875 386.814 14.6197 388.789 15.4874L390.398 11.8251C387.915 10.7345 385.308 10.1875 382.594 10.1875L382.594 14.1875ZM388.789 15.4874C390.765 16.355 392.227 17.4771 393.261 18.8161L396.427 16.3714C394.919 14.4187 392.881 12.9158 390.398 11.8251L388.789 15.4874ZM393.266 18.8225C395.01 21.0633 396.031 24.514 396.031 29.4688L400.031 29.4688C400.031 24.0485 398.927 19.5826 396.422 16.365L393.266 18.8225ZM396.031 29.4688L396.031 39.7188L400.031 39.7188L400.031 29.4688L396.031 29.4688ZM396.031 39.7188C396.031 44.88 394.574 48.8766 391.806 51.8994L394.756 54.6006C398.322 50.7067 400.031 45.6825 400.031 39.7188L396.031 39.7188ZM391.798 51.9086C389.064 54.9325 385.516 56.4688 380.969 56.4688L380.969 60.4688C386.546 60.4688 391.207 58.5258 394.765 54.5914L391.798 51.9086ZM380.969 56.4688C379.727 56.4688 378.007 56.1517 375.747 55.4118L374.503 59.2132C376.951 60.015 379.127 60.4688 380.969 60.4688L380.969 56.4688ZM377.125 57.3125L377.125 46.6875L373.125 46.6875L373.125 57.3125L377.125 57.3125ZM374.164 48.4415C375.946 49.4181 377.816 49.9375 379.75 49.9375L379.75 45.9375C378.559 45.9375 377.345 45.6235 376.086 44.9335L374.164 48.4415ZM379.75 49.9375C382.342 49.9375 384.58 49.0504 386.171 47.1127L383.079 44.5748C382.378 45.4288 381.366 45.9375 379.75 45.9375L379.75 49.9375ZM386.161 47.1241C387.715 45.2598 388.344 42.7547 388.344 39.9063L384.344 39.9063C384.344 42.2245 383.827 43.6777 383.089 44.5634L386.161 47.1241ZM388.344 39.9063L388.344 28.1875L384.344 28.1875L384.344 39.9063L388.344 39.9063ZM388.344 28.1875C388.344 26.3345 387.977 24.5739 386.907 23.25C385.77 21.845 384.132 21.2813 382.375 21.2813L382.375 25.2813C383.264 25.2813 383.61 25.5352 383.797 25.7656C384.049 26.0771 384.344 26.7697 384.344 28.1875L388.344 28.1875ZM382.375 21.2813C380.661 21.2813 379.169 21.9732 377.975 23.1967L380.837 25.9908C381.351 25.4643 381.839 25.2813 382.375 25.2813L382.375 21.2813ZM377.975 23.1971C376.801 24.3997 376.156 25.8816 376.156 27.5625L380.156 27.5625C380.156 26.9934 380.344 26.4961 380.838 25.9904L377.975 23.1971ZM376.156 27.5625C376.156 29.2447 376.738 30.7542 377.93 31.9455L380.758 29.117C380.366 28.725 380.156 28.2553 380.156 27.5625L376.156 27.5625ZM377.948 31.9637C379.153 33.1377 380.662 33.7188 382.344 33.7188L382.344 29.7188C381.651 29.7188 381.16 29.5081 380.739 29.0988L377.948 31.9637ZM382.344 33.7188C383.465 33.7188 384.538 33.45 385.54 32.9348L383.71 29.3777C383.254 29.6125 382.806 29.7188 382.344 29.7188L382.344 33.7188Z" fill="#EF5612" mask="url(#path-1-outside-1_9702_641)"/>
</svg>
