<svg width="22" height="22" viewBox="0 0 22 22" fill="none" xmlns="http://www.w3.org/2000/svg">
<path d="M12.5601 17.9371L17.9606 12.526L21.0395 15.6119C22.3202 16.8926 22.3202 18.9705 21.0395 20.2513L20.2789 21.0119C18.9982 22.2968 16.9203 22.2968 15.6396 21.0119L12.5601 17.9371ZM21.0319 1.72118L20.2679 0.960573C18.9871 -0.320191 16.9093 -0.320191 15.6286 0.960573L10.9997 5.59998L6.36039 0.960573C5.07967 -0.320191 3.00185 -0.320191 1.72112 0.960573L0.960543 1.72118C-0.320181 3.00194 -0.320181 5.07982 0.960543 6.36059L5.59981 11L0.960543 15.6394C-0.320181 16.9202 -0.320181 18.9981 0.960543 20.2788L1.72112 21.0394C3.00185 22.3202 5.07967 22.3202 6.36039 21.0394L21.0395 6.3599C22.3202 5.07914 22.3202 3.00125 21.0395 1.72049L21.0319 1.72118Z" fill="#FEB808"/>
</svg>
