<svg width="35" height="34" viewBox="0 0 35 34" fill="none" xmlns="http://www.w3.org/2000/svg">
<path d="M0.644531 10.0527H34.513V27.3583C34.513 30.8298 31.6987 33.644 28.2272 33.644H6.93025C3.45874 33.644 0.644531 30.8298 0.644531 27.3583V10.0527Z" fill="white"/>
<path d="M9.49934 17.8695V15.9234H13.135V26.9209H10.9627V17.8695H9.49934ZM23.3677 17.7488H18.4799V20.3284C18.6911 20.067 18.9929 19.8558 19.3851 19.6948C19.7773 19.5239 20.1947 19.4384 20.6372 19.4384C21.4418 19.4384 22.1005 19.6144 22.6134 19.9664C23.1263 20.3184 23.4985 20.771 23.7298 21.3241C23.9611 21.8672 24.0767 22.4505 24.0767 23.074C24.0767 24.2306 23.7449 25.1609 23.0811 25.8649C22.4274 26.5689 21.4921 26.9209 20.2751 26.9209C19.1286 26.9209 18.2134 26.6343 17.5295 26.061C16.8457 25.4878 16.4585 24.7385 16.3679 23.8132H18.4196C18.5101 24.2155 18.7113 24.5374 19.023 24.7787C19.3449 25.0201 19.7522 25.1408 20.245 25.1408C20.8383 25.1408 21.2859 24.9547 21.5876 24.5826C21.8893 24.2105 22.0402 23.7177 22.0402 23.1042C22.0402 22.4807 21.8843 22.008 21.5725 21.6862C21.2708 21.3543 20.8233 21.1883 20.2299 21.1883C19.8075 21.1883 19.4555 21.2939 19.1739 21.5051C18.8923 21.7163 18.6911 21.9979 18.5705 22.3499H16.549V15.8932H23.3677V17.7488Z" fill="#034694"/>
<path d="M0.644531 6.93024C0.644531 3.45874 3.45874 0.644531 6.93024 0.644531H28.2272C31.6987 0.644531 34.513 3.45874 34.513 6.93024V8.17085H0.644531V6.93024Z" fill="white"/>
<ellipse cx="9.14159" cy="4.59543" rx="2.7036" ry="1.31711" fill="#034694"/>
<ellipse cx="26.1357" cy="4.59543" rx="2.7036" ry="1.31711" fill="#034694"/>
</svg>
