<svg width="35" height="33" viewBox="0 0 35 33" fill="none" xmlns="http://www.w3.org/2000/svg">
<ellipse cx="2.52611" cy="12.8855" rx="1.88158" ry="1.88158" fill="white"/>
<ellipse cx="2.52611" cy="18.907" rx="1.88158" ry="1.88158" fill="white"/>
<ellipse cx="2.52611" cy="24.9275" rx="1.88158" ry="1.88158" fill="white"/>
<ellipse cx="2.52611" cy="30.949" rx="1.88158" ry="1.88158" fill="white"/>
<circle cx="8.54711" cy="12.8855" r="1.88158" fill="white"/>
<ellipse cx="8.54711" cy="18.907" rx="1.88158" ry="1.88158" fill="white"/>
<ellipse cx="8.54711" cy="24.9275" rx="1.88158" ry="1.88158" fill="white"/>
<circle cx="8.54711" cy="30.949" r="1.88158" fill="white"/>
<ellipse cx="14.5681" cy="12.8855" rx="1.88158" ry="1.88158" fill="white"/>
<ellipse cx="14.5681" cy="18.907" rx="1.88158" ry="1.88158" fill="white"/>
<circle cx="14.5681" cy="24.9275" r="1.88158" fill="white"/>
<ellipse cx="14.5681" cy="30.949" rx="1.88158" ry="1.88158" fill="white"/>
<circle cx="20.5891" cy="12.8855" r="1.88158" fill="white"/>
<ellipse cx="20.5891" cy="18.907" rx="1.88158" ry="1.88158" fill="white"/>
<ellipse cx="20.5891" cy="24.9275" rx="1.88158" ry="1.88158" fill="white"/>
<ellipse cx="20.5891" cy="30.949" rx="1.88158" ry="1.88158" fill="white"/>
<ellipse cx="26.6106" cy="12.8855" rx="1.88158" ry="1.88158" fill="white"/>
<ellipse cx="26.6106" cy="18.907" rx="1.88158" ry="1.88158" fill="white"/>
<circle cx="26.6106" cy="24.9275" r="1.88158" fill="white"/>
<ellipse cx="26.6106" cy="30.949" rx="1.88158" ry="1.88158" fill="white"/>
<ellipse cx="32.6311" cy="12.8855" rx="1.88158" ry="1.88158" fill="white"/>
<ellipse cx="32.6311" cy="18.907" rx="1.88158" ry="1.88158" fill="white"/>
<ellipse cx="32.6311" cy="24.9275" rx="1.88158" ry="1.88158" fill="white"/>
<ellipse cx="32.6311" cy="30.949" rx="1.88158" ry="1.88158" fill="white"/>
<path d="M0.126953 7.92378C0.126953 3.76711 3.4966 0.397461 7.65327 0.397461H26.7406C30.8973 0.397461 34.267 3.76711 34.267 7.92378H0.126953Z" fill="white"/>
<ellipse cx="6.62352" cy="4.34836" rx="2.7036" ry="1.31711" fill="#034694"/>
<ellipse cx="27.2031" cy="4.34836" rx="2.7036" ry="1.31711" fill="#034694"/>
</svg>
