<svg width="100" height="100" viewBox="0 0 100 100" fill="none" xmlns="http://www.w3.org/2000/svg">
<path d="M17.2841 10H82.3313C88.8111 10 94.2938 15.2339 94.2938 21.7131V62.8346C94.2938 69.3144 88.8111 74.5477 82.3313 74.5477H60.3998L51.6771 89.002C50.9293 90.2481 48.9355 90.2481 48.1883 89.002L39.2161 74.5477H17.2847C10.8048 74.5477 5.57153 69.3139 5.57153 62.8346V21.7131C5.57153 15.2333 10.8054 10 17.2847 10L17.2841 10ZM82.3313 14.2366H17.2841C13.2964 14.2366 9.80753 17.7254 9.80753 21.7131V62.8346C9.80753 66.8223 13.2964 70.3111 17.2841 70.3111H40.4613C41.209 70.3111 41.9568 70.5606 42.2057 71.3078L49.9317 83.7688L57.4082 71.3078C57.9066 70.8095 58.4049 70.3111 59.4021 70.3111H82.3307C86.5673 70.3111 90.0567 66.8223 90.0567 62.8346V21.7131C90.0567 17.7254 86.5678 14.2366 82.3307 14.2366H82.3313Z" fill="#9A9A9A"/>
<path d="M42.207 35.4215C42.207 36.6676 41.2104 37.6643 39.9643 37.6643C38.9677 37.6643 37.9705 36.6676 37.9705 35.4215C37.9705 28.9417 43.2043 23.459 49.933 23.459C56.4129 23.459 61.8956 28.9417 61.8956 35.4215C61.8956 41.1537 57.659 46.1381 51.9269 47.1347V49.8763C51.9269 51.1224 50.9302 52.119 49.933 52.119C48.6869 52.119 47.6903 51.1223 47.6903 49.8763V45.3903C47.6903 44.1442 48.687 43.1475 49.933 43.1475C54.1696 43.1475 57.659 39.6587 57.659 35.4215C57.659 31.185 54.1702 27.6956 49.933 27.6956C45.6965 27.6956 42.207 31.1844 42.207 35.4215Z" fill="#9A9A9A"/>
<path fill-rule="evenodd" clip-rule="evenodd" d="M49.9326 54.1133C51.1787 54.1133 52.4247 55.3594 52.4247 56.8548C52.4247 58.1009 51.1786 59.347 49.9326 59.347C48.437 59.347 47.4404 58.1009 47.4404 56.8548C47.4404 55.3593 48.4371 54.1133 49.9326 54.1133Z" fill="#9A9A9A"/>
</svg>
