<svg width="115" height="22" viewBox="0 0 115 22" fill="none" xmlns="http://www.w3.org/2000/svg">
<rect width="115" height="22" rx="4.67722" fill="white"/>
<path d="M10.4578 16.0515C9.73294 16.0515 9.07756 15.9274 8.49168 15.6792C7.91574 15.4309 7.45895 15.0734 7.12133 14.6067C6.7837 14.14 6.60993 13.5889 6.6 12.9533H8.83427C8.86406 13.3803 9.01301 13.718 9.28113 13.9662C9.55917 14.2145 9.93651 14.3386 10.4132 14.3386C10.8997 14.3386 11.282 14.2244 11.5601 13.996C11.8381 13.7577 11.9771 13.4498 11.9771 13.0725C11.9771 12.7647 11.8828 12.5114 11.6941 12.3128C11.5055 12.1142 11.2671 11.9603 10.9792 11.8511C10.7011 11.7319 10.3139 11.6028 9.81735 11.4638C9.1421 11.2652 8.59098 11.0716 8.16399 10.8829C7.74692 10.6843 7.38447 10.3914 7.07664 10.0041C6.77874 9.60689 6.62979 9.0806 6.62979 8.42521C6.62979 7.80954 6.7837 7.27332 7.09154 6.81653C7.39937 6.35975 7.83133 6.01219 8.38742 5.77387C8.9435 5.52562 9.57903 5.40149 10.294 5.40149C11.3664 5.40149 12.2353 5.66464 12.9006 6.19094C13.5759 6.7073 13.9483 7.4322 14.0178 8.36563H11.7239C11.7041 8.00815 11.5502 7.71521 11.2622 7.48682C10.9841 7.24849 10.6118 7.12933 10.145 7.12933C9.73791 7.12933 9.41022 7.2336 9.16196 7.44213C8.92364 7.65066 8.80448 7.95353 8.80448 8.35073C8.80448 8.62878 8.89385 8.86214 9.07259 9.05081C9.26126 9.22955 9.48966 9.3785 9.75777 9.49766C10.0358 9.60689 10.4231 9.73598 10.9196 9.88494C11.5948 10.0835 12.146 10.2821 12.573 10.4807C12.9999 10.6793 13.3674 10.9772 13.6752 11.3745C13.983 11.7717 14.1369 12.293 14.1369 12.9384C14.1369 13.4945 13.993 14.0109 13.705 14.4875C13.417 14.9642 12.995 15.3465 12.4389 15.6345C11.8828 15.9125 11.2225 16.0515 10.4578 16.0515Z" fill="#034694"/>
<path d="M32.3567 5.55045V15.9473H30.2714V9.18486L27.486 15.9473H25.9071L23.1068 9.18486V15.9473H21.0215V5.55045H23.3898L26.6965 13.281L30.0033 5.55045H32.3567Z" fill="#034694"/>
<path d="M46.8103 5.55045V7.2336H44.0398V15.9473H41.9545V7.2336H39.184V5.55045H46.8103Z" fill="#034694"/>
<path d="M67.3513 5.55045L64.4468 15.9473H61.9891L60.0378 8.54437L57.9972 15.9473L55.5543 15.9622L52.7541 5.55045H54.9883L56.8204 13.6236L58.9356 5.55045H61.2592L63.2551 13.5789L65.1021 5.55045H67.3513Z" fill="#034694"/>
<path d="M80.9099 5.55045V7.2336H78.1394V15.9473H76.0541V7.2336H73.2836V5.55045H80.9099Z" fill="#034694"/>
<path d="M94.3388 5.55045V7.2336H90.0043V9.89983H93.3259V11.5532H90.0043V15.9473H87.919V5.55045H94.3388Z" fill="#034694"/>
<path d="M104.654 16.0515C103.929 16.0515 103.274 15.9274 102.688 15.6792C102.112 15.4309 101.655 15.0734 101.318 14.6067C100.98 14.14 100.806 13.5889 100.796 12.9533H103.031C103.06 13.3803 103.209 13.718 103.477 13.9662C103.755 14.2145 104.133 14.3386 104.609 14.3386C105.096 14.3386 105.478 14.2244 105.756 13.996C106.034 13.7577 106.173 13.4498 106.173 13.0725C106.173 12.7647 106.079 12.5114 105.89 12.3128C105.702 12.1142 105.463 11.9603 105.175 11.8511C104.897 11.7319 104.51 11.6028 104.014 11.4638C103.338 11.2652 102.787 11.0716 102.36 10.8829C101.943 10.6843 101.581 10.3914 101.273 10.0041C100.975 9.60689 100.826 9.0806 100.826 8.42521C100.826 7.80954 100.98 7.27332 101.288 6.81653C101.596 6.35975 102.028 6.01219 102.584 5.77387C103.14 5.52562 103.775 5.40149 104.49 5.40149C105.563 5.40149 106.432 5.66464 107.097 6.19094C107.772 6.7073 108.145 7.4322 108.214 8.36563H105.92C105.9 8.00815 105.746 7.71521 105.458 7.48682C105.18 7.24849 104.808 7.12933 104.341 7.12933C103.934 7.12933 103.607 7.2336 103.358 7.44213C103.12 7.65066 103.001 7.95353 103.001 8.35073C103.001 8.62878 103.09 8.86214 103.269 9.05081C103.458 9.22955 103.686 9.3785 103.954 9.49766C104.232 9.60689 104.619 9.73598 105.116 9.88494C105.791 10.0835 106.342 10.2821 106.769 10.4807C107.196 10.6793 107.564 10.9772 107.871 11.3745C108.179 11.7717 108.333 12.293 108.333 12.9384C108.333 13.4945 108.189 14.0109 107.901 14.4875C107.613 14.9642 107.191 15.3465 106.635 15.6345C106.079 15.9125 105.419 16.0515 104.654 16.0515Z" fill="#034694"/>
</svg>
