<svg width="17" height="18" viewBox="0 0 17 18" fill="none" xmlns="http://www.w3.org/2000/svg">
<path d="M6.51757 14.2759C7.54609 14.2759 8.37975 15.1095 8.37975 16.1381C8.37975 17.1663 7.54609 18 6.51757 18C5.48928 18 4.65561 17.1663 4.65561 16.1381C4.65561 15.1095 5.48928 14.2759 6.51757 14.2759ZM14.8969 14.2759C15.9252 14.2759 16.7588 15.1095 16.7588 16.1381C16.7588 17.1663 15.9252 18 14.8969 18C13.8684 18 13.0347 17.1663 13.0347 16.1381C13.0347 15.1095 13.8684 14.2759 14.8969 14.2759ZM1.35975 8.03338e-05C2.29949 8.03338e-05 3.11109 0.6482 3.32368 1.55679L3.3397 1.63082L3.63822 3.1622L3.63671 3.16263L5.26613 11.5419L5.27306 11.5404L5.28388 11.5949C5.40749 12.229 5.94846 12.6925 6.58794 12.7226L6.65461 12.7241H15.9827C16.2399 12.7241 16.4483 12.9326 16.4483 13.1898C16.4483 13.4316 16.2637 13.6305 16.0275 13.653L15.9827 13.6552H6.65461C5.56679 13.6552 4.62795 12.9027 4.3861 11.8491L4.37008 11.7733L2.42588 1.80909C2.33019 1.31854 1.91325 0.95941 1.41925 0.932588L1.35972 0.930856H0.465428C0.208468 0.930856 0 0.722604 0 0.465429C0 0.223406 0.184655 0.024681 0.420617 0.00194831L0.465427 0L1.35975 8.03338e-05ZM4.31772 3.41375H15.5494C16.1493 3.41375 16.6358 3.90017 16.6358 4.50006C16.6358 4.54336 16.6332 4.58687 16.628 4.62995L16.6182 4.69425L15.8342 9.0063C15.611 10.2339 14.5598 11.1334 13.32 11.1713L13.2388 11.1724H5.82654L4.31772 3.41375Z" fill="#FAFAFA"/>
</svg>
