<svg width="33" height="32" viewBox="0 0 33 32" fill="none" xmlns="http://www.w3.org/2000/svg">
<path fill-rule="evenodd" clip-rule="evenodd" d="M31.5853 29.0659C32.2753 29.0659 32.8353 29.6259 32.8353 30.3159C32.8353 31.0059 32.2753 31.5659 31.5853 31.5659H19.4969C18.8069 31.5659 18.2469 31.0059 18.2469 30.3159C18.2469 29.6259 18.8069 29.0659 19.4969 29.0659H31.5853ZM23.8616 1.0894C23.9449 1.1544 26.7333 3.32107 26.7333 3.32107C27.7466 3.9244 28.5383 5.00274 28.8383 6.2794C29.1366 7.54274 28.9199 8.84607 28.2249 9.94774C28.2203 9.95509 28.2157 9.96234 28.1996 9.98394L28.187 10.0006C28.0742 10.1493 27.5838 10.7694 25.1087 13.8704C25.0858 13.911 25.0597 13.9491 25.0313 13.9861C24.9895 14.0406 24.9441 14.0907 24.8956 14.1363C24.7268 14.3489 24.5485 14.5722 24.361 14.8071L23.9811 15.2828C23.1973 16.2645 22.2676 17.4285 21.1646 18.8091L20.5985 19.5176C18.4691 22.1829 15.7419 25.5954 12.2483 29.9661C11.4833 30.9194 10.3366 31.4744 9.10493 31.4894L3.03993 31.5661H3.02326C2.44493 31.5661 1.9416 31.1694 1.8066 30.6044L0.441597 24.8194C0.15993 23.6211 0.43993 22.3844 1.20826 21.4244L16.9083 1.78774C16.9149 1.78107 16.9199 1.77274 16.9266 1.76607C18.6483 -0.292262 21.7616 -0.595596 23.8616 1.0894ZM15.1578 7.97833L3.15993 22.9861C2.87493 23.3427 2.76993 23.8027 2.87493 24.2444L4.00993 29.0527L9.07493 28.9894C9.5566 28.9844 10.0016 28.7694 10.2966 28.4027C11.8157 26.502 13.725 24.1131 15.688 21.6567L16.3825 20.7876L17.0782 19.917C18.9192 17.6131 20.7379 15.3368 22.2597 13.4314L15.1578 7.97833ZM18.8516 3.36107L16.7195 6.025L23.8208 11.4765C25.1876 9.7645 26.0868 8.6369 26.1699 8.5294C26.4433 8.08607 26.5499 7.4594 26.4066 6.85607C26.2599 6.23774 25.8749 5.71274 25.3199 5.37774C25.2016 5.29607 22.3933 3.11607 22.3066 3.04774C21.2499 2.20107 19.7083 2.34774 18.8516 3.36107Z" fill="#444444"/>
</svg>
