<svg width="21" height="27" viewBox="0 0 21 27" fill="none" xmlns="http://www.w3.org/2000/svg">
<path fill-rule="evenodd" clip-rule="evenodd" d="M20.822 21.2865C20.822 25.6192 14.8803 26.12 10.4123 26.12L10.0926 26.1197C7.24589 26.1128 0 25.9331 0 21.2602C0 17.016 5.70284 16.4488 10.1369 16.4274L10.732 16.427C13.5785 16.4339 20.822 16.6137 20.822 21.2865ZM10.4123 18.3985C4.81113 18.3985 1.97178 19.3607 1.97178 21.2602C1.97178 23.1768 4.81113 24.1482 10.4123 24.1482C16.0121 24.1482 18.8502 23.186 18.8502 21.2865C18.8502 19.37 16.0121 18.3985 10.4123 18.3985ZM10.4123 0C14.2612 0 17.3911 3.13118 17.3911 6.98009C17.3911 10.829 14.2612 13.9589 10.4123 13.9589H10.3702C6.52921 13.947 3.41775 10.8145 3.43085 6.97615C3.43085 3.13118 6.56207 0 10.4123 0ZM10.4123 1.87713C7.59791 1.87713 5.308 4.16571 5.308 6.98009C5.29882 9.78527 7.57162 12.0725 10.3742 12.0831L10.4123 13.0216V12.0831C13.2254 12.0831 15.5139 9.79316 15.5139 6.98009C15.5139 4.16571 13.2254 1.87713 10.4123 1.87713Z" fill="#444444"/>
</svg>
