<svg width="25" height="27" viewBox="0 0 25 27" fill="none" xmlns="http://www.w3.org/2000/svg">
<path d="M4.56608 5.76022C4.56608 5.57414 4.64 5.39569 4.77158 5.26411C4.90316 5.13253 5.08161 5.05861 5.26769 5.05861H15.2193C15.4054 5.05861 15.5839 5.13253 15.7154 5.26411C15.847 5.39569 15.9209 5.57414 15.9209 5.76022C15.9209 5.9463 15.847 6.12476 15.7154 6.25634C15.5839 6.38791 15.4054 6.46183 15.2193 6.46183H5.26769C5.08161 6.46183 4.90316 6.38791 4.77158 6.25634C4.64 6.12476 4.56608 5.9463 4.56608 5.76022ZM5.26769 10.4428H15.2193C15.4054 10.4428 15.5839 10.3689 15.7154 10.2373C15.847 10.1057 15.9209 9.92724 15.9209 9.74116C15.9209 9.55508 15.847 9.37663 15.7154 9.24505C15.5839 9.11347 15.4054 9.03955 15.2193 9.03955H5.26769C5.08161 9.03955 4.90316 9.11347 4.77158 9.24505C4.64 9.37663 4.56608 9.55508 4.56608 9.74116C4.56608 9.92724 4.64 10.1057 4.77158 10.2373C4.90316 10.3689 5.08161 10.4428 5.26769 10.4428ZM5.26769 14.4223H15.2193C15.4054 14.4223 15.5839 14.3484 15.7154 14.2168C15.847 14.0852 15.9209 13.9068 15.9209 13.7207C15.9209 13.5346 15.847 13.3562 15.7154 13.2246C15.5839 13.093 15.4054 13.0191 15.2193 13.0191H5.26769C5.08161 13.0191 4.90316 13.093 4.77158 13.2246C4.64 13.3562 4.56608 13.5346 4.56608 13.7207C4.56608 13.9068 4.64 14.0852 4.77158 14.2168C4.90316 14.3484 5.08161 14.4223 5.26769 14.4223ZM12.9377 17.007H5.26208C5.076 17.007 4.89754 17.081 4.76597 17.2125C4.63439 17.3441 4.56047 17.5226 4.56047 17.7087C4.56047 17.8947 4.63439 18.0732 4.76597 18.2048C4.89754 18.3363 5.076 18.4103 5.26208 18.4103H12.9377C13.1238 18.4103 13.3022 18.3363 13.4338 18.2048C13.5654 18.0732 13.6393 17.8947 13.6393 17.7087C13.6393 17.5226 13.5654 17.3441 13.4338 17.2125C13.3022 17.081 13.1238 17.007 12.9377 17.007ZM24.642 21.4763C24.6428 22.7071 24.2153 23.8998 23.4327 24.8498C22.6502 25.7998 21.5614 26.4478 20.3532 26.6826C19.145 26.9175 17.8928 26.7245 16.8114 26.1368C15.7299 25.5491 14.8867 24.6034 14.4265 23.4619H3.50805C2.57766 23.4619 1.68537 23.0923 1.02748 22.4344C0.369597 21.7765 0 20.8842 0 19.9538V3.50805C0 2.57766 0.369597 1.68537 1.02748 1.02748C1.68537 0.369597 2.57766 0 3.50805 0H16.979C17.9094 0 18.8017 0.369597 19.4595 1.02748C20.1174 1.68537 20.487 2.57766 20.487 3.50805V16.3054C21.6637 16.5676 22.7162 17.2225 23.4713 18.1622C24.2264 19.102 24.6393 20.2707 24.642 21.4763ZM14.0911 22.0586C13.9755 21.3359 14.0179 20.5968 14.2156 19.8921C14.4132 19.1874 14.7613 18.5339 15.2359 17.9767C15.7105 17.4196 16.3003 16.972 16.9646 16.6648C17.6289 16.3576 18.3519 16.1981 19.0838 16.1974V3.50805C19.0868 3.23081 19.0344 2.95575 18.9297 2.69903C18.825 2.4423 18.6701 2.20907 18.474 2.01301C18.278 1.81696 18.0447 1.66203 17.788 1.55732C17.5313 1.45261 17.2562 1.40022 16.979 1.40322H3.50805C3.23081 1.40022 2.95575 1.45261 2.69903 1.55732C2.4423 1.66203 2.20907 1.81696 2.01301 2.01301C1.81696 2.20907 1.66203 2.4423 1.55732 2.69903C1.45261 2.95575 1.40022 3.23081 1.40322 3.50805V19.9538C1.40022 20.2311 1.45261 20.5061 1.55732 20.7628C1.66203 21.0196 1.81696 21.2528 2.01301 21.4488C2.20907 21.6449 2.4423 21.7998 2.69903 21.9045C2.95575 22.0093 3.23081 22.0616 3.50805 22.0586H14.0911ZM23.2387 21.4763C23.2387 20.7045 23.0099 19.95 22.5811 19.3083C22.1523 18.6665 21.5428 18.1663 20.8298 17.871C20.1167 17.5756 19.3321 17.4984 18.5751 17.6489C17.8181 17.7995 17.1228 18.1712 16.577 18.7169C16.0312 19.2627 15.6596 19.958 15.509 20.715C15.3584 21.472 15.4357 22.2566 15.7311 22.9697C16.0264 23.6827 16.5266 24.2922 17.1684 24.721C17.8101 25.1498 18.5646 25.3787 19.3364 25.3787C20.3711 25.3779 21.3633 24.9665 22.0949 24.2349C22.8266 23.5032 23.238 22.511 23.2387 21.4763ZM19.3364 18.6699C19.1503 18.6699 18.9718 18.7438 18.8403 18.8754C18.7087 19.0069 18.6348 19.1854 18.6348 19.3715V20.9922L17.7928 21.3205C17.707 21.354 17.6285 21.404 17.562 21.4678C17.4955 21.5315 17.4421 21.6078 17.4051 21.6922C17.368 21.7765 17.3479 21.8674 17.3459 21.9595C17.344 22.0516 17.3602 22.1433 17.3936 22.2291C17.4271 22.315 17.4771 22.3934 17.5409 22.46C17.6046 22.5265 17.6809 22.5798 17.7652 22.6169C17.8496 22.654 17.9405 22.6741 18.0326 22.676C18.1247 22.678 18.2163 22.6618 18.3022 22.6283L19.5904 22.1246C19.7219 22.0732 19.8349 21.9832 19.9145 21.8666C19.9941 21.7499 20.0367 21.6119 20.0366 21.4707V19.3659C20.0347 19.1812 19.9602 19.0048 19.8291 18.8748C19.6981 18.7447 19.521 18.6716 19.3364 18.6713V18.6699Z" fill="#444444"/>
</svg>
