<svg width="30" height="28" viewBox="0 0 30 28" fill="none" xmlns="http://www.w3.org/2000/svg">
<path fill-rule="evenodd" clip-rule="evenodd" d="M26.7993 3.08964C25.3888 1.6936 23.3564 0.799805 21.2195 0.799805C19.9608 0.799805 18.7779 1.0868 17.6403 1.66302C16.5035 2.23979 15.5796 3.02791 14.8516 4.02903C14.1235 3.02789 13.1996 2.23982 12.0611 1.66302C10.9237 1.0868 9.74237 0.799805 8.48426 0.799805C6.34563 0.799805 4.31507 1.6936 2.90446 3.08964C1.49396 4.48402 0.600098 6.51472 0.600098 8.65321C0.600098 10.1232 0.912677 11.551 1.29867 12.625C1.48944 13.1573 1.77644 13.7352 2.16188 14.3231C2.55066 14.9183 2.90439 15.4138 3.20753 15.8094C3.51065 16.202 3.94393 16.6965 4.52626 17.2632C5.11026 17.8333 5.58747 18.2805 5.9362 18.5981C6.28549 18.9168 6.8161 19.3873 7.51298 19.9925C8.31667 20.6905 8.88956 21.21 9.25606 21.5398C9.61646 21.8624 10.136 22.3585 10.8179 23.0103C12.1983 24.3291 13.2107 25.5438 14.1689 26.9365C14.348 27.1973 14.5783 27.3158 14.8514 27.3158C15.1389 27.3158 15.3886 27.1984 15.5639 26.9365C16.1762 26.016 16.8854 25.0749 17.7163 24.1477C18.5534 23.2111 19.2513 22.4831 19.8086 21.963C20.3726 21.4374 21.1841 20.7032 22.2347 19.7648C22.8838 19.1853 23.4016 18.7492 23.7509 18.4322C24.0996 18.1129 24.5546 17.6741 25.1152 17.1118C25.6753 16.5511 26.1197 16.0695 26.4334 15.6713C26.756 15.2658 27.0969 14.7747 27.4807 14.1868C28.2644 12.9848 28.6064 12.0343 28.8895 10.7C29.0313 10.0332 29.1025 9.34959 29.1025 8.65324C29.1025 6.51461 28.2071 4.48405 26.7987 3.08968L26.7993 3.08964ZM27.2837 10.1995C26.9917 11.8814 26.1124 13.5316 24.6452 15.1562C24.0055 15.8654 22.8303 16.995 21.1133 18.5224C20.2228 19.3149 19.5059 19.9623 18.9452 20.4784C18.3985 20.9796 17.7277 21.6565 16.9285 22.5097C16.1359 23.3546 15.4422 24.1933 14.8516 25.0114C14.2298 24.2072 13.514 23.3924 12.6992 22.5553C11.8766 21.7104 11.243 21.0691 10.7741 20.6448C10.3036 20.2198 9.58778 19.588 8.60561 18.7197L7.55885 17.7942L6.60498 16.9299C6.19118 16.5556 5.87193 16.2524 5.66501 16.0205C5.46311 15.7975 5.19447 15.5055 4.86132 15.1406C4.52817 14.7774 4.27065 14.4587 4.10323 14.2012C3.75617 13.6706 3.1655 12.878 2.95024 12.2162L2.60317 11.1389C2.34843 10.3541 2.26834 9.54699 2.26834 8.65324C2.26834 6.95515 2.87459 5.49969 4.0876 4.30209C5.31623 3.08959 6.77227 2.48283 8.48431 2.48283C9.68291 2.48283 10.7881 2.80042 11.8053 3.45283C12.8209 4.10468 13.6041 4.96396 14.1097 6.0441C14.2565 6.35834 14.5046 6.51464 14.8516 6.51464C15.2009 6.51464 15.4707 6.36948 15.6258 6.0441C16.1376 4.97343 16.8684 4.10467 17.8839 3.45283C18.8995 2.80042 20.0226 2.48283 21.2195 2.48283C22.9325 2.48283 24.3892 3.08963 25.6016 4.28656C26.8147 5.48348 27.4209 6.93963 27.4209 8.65324C27.4198 9.18385 27.3708 9.69832 27.2835 10.1994L27.2837 10.1995Z" fill="#444444" stroke="#444444" stroke-width="0.4"/>
</svg>
