<svg width="18" height="23" viewBox="0 0 18 23" fill="none" xmlns="http://www.w3.org/2000/svg">
<path d="M16.7681 13.1093C16.7728 12.5376 16.5524 11.9998 16.1474 11.595C16.0401 11.4876 15.9234 11.3933 15.7991 11.3126C16.1936 10.9277 16.4387 10.3906 16.4387 9.79736C16.4387 9.23213 16.2182 8.70039 15.818 8.3001C15.4176 7.89972 14.8858 7.67925 14.3206 7.67925H10.5494C10.9994 6.31254 11.0512 4.34349 11.0495 3.55596C11.0482 2.91551 10.7936 2.3175 10.3324 1.87214C9.86985 1.42554 9.26163 1.19011 8.6182 1.21239C7.52035 1.2486 6.57943 2.06042 6.38096 3.14258C6.21943 4.02293 5.98767 5.08486 5.6921 5.92765C5.12515 7.54418 3.72172 8.78375 2.02954 9.1626L1.3679 9.31069C1.15286 9.35882 1 9.54967 1 9.77003V18.6934C1 18.8821 1.1127 19.0526 1.28629 19.1265L4.58948 20.5329C6.56288 21.3737 8.65168 21.8 10.7979 21.8H12.4218C13.5897 21.8 14.5399 20.8498 14.5399 19.6819C14.5399 19.2176 14.3912 18.7758 14.116 18.4103C14.9898 18.1437 15.6307 17.3452 15.6385 16.4041C15.6422 15.9364 15.4954 15.4913 15.22 15.1231C16.1069 14.8645 16.7602 14.0596 16.7681 13.1093ZM14.6076 14.2689H13.5204C13.2604 14.2689 13.0497 14.4797 13.0497 14.7396C13.0497 14.9995 13.2604 15.2103 13.5204 15.2103C13.8341 15.2103 14.1295 15.3328 14.3521 15.5554C14.5771 15.7805 14.6997 16.0792 14.6971 16.3963C14.6918 17.0401 14.1449 17.5638 13.478 17.5638H12.4218C12.1618 17.5638 11.9511 17.7745 11.9511 18.0344C11.9511 18.2944 12.1618 18.5051 12.4218 18.5051C12.7362 18.5051 13.0319 18.6277 13.2539 18.8497C13.4762 19.0727 13.5985 19.3682 13.5985 19.6818C13.5985 20.3307 13.0706 20.8586 12.4218 20.8586H10.7979C8.77918 20.8586 6.81451 20.4577 4.95841 19.6668L1.94139 18.3822V10.147L2.23522 10.0813C4.27224 9.62521 5.89667 8.18892 6.58037 6.23924C6.8921 5.35045 7.13657 4.24079 7.30691 3.31245C7.42616 2.66251 7.9907 2.17498 8.64929 2.15325C9.0344 2.14053 9.40075 2.28122 9.67847 2.54939C9.95481 2.81622 10.1074 3.1744 10.1082 3.55792C10.1119 5.34834 9.85857 7.1024 9.43045 7.93467C9.35544 8.08057 9.36178 8.25504 9.44719 8.3951C9.53268 8.53521 9.68493 8.62064 9.84904 8.62064H14.3206C14.6344 8.62064 14.9297 8.74318 15.1523 8.96576C15.3748 9.18829 15.4973 9.48361 15.4973 9.79739C15.4973 10.4463 14.9695 10.9741 14.3206 10.9741C14.0606 10.9741 13.8499 11.1849 13.8499 11.4448C13.8499 11.7047 14.0606 11.9155 14.3206 11.9155H14.6501C14.9639 11.9155 15.2592 12.038 15.4818 12.2606C15.7069 12.4857 15.8294 12.7843 15.8268 13.1015C15.8214 13.7452 15.2745 14.2689 14.6076 14.2689Z" fill="#444444" stroke="#444444" stroke-width="0.5"/>
</svg>
