<svg width="18" height="16" viewBox="0 0 18 16" fill="none" xmlns="http://www.w3.org/2000/svg">
<path d="M1 8.2254C1 7.8457 1.28215 7.53191 1.64823 7.48225L1.75 7.4754L14.934 7.476L10.171 2.73247C9.87749 2.44021 9.87647 1.96534 10.1687 1.67181C10.4344 1.40497 10.851 1.37987 11.1451 1.59709L11.2294 1.66953L17.2794 7.69353C17.3181 7.73205 17.3517 7.77375 17.3802 7.81778C17.3883 7.83103 17.3965 7.84459 17.4042 7.85842C17.4114 7.87028 17.4178 7.88259 17.4239 7.89503C17.4324 7.91314 17.4407 7.93185 17.4482 7.95094C17.4543 7.96566 17.4594 7.97998 17.464 7.99441C17.4696 8.0123 17.4749 8.03137 17.4796 8.05073C17.483 8.06425 17.4857 8.07725 17.4881 8.09031C17.4914 8.10975 17.4943 8.12985 17.4963 8.1502C17.498 8.16572 17.4991 8.18109 17.4997 8.19648C17.4998 8.20582 17.5 8.21559 17.5 8.2254L17.4996 8.25445C17.4991 8.26917 17.498 8.28388 17.4966 8.29855L17.5 8.2254C17.5 8.27273 17.4956 8.31903 17.4872 8.36393C17.4853 8.37465 17.483 8.38566 17.4804 8.39662C17.4751 8.4192 17.4689 8.44094 17.4618 8.46226C17.4584 8.47285 17.4543 8.48416 17.45 8.49539C17.4412 8.51796 17.4317 8.53947 17.4212 8.56043C17.4163 8.57028 17.4109 8.5806 17.4052 8.59081C17.3958 8.60747 17.3861 8.6233 17.3759 8.63873C17.3687 8.64965 17.3607 8.66101 17.3524 8.6722L17.3459 8.68085C17.3257 8.70724 17.3038 8.73226 17.2803 8.75573L17.2794 8.75643L11.2294 14.7814C10.9359 15.0737 10.4611 15.0727 10.1688 14.7792C9.90306 14.5124 9.87971 14.0957 10.0982 13.8025L10.171 13.7186L14.932 8.976L1.75 8.9754C1.33579 8.9754 1 8.63961 1 8.2254Z" fill="#EF5612" stroke="#EF5612"/>
</svg>
