<svg width="31" height="37" viewBox="0 0 31 37" fill="none" xmlns="http://www.w3.org/2000/svg">
<path fill-rule="evenodd" clip-rule="evenodd" d="M12.207 32.5098C13.0704 33.4715 14.1787 33.9998 15.3287 33.9998H15.3304C16.4854 33.9998 17.5987 33.4715 18.4637 32.5082C18.927 31.9965 19.717 31.9548 20.2287 32.4165C20.742 32.8782 20.7837 33.6698 20.322 34.1815C18.9754 35.6765 17.2037 36.4998 15.3304 36.4998H15.327C13.4587 36.4982 11.6904 35.6748 10.3487 34.1798C9.88704 33.6682 9.92871 32.8765 10.442 32.4165C10.9554 31.9532 11.7454 31.9948 12.207 32.5098ZM15.4117 0.666504C22.82 0.666504 27.7967 6.4365 27.7967 11.8248C27.7967 14.5965 28.5017 15.7715 29.25 17.0182C29.99 18.2482 30.8284 19.6448 30.8284 22.2848C30.2467 29.0298 23.205 29.5798 15.4117 29.5798C7.61838 29.5798 0.575044 29.0298 2.20605e-05 22.3915C-0.00495568 19.6448 0.833378 18.2482 1.57338 17.0182L1.83462 16.5784C2.47784 15.4729 3.02671 14.2704 3.02671 11.8248C3.02671 6.4365 8.00338 0.666504 15.4117 0.666504ZM15.4117 3.1665C9.58671 3.1665 5.52671 7.72984 5.52671 11.8248C5.52671 15.2898 4.56504 16.8915 3.71504 18.3048C3.03338 19.4398 2.49504 20.3365 2.49504 22.2848C2.77338 25.4282 4.84838 27.0798 15.4117 27.0798C25.9167 27.0798 28.0567 25.3548 28.3334 22.1765C28.3284 20.3365 27.79 19.4398 27.1084 18.3048C26.2584 16.8915 25.2967 15.2898 25.2967 11.8248C25.2967 7.72984 21.2367 3.1665 15.4117 3.1665Z" fill="#444444"/>
</svg>
