<svg width="100" height="100" viewBox="0 0 100 100" fill="none" xmlns="http://www.w3.org/2000/svg">
<g clip-path="url(#clip0_3574_4276)">
<path d="M49.9989 75.695C51.5823 75.695 53.2169 75.0514 54.3405 73.9174C55.5256 72.712 56.1385 71.1797 56.1896 69.5042C56.21 68.9219 56.0976 68.3192 55.9342 67.7471C55.6583 66.8073 55.1169 65.8573 54.4222 65.1625C53.8297 64.57 53.1759 64.1614 52.4199 63.8447C51.6333 63.5076 50.8978 63.3135 50.009 63.3135C49.4676 63.3135 48.8342 63.4156 48.3132 63.5484C47.3836 63.7936 46.3621 64.3964 45.6776 65.0808C44.5437 66.2147 43.7672 67.8697 43.8286 69.494C43.8797 71.0979 44.4415 72.6199 45.5653 73.7846C46.7605 75.0616 48.293 75.603 49.9988 75.6951C51.2656 75.7666 52.7366 75.0719 53.6151 74.2036C54.5039 73.3148 55.1679 71.8642 55.1066 70.5873C55.0453 69.2694 54.6163 67.9005 53.6151 66.971C52.5833 66.0311 51.4086 65.551 49.9988 65.4795C49.958 65.4795 49.9171 65.4795 49.8762 65.4692C50.3257 65.5305 50.7854 65.5918 51.2349 65.6531C51.1123 65.6327 51.0204 65.6123 50.908 65.5612C51.3167 65.7349 51.7253 65.9085 52.1237 66.072C52.0522 66.0413 51.9909 66.0005 51.9296 65.9596C52.2769 66.2252 52.614 66.4908 52.9614 66.7564C52.8694 66.6849 52.7979 66.6134 52.7264 66.5215C52.992 66.8688 53.2576 67.2059 53.5232 67.5533C53.4824 67.492 53.4415 67.4307 53.4109 67.3591C53.5845 67.7678 53.7582 68.1764 53.9217 68.5748C53.8808 68.4624 53.8501 68.3603 53.8297 68.2479C53.891 68.6974 53.9523 69.1571 54.0136 69.6066C54.0034 69.4534 54.0034 69.5249 54.0136 69.3716C53.9523 69.8211 53.891 70.2808 53.8297 70.7303C53.8501 70.6077 53.8706 70.5158 53.9217 70.4034C53.748 70.8121 53.5743 71.2207 53.4109 71.6191C53.4415 71.5476 53.4824 71.4863 53.5232 71.425C53.2576 71.7723 52.992 72.1094 52.7264 72.4568C52.7979 72.3648 52.8694 72.2933 52.9614 72.2218C52.614 72.4874 52.2769 72.753 51.9296 73.0186C51.9909 72.9778 52.0522 72.9369 52.1237 72.9063C51.7151 73.0799 51.3064 73.2536 50.908 73.417C51.0204 73.3762 51.1225 73.3455 51.2349 73.3251C50.7854 73.3864 50.3257 73.4477 49.8762 73.509C50.0295 73.4988 49.958 73.4988 50.1112 73.509C49.6617 73.4477 49.202 73.3864 48.7525 73.3251C48.8751 73.3455 48.967 73.366 49.0794 73.417C48.6708 73.2434 48.2622 73.0697 47.8638 72.9063C47.9353 72.9369 47.9966 72.9778 48.0579 73.0186C47.7105 72.753 47.3734 72.4874 47.0261 72.2218C47.118 72.2933 47.1895 72.3648 47.261 72.4568C46.9954 72.1094 46.7298 71.7723 46.4642 71.425C46.5051 71.4863 46.5459 71.5476 46.5766 71.6191C46.4029 71.2105 46.2292 70.8018 46.0658 70.4034C46.1067 70.5158 46.1373 70.6179 46.1577 70.7303C46.0964 70.2808 46.0351 69.8211 45.9739 69.3716C45.9841 69.5249 45.9841 69.4534 45.9739 69.6066C46.0351 69.1571 46.0964 68.6974 46.1577 68.2479C46.1373 68.3705 46.1169 68.4624 46.0658 68.5748C46.2395 68.1662 46.4131 67.7576 46.5766 67.3591C46.5459 67.4307 46.5051 67.492 46.4642 67.5533C46.7298 67.2059 46.9954 66.8688 47.261 66.5215C47.1895 66.6134 47.118 66.6849 47.0261 66.7564C47.3734 66.4908 47.7105 66.2252 48.0579 65.9596C47.9966 66.0005 47.9353 66.0413 47.8638 66.072C48.2724 65.8983 48.681 65.7246 49.0794 65.5612C48.967 65.6021 48.8649 65.6327 48.7525 65.6531C49.202 65.5918 49.6617 65.5305 50.1112 65.4692C50.0703 65.4692 50.0295 65.4795 49.9886 65.4795C48.681 65.4795 47.3018 66.0515 46.3723 66.971C45.4835 67.8597 44.8195 69.3103 44.8808 70.5873C44.9421 71.9051 45.3712 73.274 46.3723 74.2036C47.3837 75.1128 48.6197 75.6951 49.9989 75.6951L49.9989 75.695Z" fill="#F90808"/>
<path d="M44.8916 27.5072V36.5686V51.0239V54.3542C44.8916 55.6618 45.4637 57.041 46.3831 57.9705C47.2719 58.8593 48.7224 59.5233 49.9994 59.462C51.3172 59.4007 52.6862 58.9717 53.6157 57.9705C54.5351 56.9694 55.1072 55.7435 55.1072 54.3542V45.2928V30.8375V27.5072C55.1072 26.1996 54.5351 24.8205 53.6157 23.8909C52.7269 23.0022 51.2764 22.3381 49.9994 22.3994C48.6816 22.4607 47.3126 22.8898 46.3831 23.8909C45.4739 24.8921 44.8916 26.118 44.8916 27.5072Z" fill="#F90808"/>
<path d="M89.7896 50.0127C89.7896 52.056 89.6466 54.0888 89.381 56.1115C89.4422 55.662 89.5035 55.2023 89.5648 54.7528C89.0336 58.6246 88.0018 62.4247 86.4899 66.0309C86.6636 65.6223 86.8372 65.2137 87.0007 64.8153C85.499 68.3806 83.5376 71.7415 81.1777 74.8062C81.4433 74.4588 81.7089 74.1217 81.9745 73.7744C79.5943 76.8493 76.836 79.6177 73.761 81.9879C74.1084 81.7223 74.4455 81.4567 74.7928 81.1911C71.7281 83.5509 68.3672 85.5021 64.8019 87.0141C65.2105 86.8404 65.6191 86.6667 66.0176 86.5033C62.4113 88.0152 58.6112 89.047 54.7394 89.5782C55.1889 89.5169 55.6486 89.4556 56.0981 89.3943C52.0527 89.9358 47.9358 89.9358 43.8902 89.3943C44.3397 89.4556 44.7994 89.5169 45.2489 89.5782C41.377 89.047 37.5769 88.0152 33.9707 86.5033C34.3793 86.6769 34.788 86.8506 35.1864 87.0141C31.6211 85.5123 28.2602 83.5509 25.1955 81.1911C25.5428 81.4567 25.8799 81.7223 26.2273 81.9879C23.1523 79.6077 20.3839 76.8493 18.0138 73.7744C18.2794 74.1217 18.545 74.4589 18.8106 74.8062C16.4507 71.7415 14.4996 68.3806 12.9876 64.8153C13.1613 65.2239 13.3349 65.6325 13.4984 66.0309C11.9865 62.4247 10.9547 58.6246 10.4235 54.7528C10.4847 55.2023 10.546 55.662 10.6073 56.1115C10.0659 52.0661 10.0659 47.9491 10.6073 43.9036C10.546 44.3531 10.4847 44.8128 10.4235 45.2623C10.9547 41.3904 11.9865 37.5903 13.4984 33.9841C13.3247 34.3927 13.1511 34.8014 12.9876 35.1998C14.4893 31.6345 16.4507 28.2735 18.8106 25.2089C18.545 25.5562 18.2794 25.8933 18.0138 26.2406C20.394 23.1657 23.1523 20.3973 26.2273 18.0271C25.8799 18.2928 25.5428 18.5584 25.1955 18.824C28.2602 16.4641 31.6211 14.5129 35.1864 13.001C34.7778 13.1746 34.3691 13.3483 33.9707 13.5118C37.5769 11.9998 41.377 10.9681 45.2489 10.4368C44.7994 10.4981 44.3397 10.5594 43.8902 10.6207C47.9356 10.0793 52.0525 10.0793 56.0981 10.6207C55.6486 10.5594 55.1889 10.4981 54.7394 10.4368C58.6112 10.968 62.4113 11.9998 66.0176 13.5118C65.6089 13.3381 65.2003 13.1644 64.8019 13.001C68.3672 14.5027 71.7281 16.4641 74.7928 18.824C74.4455 18.5583 74.1083 18.2927 73.761 18.0271C76.836 20.4074 79.6044 23.1657 81.9745 26.2406C81.7089 25.8933 81.4433 25.5562 81.1777 25.2089C83.5376 28.2735 85.4887 31.6345 87.0007 35.1998C86.827 34.7911 86.6533 34.3825 86.4899 33.9841C88.0018 37.5903 89.0336 41.3904 89.5648 45.2623C89.5035 44.8128 89.4422 44.3531 89.381 43.9036C89.6466 45.9365 89.7794 47.9695 89.7896 50.0126C89.7896 51.3202 90.3617 52.6993 91.2811 53.6289C92.1698 54.5176 93.6204 55.1816 94.8974 55.1204C96.2152 55.0591 97.5841 54.63 98.5137 53.6289C99.4331 52.6277 100.015 51.4018 100.005 50.0126C99.9949 44.8843 99.2288 39.6742 97.6453 34.7912C96.1027 30.0511 93.8962 25.4744 91.0051 21.4085C89.4625 19.2427 87.7769 17.1485 85.9278 15.228C84.0787 13.3176 82.0662 11.6321 79.9617 10.0179C75.9776 6.96331 71.5338 4.65463 66.8346 2.9282C62.0332 1.16089 56.8947 0.241432 51.797 0.0370709C46.6278 -0.167253 41.3361 0.476354 36.3508 1.88611C31.58 3.2448 26.9216 5.32887 22.774 8.05637C18.6468 10.7738 14.8568 14.0531 11.7103 17.8635C10.0247 19.9067 8.44125 22.0519 7.08263 24.3197C5.6933 26.6387 4.55932 29.0802 3.5377 31.5729C1.58655 36.3232 0.524022 41.38 0.135848 46.498C-0.262563 51.6671 0.22779 56.9486 1.44346 61.985C2.61828 66.8375 4.60004 71.5877 7.1949 75.858C9.73858 80.0465 12.926 83.9387 16.5933 87.1974C20.3017 90.4868 24.4593 93.3167 28.985 95.3597C31.447 96.4732 33.9601 97.454 36.5547 98.1793C39.2415 98.9251 41.969 99.3848 44.7376 99.7015C49.917 100.304 55.1882 99.9671 60.2859 98.9353C65.2098 97.9443 70.0111 96.1056 74.3937 93.6538C78.6741 91.2633 82.6685 88.1783 86.0498 84.6333C89.4619 81.068 92.4244 76.9614 94.6208 72.5379C96.8682 68.0225 98.5233 63.2008 99.2893 58.2154C99.7082 55.4878 99.9942 52.75 99.9942 49.9919C99.9942 48.6842 99.4221 47.3051 98.5027 46.3756C97.614 45.4868 96.1634 44.8228 94.8864 44.8841C93.5686 44.9454 92.1997 45.3744 91.2701 46.3756C90.3609 47.3971 89.7888 48.623 89.7888 50.0124L89.7896 50.0127Z" fill="#F90808"/>
</g>
<defs>
<clipPath id="clip0_3574_4276">
<rect width="100" height="100" fill="white"/>
</clipPath>
</defs>
</svg>
