<svg width="29" height="28" viewBox="0 0 29 28" fill="none" xmlns="http://www.w3.org/2000/svg">
<path d="M21.0802 14.003C21.0802 14.4361 20.7291 14.7875 20.2956 14.7875H15.2874V19.7961C15.2874 20.2295 14.9359 20.5807 14.5028 20.5807C14.0697 20.5807 13.7183 20.2295 13.7183 19.7961V14.7875H8.70908C8.27598 14.7875 7.9245 14.4361 7.9245 14.003C7.9245 13.5699 8.27598 13.2184 8.70908 13.2184H13.7183V8.20984C13.7183 7.77674 14.0697 7.42526 14.5028 7.42526C14.9359 7.42526 15.2874 7.77674 15.2874 8.20984V13.2187H20.2956C20.7291 13.2184 21.0802 13.5699 21.0802 14.003V14.003ZM27.8397 14.003C27.8397 17.565 26.4522 20.9143 23.9334 23.4331C21.3333 26.0332 17.9182 27.3332 14.5032 27.3332C11.0883 27.3332 7.67315 26.0333 5.07306 23.4331C2.55421 20.9143 1.16675 17.5649 1.16675 14.003C1.16675 10.4403 2.55421 7.09157 5.07306 4.57281C7.5919 2.05397 10.9413 0.666504 14.5032 0.666504C18.0651 0.666504 21.4146 2.05397 23.9334 4.57281C26.4522 7.09133 27.8397 10.4404 27.8397 14.003ZM26.2705 14.003C26.2705 10.8596 25.0466 7.90426 22.8238 5.68153C20.6014 3.4588 17.6461 2.23489 14.5024 2.23489C11.3588 2.23489 8.40371 3.4588 6.18098 5.68153C3.95825 7.90426 2.73433 10.8593 2.73433 14.003C2.73433 17.1463 3.95825 20.1017 6.18098 22.3244C10.7696 26.9121 18.2352 26.9127 22.823 22.3244C25.0458 20.1013 26.2697 17.1466 26.2697 14.003H26.2705Z" fill="#FAFAFA" stroke="#FAFAFA"/>
</svg>
