<svg width="120" height="110" viewBox="0 0 120 110" fill="none" xmlns="http://www.w3.org/2000/svg">
<rect width="120" height="110" rx="16" fill="#EFEFEF"/>
<path d="M40.7416 27.8708C40.7416 32.0502 37.9475 35.6472 32.8669 35.6472C28.0854 35.6472 25 32.2548 25 28.0754C25 23.7859 27.9909 20 32.8708 20C37.7507 20 40.6472 23.5812 40.7416 27.8708ZM25 90.8372V39.677H40.7416V90.8372H25Z" fill="#444444"/>
<path d="M48.6123 57.1661C48.6123 51.0859 48.4116 46.0053 48.2109 41.6173H62.3548L63.0553 48.398H63.3544C65.3457 45.2064 70.2256 40.5272 78.3955 40.5272C88.3599 40.5272 95.8372 47.1977 95.8372 61.5501V90.8374H80.0955V63.8366C80.0955 57.5636 77.7068 52.7781 72.2247 52.7781C68.0454 52.7781 65.9517 56.1626 64.8537 58.9528C64.4523 59.9524 64.3539 61.3455 64.3539 62.7426V90.8374H48.6123V57.1661Z" fill="#444444"/>
</svg>
