<svg width="437" height="404" viewBox="0 0 437 404" fill="none" xmlns="http://www.w3.org/2000/svg">
<path d="M182.854 35.5593C190.516 30.1709 200.324 28.8566 209.134 32.0378L358.691 86.0398C368.768 89.6785 375.983 98.6234 377.406 109.243L396.237 249.776C397.66 260.395 393.054 270.924 384.29 277.088L254.227 368.558C246.565 373.946 236.757 375.261 227.947 372.079L78.3903 318.077C68.3128 314.439 61.098 305.494 59.675 294.874L40.8439 154.341C39.421 143.722 44.0264 133.193 52.7904 127.03L182.854 35.5593Z" fill="#034694" stroke="#FAFAFA" stroke-width="7.81824"/>
<path d="M188.481 79.2365C195.954 74.1631 205.378 72.9003 213.923 75.8273L323.038 113.202C333.336 116.729 340.755 125.774 342.201 136.562L354.982 231.95C356.428 242.738 351.652 253.417 342.646 259.531L247.22 324.313C239.747 329.387 230.322 330.65 221.777 327.723L112.662 290.348C102.365 286.821 94.9454 277.776 93.4997 266.988L80.7181 171.6C79.2725 160.812 84.0489 150.133 93.0547 144.019L188.481 79.2365Z" fill="#F0F6FD" stroke="#FAFAFA" stroke-width="1.56365"/>
<path fill-rule="evenodd" clip-rule="evenodd" d="M200.981 156.039C208.082 155.088 213.04 148.595 212.089 141.495C211.138 134.395 204.646 129.436 197.545 130.388C190.445 131.339 185.486 137.831 186.438 144.931C187.389 152.032 194.11 156.96 200.981 156.039ZM178.93 203.757C178.641 206.827 176.17 209.256 173.192 209.655L173.192 209.655C168.611 210.269 164.363 206.408 164.895 201.674L166.716 187.439C166.822 186.497 167.186 185.752 167.55 185.006L167.555 184.996L180.904 164.556C183.024 161.241 186.473 159.148 190.398 158.855C196.496 158.582 200.994 158.135 204.486 157.788C211.479 157.093 214.445 156.799 218.174 159.098C220.541 160.255 222.483 161.54 224.197 162.674L224.197 162.674L224.197 162.675L224.197 162.675L224.197 162.675C227.902 165.126 230.545 166.875 234.135 165.119L240.271 162.199C243.981 160.303 248.212 162.301 249.421 166.102C250.277 169.019 248.845 172.242 246.02 173.786C244.743 174.236 243.335 175.01 241.796 175.856C236.898 178.549 230.666 181.975 223.042 178.03L216.275 174.507L217.966 190.6L229.098 191.907C235.726 192.652 240.844 197.795 241.505 204.467L243.316 217.98L227.742 220.066L226.546 211.134C226.392 209.989 225.323 208.967 224.147 208.891L211.182 207.83L210.212 244.098L194.41 246.216L194.256 245.071L192.84 201.429C191.937 199.917 191.234 198.147 190.989 196.314L188.626 178.678L181.577 188.715L181.565 188.731L181.564 188.732L181.564 188.732C181.556 188.742 181.549 188.751 181.543 188.761C181.499 188.825 181.486 188.91 181.382 189.573L181.382 189.573L181.382 189.573L181.382 189.573C181.183 190.847 180.652 194.256 178.93 203.757ZM251.229 198.733L289.705 193.579C291.078 193.395 292.148 194.417 292.301 195.562C292.486 196.936 291.692 197.975 290.318 198.159L254.132 203.007L256.831 223.161C257.016 224.535 255.993 225.605 254.848 225.758L221.639 230.207L224.216 249.445C224.369 250.591 223.607 251.858 222.233 252.042L189.482 256.43L192.151 276.355C192.305 277.5 191.542 278.767 190.168 278.951L157.188 283.37C155.814 283.554 154.745 282.531 154.591 281.386C154.438 280.241 155.201 278.973 156.575 278.789L187.265 274.678L184.596 254.753C184.443 253.608 185.435 252.309 186.58 252.156L219.33 247.769L216.753 228.53C216.599 227.385 217.591 226.087 218.736 225.933L251.946 221.485L249.246 201.33C249.092 200.185 250.084 198.886 251.229 198.733ZM207.703 258.42C208.496 257.381 209.87 257.197 210.909 257.99L218.18 263.544C219.219 264.338 219.403 265.712 218.61 266.751C217.816 267.79 216.442 267.974 215.403 267.18L212.547 264.999L213.835 274.618C214.019 275.992 213.226 277.031 211.852 277.215C210.478 277.399 209.439 276.606 209.255 275.232L207.966 265.612L205.785 268.469C204.991 269.508 203.617 269.692 202.578 268.898C201.539 268.105 201.355 266.731 202.149 265.692L207.703 258.42ZM241.782 232.639C240.743 231.846 239.369 232.03 238.575 233.069L233.021 240.341C232.228 241.38 232.412 242.754 233.451 243.547C234.49 244.341 235.864 244.157 236.657 243.118L238.839 240.261L242.92 270.723C243.104 272.097 244.143 272.89 245.516 272.706C246.89 272.522 247.684 271.483 247.5 270.109L243.42 239.648L246.277 241.829C247.316 242.623 248.69 242.439 249.483 241.4C250.277 240.361 250.093 238.987 249.054 238.193L241.782 232.639ZM272.32 208.266C273.114 207.227 274.488 207.043 275.527 207.836L282.799 213.39C283.838 214.184 284.022 215.557 283.228 216.596C282.435 217.635 281.061 217.82 280.022 217.026L277.165 214.845L283.883 265.002C284.068 266.376 283.274 267.415 281.9 267.599C280.526 267.783 279.487 266.99 279.303 265.616L272.584 215.458L270.402 218.315C269.609 219.354 268.235 219.538 267.196 218.744C266.157 217.951 265.973 216.577 266.767 215.538L272.32 208.266Z" fill="#034694"/>
</svg>
