<svg width="29" height="27" viewBox="0 0 29 27" fill="none" xmlns="http://www.w3.org/2000/svg">
<path fill-rule="evenodd" clip-rule="evenodd" d="M14.4874 0C15.9631 0 17.284 0.765313 18.016 2.0471L28.4121 20.2237C29.1398 21.4953 29.1355 23.0129 28.3991 24.2817C27.6627 25.5519 26.3476 26.31 24.8821 26.31H4.07398C2.607 26.31 1.29194 25.5519 0.555559 24.2817C-0.18082 23.0129 -0.185161 21.4953 0.542538 20.2237L10.9589 2.04421C11.6909 0.763867 13.0089 0 14.486 0H14.4874ZM14.486 2.17008C13.7974 2.17008 13.184 2.52597 12.8396 3.12346L2.42616 21.3015C2.08763 21.8946 2.09053 22.6021 2.4334 23.1938C2.77627 23.7855 3.38968 24.1399 4.07398 24.1399H24.8821C25.565 24.1399 26.1784 23.7855 26.5212 23.1938C26.8656 22.6021 26.8685 21.8946 26.527 21.3015L16.1324 3.12346C15.7895 2.52597 15.1761 2.17008 14.486 2.17008ZM14.4762 18.0825C15.2762 18.0825 15.9229 18.7292 15.9229 19.5292C15.9229 20.3293 15.2762 20.976 14.4762 20.976C13.6761 20.976 13.0222 20.3293 13.0222 19.5292C13.0222 18.7292 13.6631 18.0825 14.4617 18.0825H14.4762ZM14.4733 9.49625C15.0722 9.49625 15.5583 9.98235 15.5583 10.5813V15.0661C15.5583 15.6651 15.0722 16.1511 14.4733 16.1511C13.8743 16.1511 13.3882 15.6651 13.3882 15.0661V10.5813C13.3882 9.98235 13.8743 9.49625 14.4733 9.49625Z" fill="#444444"/>
</svg>
