<svg width="18" height="18" viewBox="0 0 18 18" fill="none" xmlns="http://www.w3.org/2000/svg">
<path d="M0.994045 17.4908C1.43172 17.94 2.07949 18.1073 2.68349 17.9312L16.768 13.8354C17.4053 13.6584 17.8569 13.1501 17.9786 12.5045C18.1029 11.8474 17.6687 11.0133 17.1015 10.6645L12.6976 7.95779C12.2459 7.68034 11.6629 7.74992 11.2891 8.12691L6.2462 13.2012C5.99234 13.4655 5.57217 13.4655 5.31832 13.2012C5.06446 12.9458 5.06446 12.5318 5.31832 12.2676L10.37 7.19237C10.7447 6.81627 10.8147 6.23053 10.539 5.77603L7.8481 1.32796C7.53297 0.799475 6.99025 0.5 6.39501 0.5C6.32498 0.5 6.2462 0.500002 6.17617 0.508808C5.49339 0.596889 4.95067 1.06372 4.74933 1.72432L0.573873 15.7908C0.390049 16.3898 0.556366 17.0416 0.994045 17.4908Z" fill="#26A17B"/>
</svg>
