<?xml version="1.0" encoding="UTF-8"?>
<!DOCTYPE svg PUBLIC "-//W3C//DTD SVG 1.1//EN" "http://www.w3.org/Graphics/SVG/1.1/DTD/svg11.dtd">

<svg xmlns="http://www.w3.org/2000/svg" version="1.1" width="224px" height="224px" style="shape-rendering:geometricPrecision; text-rendering:geometricPrecision; image-rendering:optimizeQuality; fill-rule:evenodd; clip-rule:evenodd" xmlns:xlink="http://www.w3.org/1999/xlink">

<g><path style="opacity:1" fill="#fefefc" d="M -0.5,-0.5 C 46.1667,-0.5 92.8333,-0.5 139.5,-0.5C 137.781,0.0221067 136.448,1.02211 135.5,2.5C 132.873,1.90843 130.206,1.5751 127.5,1.5C 112.591,-0.00307802 97.5907,0.496922 82.5,3C 78.3842,3.75925 74.7175,5.25925 71.5,7.5C 66.5223,8.9316 61.8556,10.9316 57.5,13.5C 51.228,17.1077 45.228,21.1077 39.5,25.5C 35.5,28.8333 31.8333,32.5 28.5,36.5C 26.0096,38.4121 24.0096,40.7455 22.5,43.5C 20.7819,45.2228 19.4486,47.2228 18.5,49.5C 8.56816,64.3756 2.23482,80.7089 -0.5,98.5C -0.5,65.5 -0.5,32.5 -0.5,-0.5 Z"/></g>
<g><path style="opacity:1" fill="#fefefd" d="M 139.5,-0.5 C 167.5,-0.5 195.5,-0.5 223.5,-0.5C 223.5,32.1667 223.5,64.8333 223.5,97.5C 222.012,91.2181 220.345,84.8848 218.5,78.5C 216.594,71.7642 213.927,65.4308 210.5,59.5C 208.163,55.4921 205.83,51.4921 203.5,47.5C 198.879,39.8783 192.879,33.5449 185.5,28.5C 184.524,27.1851 183.524,25.8518 182.5,24.5C 179.174,22.5587 175.841,20.5587 172.5,18.5C 172.047,17.5416 171.381,16.7083 170.5,16C 167.16,14.9967 164.16,13.4967 161.5,11.5C 153.318,7.32726 144.651,4.32726 135.5,2.5C 136.448,1.02211 137.781,0.0221067 139.5,-0.5 Z"/></g>
<g><path style="opacity:1" fill="#fcf39f" d="M 127.5,1.5 C 130.206,1.5751 132.873,1.90843 135.5,2.5C 144.651,4.32726 153.318,7.32726 161.5,11.5C 157.029,11.6724 156.696,12.5057 160.5,14C 158.393,16.4212 158.893,18.5879 162,20.5C 162.789,24.4564 164.289,28.1231 166.5,31.5C 167.495,36.7921 167.828,42.1254 167.5,47.5C 168.5,47.5 169.5,47.5 170.5,47.5C 170.664,50.1873 170.497,52.854 170,55.5C 167.27,60.4518 165.603,65.7851 165,71.5C 161.706,77.2864 159.706,77.2864 159,71.5C 158.817,74.3647 158.317,77.0314 157.5,79.5C 157.5,75.1667 157.5,70.8333 157.5,66.5C 157.249,63.091 157.583,59.7577 158.5,56.5C 157.491,48.2457 155.824,39.9124 153.5,31.5C 148.747,25.6444 143.414,20.4778 137.5,16C 134.183,15.5017 130.85,15.335 127.5,15.5C 127.5,14.5 127.5,13.5 127.5,12.5C 123.407,12.4778 119.407,11.8112 115.5,10.5C 111.593,11.8112 107.593,12.4778 103.5,12.5C 103.5,13.5 103.5,14.5 103.5,15.5C 102.022,15.238 100.689,15.5713 99.5,16.5C 98.2291,19.5974 96.7291,19.9307 95,17.5C 91.2962,21.8648 87.6295,26.1982 84,30.5C 83.9423,33.5587 82.609,35.892 80,37.5C 79.0386,41.4919 79.5386,45.1585 81.5,48.5C 79.4687,48.9724 77.8021,49.9724 76.5,51.5C 72.1698,54.8201 69.3365,59.1534 68,64.5C 67.5007,69.4889 67.3341,74.4889 67.5,79.5C 67.1667,79.5 66.8333,79.5 66.5,79.5C 66.1455,72.0315 66.8122,64.6981 68.5,57.5C 66.8212,57.7148 65.8212,57.0481 65.5,55.5C 67.289,50.5932 68.1223,45.2599 68,39.5C 69.1577,50.1466 69.991,50.1466 70.5,39.5C 71.8333,39.5 73.1667,39.5 74.5,39.5C 74.3359,36.8127 74.5026,34.146 75,31.5C 77.5402,29.2953 79.7068,26.7953 81.5,24C 80.6919,23.6924 80.0253,23.1924 79.5,22.5C 82.3905,20.9571 84.0571,18.6238 84.5,15.5C 90.2258,15.1147 93.8924,12.1147 95.5,6.5C 104.836,5.33301 114.169,5.33301 123.5,6.5C 128.833,5.83333 128.833,5.16667 123.5,4.5C 116.847,3.83419 110.181,3.33419 103.5,3C 111.677,2.82923 119.677,2.32923 127.5,1.5 Z"/></g>
<g><path style="opacity:1" fill="#fdf597" d="M 127.5,1.5 C 119.677,2.32923 111.677,2.82923 103.5,3C 110.181,3.33419 116.847,3.83419 123.5,4.5C 128.833,5.16667 128.833,5.83333 123.5,6.5C 114.169,5.33301 104.836,5.33301 95.5,6.5C 93.8924,12.1147 90.2258,15.1147 84.5,15.5C 84.0571,18.6238 82.3905,20.9571 79.5,22.5C 80.0253,23.1924 80.6919,23.6924 81.5,24C 79.7068,26.7953 77.5402,29.2953 75,31.5C 74.5026,34.146 74.3359,36.8127 74.5,39.5C 73.1667,39.5 71.8333,39.5 70.5,39.5C 69.991,50.1466 69.1577,50.1466 68,39.5C 68.1223,45.2599 67.289,50.5932 65.5,55.5C 65.1602,47.4487 65.1602,39.4487 65.5,31.5C 67.817,24.8951 71.317,18.5618 76,12.5C 78.4281,11.37 80.5947,9.86997 82.5,8C 79.4557,7.64114 79.1224,6.97448 81.5,6C 80.6667,5.83333 79.8333,5.66667 79,5.5C 76.6403,6.78004 74.1403,7.4467 71.5,7.5C 74.7175,5.25925 78.3842,3.75925 82.5,3C 97.5907,0.496922 112.591,-0.00307802 127.5,1.5 Z"/></g>
<g><path style="opacity:1" fill="#fef6af" d="M 157.5,66.5 C 155.928,63.7846 154.928,60.7846 154.5,57.5C 154.657,56.1266 154.49,54.7932 154,53.5C 151.646,52.2637 149.646,50.597 148,48.5C 148.391,42.9146 147.057,37.9146 144,33.5C 143,34.8333 142,34.8333 141,33.5C 141.292,29.5424 139.459,26.5424 135.5,24.5C 132.914,23.52 130.247,23.1866 127.5,23.5C 127.5,22.5 127.5,21.5 127.5,20.5C 122.167,20.5 116.833,20.5 111.5,20.5C 111.5,21.5 111.5,22.5 111.5,23.5C 107.774,23.1774 104.107,23.5108 100.5,24.5C 98.1667,27.5 95.5,30.1667 92.5,32.5C 91.9109,35.2762 90.5776,37.6096 88.5,39.5C 87.6786,42.4465 87.1786,45.4465 87,48.5C 85.2245,47.4639 83.3911,47.4639 81.5,48.5C 79.5386,45.1585 79.0386,41.4919 80,37.5C 82.609,35.892 83.9423,33.5587 84,30.5C 87.6295,26.1982 91.2962,21.8648 95,17.5C 96.7291,19.9307 98.2291,19.5974 99.5,16.5C 100.689,15.5713 102.022,15.238 103.5,15.5C 103.5,14.5 103.5,13.5 103.5,12.5C 107.593,12.4778 111.593,11.8112 115.5,10.5C 119.407,11.8112 123.407,12.4778 127.5,12.5C 127.5,13.5 127.5,14.5 127.5,15.5C 130.85,15.335 134.183,15.5017 137.5,16C 143.414,20.4778 148.747,25.6444 153.5,31.5C 155.824,39.9124 157.491,48.2457 158.5,56.5C 157.583,59.7577 157.249,63.091 157.5,66.5 Z"/></g>
<g><path style="opacity:1" fill="#fdf5b9" d="M 154.5,57.5 C 152.491,55.4572 150.491,53.4572 148.5,51.5C 146.497,49.0181 143.831,48.0181 140.5,48.5C 140.657,47.1266 140.49,45.7932 140,44.5C 137.631,43.0726 137.131,41.2393 138.5,39C 134.624,36.5923 130.957,34.0923 127.5,31.5C 127.5,30.5 127.5,29.5 127.5,28.5C 122.167,28.5 116.833,28.5 111.5,28.5C 111.5,29.5 111.5,30.5 111.5,31.5C 109.712,31.2148 108.045,31.5481 106.5,32.5C 105.564,33.9744 104.23,34.9744 102.5,35.5C 100.336,38.4902 98.1698,41.4902 96,44.5C 95.6667,46.8333 95.3333,49.1667 95,51.5C 93.187,50.3909 92.3537,51.0576 92.5,53.5C 91.1667,53.5 89.8333,53.5 88.5,53.5C 84.8992,50.5092 80.8992,49.8425 76.5,51.5C 77.8021,49.9724 79.4687,48.9724 81.5,48.5C 83.3911,47.4639 85.2245,47.4639 87,48.5C 87.1786,45.4465 87.6786,42.4465 88.5,39.5C 90.5776,37.6096 91.9109,35.2762 92.5,32.5C 95.5,30.1667 98.1667,27.5 100.5,24.5C 104.107,23.5108 107.774,23.1774 111.5,23.5C 111.5,22.5 111.5,21.5 111.5,20.5C 116.833,20.5 122.167,20.5 127.5,20.5C 127.5,21.5 127.5,22.5 127.5,23.5C 130.247,23.1866 132.914,23.52 135.5,24.5C 139.459,26.5424 141.292,29.5424 141,33.5C 142,34.8333 143,34.8333 144,33.5C 147.057,37.9146 148.391,42.9146 148,48.5C 149.646,50.597 151.646,52.2637 154,53.5C 154.49,54.7932 154.657,56.1266 154.5,57.5 Z"/></g>
<g><path style="opacity:1" fill="#fcf075" d="M 63.5,87.5 C 61.2067,85.3875 58.7067,83.3875 56,81.5C 55.8217,77.8792 54.155,75.2125 51,73.5C 50.5017,70.1832 50.335,66.8499 50.5,63.5C 49.5,63.5 48.5,63.5 47.5,63.5C 46.8407,58.186 46.174,52.8527 45.5,47.5C 46.0029,42.8097 46.6696,38.143 47.5,33.5C 47.3461,29.9021 46.3461,26.5687 44.5,23.5C 43.1585,25.0049 41.4918,25.6715 39.5,25.5C 45.228,21.1077 51.228,17.1077 57.5,13.5C 60.3004,13.1111 62.9671,12.6111 65.5,12C 62.811,15.2361 59.6444,18.7361 56,22.5C 55.0423,32.1565 54.209,41.8232 53.5,51.5C 55.3396,56.4317 55.6729,61.4317 54.5,66.5C 53.6043,65.4937 52.9377,65.4937 52.5,66.5C 53.0149,68.2251 53.6816,69.8917 54.5,71.5C 57.3557,73.522 59.689,76.022 61.5,79C 60.1787,80.5445 60.5121,81.7112 62.5,82.5C 63.4519,84.0453 63.7852,85.712 63.5,87.5 Z"/></g>
<g><path style="opacity:1" fill="#fdf287" d="M 65.5,55.5 C 65.8212,57.0481 66.8212,57.7148 68.5,57.5C 66.8122,64.6981 66.1455,72.0315 66.5,79.5C 64.9605,81.8383 64.2938,84.5049 64.5,87.5C 64.1667,87.5 63.8333,87.5 63.5,87.5C 63.7852,85.712 63.4519,84.0453 62.5,82.5C 60.5121,81.7112 60.1787,80.5445 61.5,79C 59.689,76.022 57.3557,73.522 54.5,71.5C 53.6816,69.8917 53.0149,68.2251 52.5,66.5C 52.9377,65.4937 53.6043,65.4937 54.5,66.5C 55.6729,61.4317 55.3396,56.4317 53.5,51.5C 54.209,41.8232 55.0423,32.1565 56,22.5C 59.6444,18.7361 62.811,15.2361 65.5,12C 62.9671,12.6111 60.3004,13.1111 57.5,13.5C 61.8556,10.9316 66.5223,8.9316 71.5,7.5C 74.1403,7.4467 76.6403,6.78004 79,5.5C 79.8333,5.66667 80.6667,5.83333 81.5,6C 79.1224,6.97448 79.4557,7.64114 82.5,8C 80.5947,9.86997 78.4281,11.37 76,12.5C 71.317,18.5618 67.817,24.8951 65.5,31.5C 65.1602,39.4487 65.1602,47.4487 65.5,55.5 Z"/></g>
<g><path style="opacity:1" fill="#fdf6c6" d="M 140.5,48.5 C 138.801,48.6204 137.135,48.9537 135.5,49.5C 132.647,45.487 128.981,42.3204 124.5,40C 119.167,39.3333 113.833,39.3333 108.5,40C 106.85,42.8131 104.85,45.3131 102.5,47.5C 98.2686,63.0995 103.935,71.7662 119.5,73.5C 122.613,73.4377 125.446,72.7711 128,71.5C 128.198,73.3817 128.698,75.0484 129.5,76.5C 129.5,77.5 129.5,78.5 129.5,79.5C 129.167,83.5 128.833,83.5 128.5,79.5C 121.825,79.6663 115.158,79.4996 108.5,79C 104.377,75.7153 100.377,72.2153 96.5,68.5C 95.5059,73.456 95.1725,78.456 95.5,83.5C 94.9779,85.2191 93.9779,86.5525 92.5,87.5C 94.4844,79.6379 94.9844,71.6379 94,63.5C 92.7735,59.7885 90.9401,56.4552 88.5,53.5C 89.8333,53.5 91.1667,53.5 92.5,53.5C 92.3537,51.0576 93.187,50.3909 95,51.5C 95.3333,49.1667 95.6667,46.8333 96,44.5C 98.1698,41.4902 100.336,38.4902 102.5,35.5C 104.23,34.9744 105.564,33.9744 106.5,32.5C 108.045,31.5481 109.712,31.2148 111.5,31.5C 111.5,30.5 111.5,29.5 111.5,28.5C 116.833,28.5 122.167,28.5 127.5,28.5C 127.5,29.5 127.5,30.5 127.5,31.5C 130.957,34.0923 134.624,36.5923 138.5,39C 137.131,41.2393 137.631,43.0726 140,44.5C 140.49,45.7932 140.657,47.1266 140.5,48.5 Z"/></g>
<g><path style="opacity:1" fill="#fdf18e" d="M 161.5,11.5 C 164.16,13.4967 167.16,14.9967 170.5,16C 171.381,16.7083 172.047,17.5416 172.5,18.5C 168.5,19.1667 168.5,19.8333 172.5,20.5C 172.596,29.6015 173.596,38.6015 175.5,47.5C 175.597,52.1237 174.931,56.6237 173.5,61C 173.945,62.4469 174.612,63.7803 175.5,65C 174.022,66.4782 172.522,67.9782 171,69.5C 171,70.8333 171,72.1667 171,73.5C 166.648,78.8625 162.648,84.5292 159,90.5C 158.722,89.5842 158.222,88.9175 157.5,88.5C 157.805,85.586 157.805,82.9193 157.5,80.5C 157.5,80.1667 157.5,79.8333 157.5,79.5C 158.317,77.0314 158.817,74.3647 159,71.5C 159.706,77.2864 161.706,77.2864 165,71.5C 165.603,65.7851 167.27,60.4518 170,55.5C 170.497,52.854 170.664,50.1873 170.5,47.5C 169.5,47.5 168.5,47.5 167.5,47.5C 167.828,42.1254 167.495,36.7921 166.5,31.5C 164.289,28.1231 162.789,24.4564 162,20.5C 158.893,18.5879 158.393,16.4212 160.5,14C 156.696,12.5057 157.029,11.6724 161.5,11.5 Z"/></g>
<g><path style="opacity:1" fill="#fcf081" d="M 172.5,18.5 C 175.841,20.5587 179.174,22.5587 182.5,24.5C 183.524,25.8518 184.524,27.1851 185.5,28.5C 183.845,29.9302 181.845,30.7635 179.5,31C 181.256,31.2022 182.922,31.7022 184.5,32.5C 182.976,34.7924 183.309,36.7924 185.5,38.5C 184.383,39.9494 183.716,41.6161 183.5,43.5C 184.708,53.8446 184.541,64.1779 183,74.5C 180.564,76.4673 178.064,78.134 175.5,79.5C 174.895,87.3755 170.895,92.7088 163.5,95.5C 161.833,95.5 160.167,95.5 158.5,95.5C 158.326,93.139 157.993,90.8056 157.5,88.5C 158.222,88.9175 158.722,89.5842 159,90.5C 162.648,84.5292 166.648,78.8625 171,73.5C 171,72.1667 171,70.8333 171,69.5C 172.522,67.9782 174.022,66.4782 175.5,65C 174.612,63.7803 173.945,62.4469 173.5,61C 174.931,56.6237 175.597,52.1237 175.5,47.5C 173.596,38.6015 172.596,29.6015 172.5,20.5C 168.5,19.8333 168.5,19.1667 172.5,18.5 Z"/></g>
<g><path style="opacity:1" fill="#040302" d="M 88.5,53.5 C 90.9401,56.4552 92.7735,59.7885 94,63.5C 94.9844,71.6379 94.4844,79.6379 92.5,87.5C 90.8474,90.1305 89.1807,92.7972 87.5,95.5C 87.1667,95.5 86.8333,95.5 86.5,95.5C 80.6377,98.3849 75.8044,97.0515 72,91.5C 70.0017,87.6701 68.5017,83.6701 67.5,79.5C 67.3341,74.4889 67.5007,69.4889 68,64.5C 69.3365,59.1534 72.1698,54.8201 76.5,51.5C 80.8992,49.8425 84.8992,50.5092 88.5,53.5 Z"/></g>
<g><path style="opacity:1" fill="#060604" d="M 148.5,51.5 C 150.491,53.4572 152.491,55.4572 154.5,57.5C 154.928,60.7846 155.928,63.7846 157.5,66.5C 157.5,70.8333 157.5,75.1667 157.5,79.5C 157.5,79.8333 157.5,80.1667 157.5,80.5C 155.775,83.6245 154.275,86.9579 153,90.5C 148.055,98.0049 142.221,99.0049 135.5,93.5C 132.9,89.0142 130.9,84.3475 129.5,79.5C 129.5,78.5 129.5,77.5 129.5,76.5C 128.647,68.0637 130.647,60.397 135.5,53.5C 139.437,50.4135 143.771,49.7468 148.5,51.5 Z"/></g>
<g><path style="opacity:1" fill="#fcf8d6" d="M 140.5,48.5 C 143.831,48.0181 146.497,49.0181 148.5,51.5C 143.771,49.7468 139.437,50.4135 135.5,53.5C 130.647,60.397 128.647,68.0637 129.5,76.5C 128.698,75.0484 128.198,73.3817 128,71.5C 125.446,72.7711 122.613,73.4377 119.5,73.5C 103.935,71.7662 98.2686,63.0995 102.5,47.5C 104.85,45.3131 106.85,42.8131 108.5,40C 113.833,39.3333 119.167,39.3333 124.5,40C 128.981,42.3204 132.647,45.487 135.5,49.5C 137.135,48.9537 138.801,48.6204 140.5,48.5 Z"/></g>
<g><path style="opacity:1" fill="#fcee6d" d="M 185.5,28.5 C 192.879,33.5449 198.879,39.8783 203.5,47.5C 202.292,46.7659 200.959,46.4326 199.5,46.5C 199.5,45.5 199.5,44.5 199.5,43.5C 196.988,43.4228 194.988,44.4228 193.5,46.5C 194.47,54.778 194.803,63.1114 194.5,71.5C 193.5,71.5 192.5,71.5 191.5,71.5C 191.762,72.9778 191.429,74.3112 190.5,75.5C 187.667,76.8155 186.834,78.8155 188,81.5C 186.315,83.0175 184.815,84.6841 183.5,86.5C 184.052,88.0026 184.052,89.6693 183.5,91.5C 182.448,91.3505 181.448,91.5172 180.5,92C 177.635,95.6919 174.635,99.1919 171.5,102.5C 168.253,103.252 164.919,103.752 161.5,104C 160.627,105.045 159.627,105.878 158.5,106.5C 157.737,105.732 156.737,105.232 155.5,105C 159.448,103.862 162.448,101.529 164.5,98C 162.381,97.6582 162.047,96.8249 163.5,95.5C 170.895,92.7088 174.895,87.3755 175.5,79.5C 178.064,78.134 180.564,76.4673 183,74.5C 184.541,64.1779 184.708,53.8446 183.5,43.5C 183.716,41.6161 184.383,39.9494 185.5,38.5C 183.309,36.7924 182.976,34.7924 184.5,32.5C 182.922,31.7022 181.256,31.2022 179.5,31C 181.845,30.7635 183.845,29.9302 185.5,28.5 Z"/></g>
<g><path style="opacity:1" fill="#fbeb66" d="M 63.5,87.5 C 63.8333,87.5 64.1667,87.5 64.5,87.5C 64.0181,90.8306 65.0181,93.4973 67.5,95.5C 68.0852,97.922 69.5852,99.5887 72,100.5C 71.5913,102.225 71.7579,103.892 72.5,105.5C 73.9814,106.48 75.3147,107.647 76.5,109C 75.244,109.417 74.5774,110.25 74.5,111.5C 72.712,111.785 71.0453,111.452 69.5,110.5C 68.4206,108.457 66.754,107.124 64.5,106.5C 63.6143,105.675 63.281,104.675 63.5,103.5C 61.8333,103.5 60.1667,103.5 58.5,103.5C 53.6548,99.1689 49.3214,94.1689 45.5,88.5C 47.2603,85.7877 47.927,82.7877 47.5,79.5C 45.8333,79.5 44.1667,79.5 42.5,79.5C 41.9932,74.125 41.1598,68.7917 40,63.5C 39.4885,74.1059 38.6551,74.1059 37.5,63.5C 36.1968,55.1379 36.1968,46.8045 37.5,38.5C 36.3112,37.5713 34.9778,37.238 33.5,37.5C 32.9473,33.5443 32.1139,33.5443 31,37.5C 30.3292,36.7476 29.4959,36.4142 28.5,36.5C 31.8333,32.5 35.5,28.8333 39.5,25.5C 41.4918,25.6715 43.1585,25.0049 44.5,23.5C 46.3461,26.5687 47.3461,29.9021 47.5,33.5C 46.6696,38.143 46.0029,42.8097 45.5,47.5C 46.174,52.8527 46.8407,58.186 47.5,63.5C 48.5,63.5 49.5,63.5 50.5,63.5C 50.335,66.8499 50.5017,70.1832 51,73.5C 54.155,75.2125 55.8217,77.8792 56,81.5C 58.7067,83.3875 61.2067,85.3875 63.5,87.5 Z"/></g>
<g><path style="opacity:1" fill="#fbea54" d="M 58.5,103.5 C 56.1667,103.5 53.8333,103.5 51.5,103.5C 50.1667,103.5 48.8333,103.5 47.5,103.5C 47.0245,98.4938 44.3578,95.8272 39.5,95.5C 39.5,92.8333 39.5,90.1667 39.5,87.5C 38.5,87.5 37.5,87.5 36.5,87.5C 35.4634,83.0276 33.9634,78.6943 32,74.5C 31.5014,70.8484 31.3347,67.1817 31.5,63.5C 30.1667,63.5 28.8333,63.5 27.5,63.5C 27.1934,57.9066 27.5268,52.4066 28.5,47C 26.8659,46.5065 25.1992,46.3398 23.5,46.5C 23.7373,45.209 23.404,44.209 22.5,43.5C 24.0096,40.7455 26.0096,38.4121 28.5,36.5C 29.4959,36.4142 30.3292,36.7476 31,37.5C 32.1139,33.5443 32.9473,33.5443 33.5,37.5C 34.9778,37.238 36.3112,37.5713 37.5,38.5C 36.1968,46.8045 36.1968,55.1379 37.5,63.5C 38.6551,74.1059 39.4885,74.1059 40,63.5C 41.1598,68.7917 41.9932,74.125 42.5,79.5C 44.1667,79.5 45.8333,79.5 47.5,79.5C 47.927,82.7877 47.2603,85.7877 45.5,88.5C 49.3214,94.1689 53.6548,99.1689 58.5,103.5 Z"/></g>
<g><path style="opacity:1" fill="#fae938" d="M 210.5,59.5 C 213.927,65.4308 216.594,71.7642 218.5,78.5C 216.353,76.2616 214.353,76.2616 212.5,78.5C 213.167,79.1667 213.833,79.8333 214.5,80.5C 211.404,85.5405 208.904,90.8739 207,96.5C 202.794,99.1825 201.961,102.516 204.5,106.5C 203.913,109.406 202.246,111.072 199.5,111.5C 199.5,112.833 199.5,114.167 199.5,115.5C 197.41,115.45 196.077,116.45 195.5,118.5C 197.02,120.662 198.02,122.995 198.5,125.5C 197.992,127.233 197.159,127.566 196,126.5C 195.768,127.737 195.268,128.737 194.5,129.5C 193.581,122.568 189.914,117.568 183.5,114.5C 183.082,113.778 182.416,113.278 181.5,113C 183.329,112.727 184.829,111.893 186,110.5C 187.331,106.671 189.831,104.005 193.5,102.5C 194.441,100.228 195.774,98.2279 197.5,96.5C 195.96,95.4679 195.46,94.1346 196,92.5C 198.333,89.1694 200.667,85.836 203,82.5C 202.31,77.9481 203.977,74.2814 208,71.5C 206.873,67.9866 207.373,64.6532 209.5,61.5C 208.012,59.1143 208.345,58.4476 210.5,59.5 Z"/></g>
<g><path style="opacity:1" fill="#fbf2b6" d="M 129.5,79.5 C 130.9,84.3475 132.9,89.0142 135.5,93.5C 134.5,93.5 133.5,93.5 132.5,93.5C 131.399,88.2956 130.065,88.2956 128.5,93.5C 119.859,92.6674 111.193,91.8341 102.5,91C 100.933,88.259 98.5993,87.0923 95.5,87.5C 95.5,86.1667 95.5,84.8333 95.5,83.5C 95.1725,78.456 95.5059,73.456 96.5,68.5C 100.377,72.2153 104.377,75.7153 108.5,79C 115.158,79.4996 121.825,79.6663 128.5,79.5C 128.833,83.5 129.167,83.5 129.5,79.5 Z"/></g>
<g><path style="opacity:1" fill="#faea57" d="M 203.5,47.5 C 205.83,51.4921 208.163,55.4921 210.5,59.5C 208.345,58.4476 208.012,59.1143 209.5,61.5C 207.373,64.6532 206.873,67.9866 208,71.5C 203.977,74.2814 202.31,77.9481 203,82.5C 200.667,85.836 198.333,89.1694 196,92.5C 195.46,94.1346 195.96,95.4679 197.5,96.5C 195.774,98.2279 194.441,100.228 193.5,102.5C 189.831,104.005 187.331,106.671 186,110.5C 184.829,111.893 183.329,112.727 181.5,113C 182.416,113.278 183.082,113.778 183.5,114.5C 179.616,113.207 175.616,112.541 171.5,112.5C 168.989,112.838 166.655,112.838 164.5,112.5C 166.146,109.163 168.646,106.83 172,105.5C 172.47,104.423 172.303,103.423 171.5,102.5C 174.635,99.1919 177.635,95.6919 180.5,92C 181.448,91.5172 182.448,91.3505 183.5,91.5C 184.052,89.6693 184.052,88.0026 183.5,86.5C 184.815,84.6841 186.315,83.0175 188,81.5C 186.834,78.8155 187.667,76.8155 190.5,75.5C 191.429,74.3112 191.762,72.9778 191.5,71.5C 192.5,71.5 193.5,71.5 194.5,71.5C 194.803,63.1114 194.47,54.778 193.5,46.5C 194.988,44.4228 196.988,43.4228 199.5,43.5C 199.5,44.5 199.5,45.5 199.5,46.5C 200.959,46.4326 202.292,46.7659 203.5,47.5 Z"/></g>
<g><path style="opacity:1" fill="#fae617" d="M 18.5,49.5 C 19.4405,52.1251 20.6072,52.1251 22,49.5C 22.2832,51.6019 21.4499,53.2685 19.5,54.5C 20.2891,60.1152 20.7891,65.7818 21,71.5C 22.6667,73.1667 24.3333,74.8333 26,76.5C 28.1112,83.2301 30.9446,89.5635 34.5,95.5C 34.1822,96.6473 33.5156,97.4806 32.5,98C 34.7067,100.561 36.54,103.394 38,106.5C 44.3261,109.937 43.8261,111.937 36.5,112.5C 35.661,111.359 34.9943,110.026 34.5,108.5C 33.675,107.614 32.675,107.281 31.5,107.5C 31.5,106.167 31.5,104.833 31.5,103.5C 28.8333,103.5 26.1667,103.5 23.5,103.5C 23.3234,105.981 24.3234,107.814 26.5,109C 23.0248,109.447 19.6915,110.28 16.5,111.5C 16.4802,113.143 17.1468,114.476 18.5,115.5C 17.675,116.386 16.675,116.719 15.5,116.5C 15.5,120.167 15.5,123.833 15.5,127.5C 14.5,127.5 13.5,127.5 12.5,127.5C 12.5,130.167 12.5,132.833 12.5,135.5C 11.5,135.5 10.5,135.5 9.5,135.5C 10.1167,141.598 9.44998,147.265 7.5,152.5C 3.56211,142.743 0.895444,132.743 -0.5,122.5C -0.5,114.5 -0.5,106.5 -0.5,98.5C 2.23482,80.7089 8.56816,64.3756 18.5,49.5 Z"/></g>
<g><path style="opacity:1" fill="#f7e995" d="M 157.5,80.5 C 157.805,82.9193 157.805,85.586 157.5,88.5C 157.993,90.8056 158.326,93.139 158.5,95.5C 156.8,95.3739 155.3,94.7073 154,93.5C 152.51,94.3169 151.01,95.1502 149.5,96C 149.957,96.414 150.291,96.914 150.5,97.5C 145.677,98.9701 141.01,98.6368 136.5,96.5C 135.614,97.325 135.281,98.325 135.5,99.5C 136.675,99.281 137.675,99.6143 138.5,100.5C 122.312,105.398 106.645,104.398 91.5,97.5C 90.9041,96.2839 90.7374,94.9506 91,93.5C 90.1841,94.8228 89.0174,95.4894 87.5,95.5C 89.1807,92.7972 90.8474,90.1305 92.5,87.5C 93.9779,86.5525 94.9779,85.2191 95.5,83.5C 95.5,84.8333 95.5,86.1667 95.5,87.5C 98.5993,87.0923 100.933,88.259 102.5,91C 111.193,91.8341 119.859,92.6674 128.5,93.5C 130.065,88.2956 131.399,88.2956 132.5,93.5C 133.5,93.5 134.5,93.5 135.5,93.5C 142.221,99.0049 148.055,98.0049 153,90.5C 154.275,86.9579 155.775,83.6245 157.5,80.5 Z"/></g>
<g><path style="opacity:1" fill="#f4e273" d="M 66.5,79.5 C 66.8333,79.5 67.1667,79.5 67.5,79.5C 68.5017,83.6701 70.0017,87.6701 72,91.5C 75.8044,97.0515 80.6377,98.3849 86.5,95.5C 88.2905,98.7496 87.2905,100.583 83.5,101C 85.1124,101.72 86.6124,101.554 88,100.5C 88.3742,101.416 88.8742,102.25 89.5,103C 93.2429,103.358 96.5762,104.691 99.5,107C 106.158,107.61 112.825,108.11 119.5,108.5C 127.505,107.832 135.505,107.166 143.5,106.5C 143.5,105.167 143.5,103.833 143.5,102.5C 145.547,102.511 147.547,102.844 149.5,103.5C 150.167,103.167 150.833,102.833 151.5,102.5C 150.624,101.749 149.624,101.249 148.5,101C 152.686,100.632 156.02,98.7987 158.5,95.5C 160.167,95.5 161.833,95.5 163.5,95.5C 162.047,96.8249 162.381,97.6582 164.5,98C 162.448,101.529 159.448,103.862 155.5,105C 156.737,105.232 157.737,105.732 158.5,106.5C 153.8,109.517 148.8,112.017 143.5,114C 130.17,115.389 116.836,115.556 103.5,114.5C 97.9721,114.123 93.3055,111.956 89.5,108C 86.7494,107.484 84.4161,106.317 82.5,104.5C 84.0777,103.702 85.7444,103.202 87.5,103C 84.9009,102.231 82.4009,102.398 80,103.5C 78.3905,102.853 76.8905,102.02 75.5,101C 76.3081,100.692 76.9747,100.192 77.5,99.5C 75.1808,95.3323 71.8474,93.999 67.5,95.5C 65.0181,93.4973 64.0181,90.8306 64.5,87.5C 64.2938,84.5049 64.9605,81.8383 66.5,79.5 Z"/></g>
<g><path style="opacity:1" fill="#f7e782" d="M 158.5,95.5 C 156.02,98.7987 152.686,100.632 148.5,101C 149.624,101.249 150.624,101.749 151.5,102.5C 150.833,102.833 150.167,103.167 149.5,103.5C 147.547,102.844 145.547,102.511 143.5,102.5C 143.5,103.833 143.5,105.167 143.5,106.5C 135.505,107.166 127.505,107.832 119.5,108.5C 112.825,108.11 106.158,107.61 99.5,107C 96.5762,104.691 93.2429,103.358 89.5,103C 88.8742,102.25 88.3742,101.416 88,100.5C 86.6124,101.554 85.1124,101.72 83.5,101C 87.2905,100.583 88.2905,98.7496 86.5,95.5C 86.8333,95.5 87.1667,95.5 87.5,95.5C 89.0174,95.4894 90.1841,94.8228 91,93.5C 90.7374,94.9506 90.9041,96.2839 91.5,97.5C 106.645,104.398 122.312,105.398 138.5,100.5C 137.675,99.6143 136.675,99.281 135.5,99.5C 135.281,98.325 135.614,97.325 136.5,96.5C 141.01,98.6368 145.677,98.9701 150.5,97.5C 150.291,96.914 149.957,96.414 149.5,96C 151.01,95.1502 152.51,94.3169 154,93.5C 155.3,94.7073 156.8,95.3739 158.5,95.5 Z"/></g>
<g><path style="opacity:1" fill="#f9e53f" d="M 22.5,43.5 C 23.404,44.209 23.7373,45.209 23.5,46.5C 25.1992,46.3398 26.8659,46.5065 28.5,47C 27.5268,52.4066 27.1934,57.9066 27.5,63.5C 28.8333,63.5 30.1667,63.5 31.5,63.5C 31.3347,67.1817 31.5014,70.8484 32,74.5C 33.9634,78.6943 35.4634,83.0276 36.5,87.5C 37.5,87.5 38.5,87.5 39.5,87.5C 39.5,90.1667 39.5,92.8333 39.5,95.5C 44.3578,95.8272 47.0245,98.4938 47.5,103.5C 48.8333,103.5 50.1667,103.5 51.5,103.5C 51.8333,104.833 52.1667,106.167 52.5,107.5C 52.4142,108.496 52.7476,109.329 53.5,110C 51.4982,111.019 49.4982,111.852 47.5,112.5C 43.7768,113.297 40.1101,114.297 36.5,115.5C 36.5,114.5 36.5,113.5 36.5,112.5C 43.8261,111.937 44.3261,109.937 38,106.5C 36.54,103.394 34.7067,100.561 32.5,98C 33.5156,97.4806 34.1822,96.6473 34.5,95.5C 30.9446,89.5635 28.1112,83.2301 26,76.5C 24.3333,74.8333 22.6667,73.1667 21,71.5C 20.7891,65.7818 20.2891,60.1152 19.5,54.5C 21.4499,53.2685 22.2832,51.6019 22,49.5C 20.6072,52.1251 19.4405,52.1251 18.5,49.5C 19.4486,47.2228 20.7819,45.2228 22.5,43.5 Z"/></g>
<g><path style="opacity:1" fill="#fae517" d="M 218.5,78.5 C 220.345,84.8848 222.012,91.2181 223.5,97.5C 223.5,105.833 223.5,114.167 223.5,122.5C 221.767,136.133 217.767,149.133 211.5,161.5C 210.548,160.548 209.548,159.548 208.5,158.5C 209.833,157.167 209.833,155.833 208.5,154.5C 210.023,150.766 211.189,151.099 212,155.5C 212.465,154.069 213.299,152.903 214.5,152C 213.167,149 213.167,146 214.5,143C 212.478,140.978 210.478,138.978 208.5,137C 209.148,135.56 209.481,134.06 209.5,132.5C 207.396,132.799 205.396,132.466 203.5,131.5C 201.944,129.32 200.278,127.32 198.5,125.5C 198.02,122.995 197.02,120.662 195.5,118.5C 196.077,116.45 197.41,115.45 199.5,115.5C 199.5,114.167 199.5,112.833 199.5,111.5C 202.246,111.072 203.913,109.406 204.5,106.5C 201.961,102.516 202.794,99.1825 207,96.5C 208.904,90.8739 211.404,85.5405 214.5,80.5C 213.833,79.8333 213.167,79.1667 212.5,78.5C 214.353,76.2616 216.353,76.2616 218.5,78.5 Z"/></g>
<g><path style="opacity:1" fill="#f1d950" d="M 51.5,103.5 C 53.8333,103.5 56.1667,103.5 58.5,103.5C 60.1667,103.5 61.8333,103.5 63.5,103.5C 63.281,104.675 63.6143,105.675 64.5,106.5C 66.754,107.124 68.4206,108.457 69.5,110.5C 71.0453,111.452 72.712,111.785 74.5,111.5C 74.4142,112.496 74.7476,113.329 75.5,114C 82.1718,117.336 88.8385,120.669 95.5,124C 111.506,124.5 127.506,124.333 143.5,123.5C 143.5,122.167 143.5,120.833 143.5,119.5C 145.199,119.66 146.866,119.494 148.5,119C 146.699,118.683 146.366,118.016 147.5,117C 152.271,115.811 156.605,113.978 160.5,111.5C 161.067,116.532 162.734,121.032 165.5,125C 163.633,125.711 162.133,125.211 161,123.5C 160.174,115.527 159.674,115.527 159.5,123.5C 157.833,123.5 156.167,123.5 154.5,123.5C 154.67,124.822 154.337,125.989 153.5,127C 150.22,127.056 147.22,127.889 144.5,129.5C 141.788,127.74 138.788,127.073 135.5,127.5C 135.5,128.5 135.5,129.5 135.5,130.5C 121.221,128.918 106.887,127.751 92.5,127C 90.714,126.215 89.214,125.049 88,123.5C 86.9505,124.517 85.7839,124.684 84.5,124C 83.6721,123.085 82.6721,122.419 81.5,122C 82.3081,121.692 82.9747,121.192 83.5,120.5C 82.3112,119.571 80.9778,119.238 79.5,119.5C 79.026,123.157 77.6926,123.324 75.5,120C 71.5138,119.501 67.5138,119.334 63.5,119.5C 63.8956,116.518 63.2289,113.851 61.5,111.5C 59.6329,114.229 58.6329,113.896 58.5,110.5C 56.3284,109.794 54.3284,108.794 52.5,107.5C 52.1667,106.167 51.8333,104.833 51.5,103.5 Z"/></g>
<g><path style="opacity:1" fill="#f2dc5f" d="M 158.5,106.5 C 159.627,105.878 160.627,105.045 161.5,104C 164.919,103.752 168.253,103.252 171.5,102.5C 172.303,103.423 172.47,104.423 172,105.5C 168.646,106.83 166.146,109.163 164.5,112.5C 166.655,112.838 168.989,112.838 171.5,112.5C 166.113,113.285 164.446,116.285 166.5,121.5C 164.938,119.628 163.938,117.295 163.5,114.5C 162.859,113.007 161.859,112.007 160.5,111.5C 156.605,113.978 152.271,115.811 147.5,117C 146.366,118.016 146.699,118.683 148.5,119C 146.866,119.494 145.199,119.66 143.5,119.5C 143.5,120.833 143.5,122.167 143.5,123.5C 127.506,124.333 111.506,124.5 95.5,124C 88.8385,120.669 82.1718,117.336 75.5,114C 74.7476,113.329 74.4142,112.496 74.5,111.5C 74.5774,110.25 75.244,109.417 76.5,109C 75.3147,107.647 73.9814,106.48 72.5,105.5C 71.7579,103.892 71.5913,102.225 72,100.5C 69.5852,99.5887 68.0852,97.922 67.5,95.5C 71.8474,93.999 75.1808,95.3323 77.5,99.5C 76.9747,100.192 76.3081,100.692 75.5,101C 76.8905,102.02 78.3905,102.853 80,103.5C 82.4009,102.398 84.9009,102.231 87.5,103C 85.7444,103.202 84.0777,103.702 82.5,104.5C 84.4161,106.317 86.7494,107.484 89.5,108C 93.3055,111.956 97.9721,114.123 103.5,114.5C 116.836,115.556 130.17,115.389 143.5,114C 148.8,112.017 153.8,109.517 158.5,106.5 Z"/></g>
<g><path style="opacity:1" fill="#f4dc09" d="M 36.5,112.5 C 36.5,113.5 36.5,114.5 36.5,115.5C 34.4659,117.939 32.2993,120.272 30,122.5C 28.7978,124.677 28.2978,127.011 28.5,129.5C 28.3433,130.873 28.51,132.207 29,133.5C 30.4936,132.253 31.9936,132.253 33.5,133.5C 32.16,134.688 31.4934,136.188 31.5,138C 32.8333,140.667 34.1667,143.333 35.5,146C 32.7416,158.278 31.7416,170.778 32.5,183.5C 34.288,183.215 35.9547,183.548 37.5,184.5C 33.3159,186.216 30.6492,184.883 29.5,180.5C 29.1667,181.167 28.8333,181.833 28.5,182.5C 29.9634,184.289 30.9634,186.289 31.5,188.5C 20.7316,178.389 12.7316,166.389 7.5,152.5C 9.44998,147.265 10.1167,141.598 9.5,135.5C 10.5,135.5 11.5,135.5 12.5,135.5C 12.5,132.833 12.5,130.167 12.5,127.5C 13.5,127.5 14.5,127.5 15.5,127.5C 15.5,123.833 15.5,120.167 15.5,116.5C 16.675,116.719 17.675,116.386 18.5,115.5C 17.1468,114.476 16.4802,113.143 16.5,111.5C 19.6915,110.28 23.0248,109.447 26.5,109C 24.3234,107.814 23.3234,105.981 23.5,103.5C 26.1667,103.5 28.8333,103.5 31.5,103.5C 31.5,104.833 31.5,106.167 31.5,107.5C 32.675,107.281 33.675,107.614 34.5,108.5C 34.9943,110.026 35.661,111.359 36.5,112.5 Z"/></g>
<g><path style="opacity:1" fill="#edd440" d="M 52.5,107.5 C 54.3284,108.794 56.3284,109.794 58.5,110.5C 58.6329,113.896 59.6329,114.229 61.5,111.5C 63.2289,113.851 63.8956,116.518 63.5,119.5C 67.5138,119.334 71.5138,119.501 75.5,120C 77.6926,123.324 79.026,123.157 79.5,119.5C 80.9778,119.238 82.3112,119.571 83.5,120.5C 82.9747,121.192 82.3081,121.692 81.5,122C 82.6721,122.419 83.6721,123.085 84.5,124C 85.7839,124.684 86.9505,124.517 88,123.5C 89.214,125.049 90.714,126.215 92.5,127C 106.887,127.751 121.221,128.918 135.5,130.5C 135.5,129.5 135.5,128.5 135.5,127.5C 138.788,127.073 141.788,127.74 144.5,129.5C 147.22,127.889 150.22,127.056 153.5,127C 154.337,125.989 154.67,124.822 154.5,123.5C 156.167,123.5 157.833,123.5 159.5,123.5C 159.674,115.527 160.174,115.527 161,123.5C 162.133,125.211 163.633,125.711 165.5,125C 162.734,121.032 161.067,116.532 160.5,111.5C 161.859,112.007 162.859,113.007 163.5,114.5C 163.938,117.295 164.938,119.628 166.5,121.5C 176.997,118.25 178.997,120.916 172.5,129.5C 172.631,128.761 172.464,128.094 172,127.5C 171,128.833 170,130.167 169,131.5C 168.668,128.31 170.168,126.31 173.5,125.5C 171.805,124.708 170.138,125.042 168.5,126.5C 168.081,127.672 167.415,128.672 166.5,129.5C 162.992,131.128 159.325,132.294 155.5,133C 160.73,134.102 160.73,134.935 155.5,135.5C 152.537,134.857 149.703,133.857 147,132.5C 145.775,132.862 144.609,133.362 143.5,134C 125.733,135.06 108.066,134.226 90.5,131.5C 88.8333,131.667 87.1667,131.833 85.5,132C 85.8333,132.333 86.1667,132.667 86.5,133C 85.5,133.333 84.5,133.667 83.5,134C 83.8333,134.333 84.1667,134.667 84.5,135C 82.8659,135.494 81.1992,135.66 79.5,135.5C 79.728,137.355 79.0613,138.188 77.5,138C 77.3014,134.678 75.6347,132.511 72.5,131.5C 71.6143,130.675 71.281,129.675 71.5,128.5C 70.448,128.351 69.448,128.517 68.5,129C 69.6956,129.654 69.6956,130.154 68.5,130.5C 66.3203,128.91 63.987,127.576 61.5,126.5C 62.1667,125.833 62.8333,125.167 63.5,124.5C 62.7261,123.289 61.8928,123.289 61,124.5C 60.7605,122.239 60.5938,120.239 60.5,118.5C 59.6184,119.76 58.6184,120.926 57.5,122C 54.7737,122.182 52.1071,122.682 49.5,123.5C 49.1373,124.183 48.8039,124.85 48.5,125.5C 47.6091,124.739 46.9424,123.739 46.5,122.5C 49.7848,121.676 53.1182,121.176 56.5,121C 59.1924,118.368 58.859,116.034 55.5,114C 52.8323,113.433 50.1656,112.933 47.5,112.5C 49.4982,111.852 51.4982,111.019 53.5,110C 52.7476,109.329 52.4142,108.496 52.5,107.5 Z"/></g>
<g><path style="opacity:1" fill="#fefefc" d="M -0.5,122.5 C 0.895444,132.743 3.56211,142.743 7.5,152.5C 12.7316,166.389 20.7316,178.389 31.5,188.5C 36.9776,195.971 43.9776,201.637 52.5,205.5C 61.5758,211.755 71.5758,216.088 82.5,218.5C 82.3893,219.117 82.056,219.617 81.5,220C 83.8791,220.716 85.8791,221.883 87.5,223.5C 58.1667,223.5 28.8333,223.5 -0.5,223.5C -0.5,189.833 -0.5,156.167 -0.5,122.5 Z"/></g>
<g><path style="opacity:1" fill="#f6dd0c" d="M 198.5,125.5 C 200.278,127.32 201.944,129.32 203.5,131.5C 205.396,132.466 207.396,132.799 209.5,132.5C 209.481,134.06 209.148,135.56 208.5,137C 210.478,138.978 212.478,140.978 214.5,143C 213.167,146 213.167,149 214.5,152C 213.299,152.903 212.465,154.069 212,155.5C 211.189,151.099 210.023,150.766 208.5,154.5C 209.833,155.833 209.833,157.167 208.5,158.5C 209.548,159.548 210.548,160.548 211.5,161.5C 208.479,168.225 204.479,174.225 199.5,179.5C 198.942,178.21 197.942,177.377 196.5,177C 198.259,176.02 199.926,175.353 201.5,175C 200.342,173.991 199.675,172.658 199.5,171C 201.532,164.581 201.865,158.081 200.5,151.5C 197.788,149.74 194.788,149.073 191.5,149.5C 191.5,147.5 191.5,145.5 191.5,143.5C 188.538,143.883 187.538,142.883 188.5,140.5C 188.03,138.226 187.03,136.226 185.5,134.5C 185.709,133.914 186.043,133.414 186.5,133C 189.146,132.503 191.813,132.336 194.5,132.5C 194.5,131.5 194.5,130.5 194.5,129.5C 195.268,128.737 195.768,127.737 196,126.5C 197.159,127.566 197.992,127.233 198.5,125.5 Z"/></g>
<g><path style="opacity:1" fill="#0b0806" d="M 47.5,112.5 C 50.1656,112.933 52.8323,113.433 55.5,114C 58.859,116.034 59.1924,118.368 56.5,121C 53.1182,121.176 49.7848,121.676 46.5,122.5C 46.9424,123.739 47.6091,124.739 48.5,125.5C 52.9164,137.251 60.5831,146.251 71.5,152.5C 73.3356,154.588 75.6689,155.921 78.5,156.5C 79.4293,157.315 80.4293,158.148 81.5,159C 96.4061,164.696 111.739,166.029 127.5,163C 133.298,161.73 138.631,159.564 143.5,156.5C 156.714,151.285 166.38,142.285 172.5,129.5C 178.997,120.916 176.997,118.25 166.5,121.5C 164.446,116.285 166.113,113.285 171.5,112.5C 175.616,112.541 179.616,113.207 183.5,114.5C 189.914,117.568 193.581,122.568 194.5,129.5C 192.84,131.248 190.84,131.748 188.5,131C 187.274,129.365 185.941,127.865 184.5,126.5C 180.825,134.529 176.158,141.863 170.5,148.5C 166.312,152.414 161.979,156.081 157.5,159.5C 152.795,161.853 148.128,164.186 143.5,166.5C 138.067,168.186 132.733,169.852 127.5,171.5C 116.833,172.833 106.167,172.833 95.5,171.5C 90.2631,169.902 84.9297,168.235 79.5,166.5C 78.8333,166.5 78.1667,166.5 77.5,166.5C 76.4863,165.326 75.153,164.66 73.5,164.5C 65.6198,159.629 58.2864,153.963 51.5,147.5C 46.4222,141.022 42.0889,134.022 38.5,126.5C 37.059,127.865 35.7256,129.365 34.5,131C 32.1599,131.748 30.1599,131.248 28.5,129.5C 28.2978,127.011 28.7978,124.677 30,122.5C 32.2993,120.272 34.4659,117.939 36.5,115.5C 40.1101,114.297 43.7768,113.297 47.5,112.5 Z"/></g>
<g><path style="opacity:1" fill="#debb18" d="M 140.5,156.5 C 137.009,159.05 133.509,159.05 130,156.5C 128.238,156.944 128.405,157.444 130.5,158C 128.431,158.324 128.098,159.158 129.5,160.5C 117.872,162.956 106.205,163.122 94.5,161C 96.8027,158.866 99.4693,157.366 102.5,156.5C 103.833,155.833 103.833,155.167 102.5,154.5C 100.5,155.167 98.5,155.833 96.5,156.5C 95.8333,155.833 95.1667,155.167 94.5,154.5C 89.4089,157.387 84.0756,158.054 78.5,156.5C 75.6689,155.921 73.3356,154.588 71.5,152.5C 74.5491,153.357 77.5491,153.357 80.5,152.5C 82.1929,154.279 84.1929,154.779 86.5,154C 84.6992,153.683 84.3659,153.016 85.5,152C 91.3106,150.112 97.3106,148.779 103.5,148C 99.7272,147.64 96.0605,146.807 92.5,145.5C 89.8459,146.268 87.1792,146.434 84.5,146C 83.1667,145.333 83.1667,144.667 84.5,144C 96.7116,143.739 108.878,143.572 121,143.5C 122.582,145.029 124.415,145.529 126.5,145C 125.833,144.667 125.167,144.333 124.5,144C 128.152,143.501 131.818,143.335 135.5,143.5C 135.36,145.124 136.027,146.29 137.5,147C 136.088,148.306 134.421,149.14 132.5,149.5C 130.662,148.888 128.995,148.888 127.5,149.5C 129.851,151.229 132.518,151.896 135.5,151.5C 135.5,152.5 135.5,153.5 135.5,154.5C 137.553,154.402 139.22,155.069 140.5,156.5 Z"/></g>
<g><path style="opacity:1" fill="#e7c925" d="M 172.5,129.5 C 166.38,142.285 156.714,151.285 143.5,156.5C 142.5,156.5 141.5,156.5 140.5,156.5C 139.22,155.069 137.553,154.402 135.5,154.5C 135.5,153.5 135.5,152.5 135.5,151.5C 132.518,151.896 129.851,151.229 127.5,149.5C 128.995,148.888 130.662,148.888 132.5,149.5C 134.421,149.14 136.088,148.306 137.5,147C 136.027,146.29 135.36,145.124 135.5,143.5C 131.818,143.335 128.152,143.501 124.5,144C 125.167,144.333 125.833,144.667 126.5,145C 124.415,145.529 122.582,145.029 121,143.5C 108.878,143.572 96.7116,143.739 84.5,144C 83.1667,144.667 83.1667,145.333 84.5,146C 87.1792,146.434 89.8459,146.268 92.5,145.5C 96.0605,146.807 99.7272,147.64 103.5,148C 97.3106,148.779 91.3106,150.112 85.5,152C 84.3659,153.016 84.6992,153.683 86.5,154C 84.1929,154.779 82.1929,154.279 80.5,152.5C 77.5491,153.357 74.5491,153.357 71.5,152.5C 60.5831,146.251 52.9164,137.251 48.5,125.5C 48.8039,124.85 49.1373,124.183 49.5,123.5C 52.1071,122.682 54.7737,122.182 57.5,122C 58.6184,120.926 59.6184,119.76 60.5,118.5C 60.5938,120.239 60.7605,122.239 61,124.5C 61.8928,123.289 62.7261,123.289 63.5,124.5C 62.8333,125.167 62.1667,125.833 61.5,126.5C 63.987,127.576 66.3203,128.91 68.5,130.5C 69.6956,130.154 69.6956,129.654 68.5,129C 69.448,128.517 70.448,128.351 71.5,128.5C 71.281,129.675 71.6143,130.675 72.5,131.5C 75.6347,132.511 77.3014,134.678 77.5,138C 79.0613,138.188 79.728,137.355 79.5,135.5C 81.1992,135.66 82.8659,135.494 84.5,135C 84.1667,134.667 83.8333,134.333 83.5,134C 84.5,133.667 85.5,133.333 86.5,133C 86.1667,132.667 85.8333,132.333 85.5,132C 87.1667,131.833 88.8333,131.667 90.5,131.5C 108.066,134.226 125.733,135.06 143.5,134C 144.609,133.362 145.775,132.862 147,132.5C 149.703,133.857 152.537,134.857 155.5,135.5C 160.73,134.935 160.73,134.102 155.5,133C 159.325,132.294 162.992,131.128 166.5,129.5C 167.415,128.672 168.081,127.672 168.5,126.5C 170.138,125.042 171.805,124.708 173.5,125.5C 170.168,126.31 168.668,128.31 169,131.5C 170,130.167 171,128.833 172,127.5C 172.464,128.094 172.631,128.761 172.5,129.5 Z"/></g>
<g><path style="opacity:1" fill="#efd508" d="M 194.5,129.5 C 194.5,130.5 194.5,131.5 194.5,132.5C 191.813,132.336 189.146,132.503 186.5,133C 186.043,133.414 185.709,133.914 185.5,134.5C 187.03,136.226 188.03,138.226 188.5,140.5C 187.538,142.883 188.538,143.883 191.5,143.5C 191.5,145.5 191.5,147.5 191.5,149.5C 194.788,149.073 197.788,149.74 200.5,151.5C 201.865,158.081 201.532,164.581 199.5,171C 199.675,172.658 200.342,173.991 201.5,175C 199.926,175.353 198.259,176.02 196.5,177C 197.942,177.377 198.942,178.21 199.5,179.5C 193.146,188.187 185.479,195.521 176.5,201.5C 176.007,199.194 175.674,196.861 175.5,194.5C 181.814,196.638 182.647,195.638 178,191.5C 177.833,190.167 177.667,188.833 177.5,187.5C 178.105,180.606 178.438,173.773 178.5,167C 177.833,165.667 177.167,164.333 176.5,163C 173.463,161.198 170.463,159.198 167.5,157C 171.361,156.697 172.861,154.863 172,151.5C 172.75,150.874 173.584,150.374 174.5,150C 173.252,149.139 171.919,148.639 170.5,148.5C 176.158,141.863 180.825,134.529 184.5,126.5C 185.941,127.865 187.274,129.365 188.5,131C 190.84,131.748 192.84,131.248 194.5,129.5 Z"/></g>
<g><path style="opacity:1" fill="#ecd108" d="M 51.5,147.5 C 51.4142,148.496 51.7476,149.329 52.5,150C 51.0611,150.991 50.0611,152.324 49.5,154C 46.5,154.333 44.8333,156 44.5,159C 45.8333,170 45.8333,181 44.5,192C 46.4884,192.18 48.4884,192.014 50.5,191.5C 50.5,194.167 50.5,196.833 50.5,199.5C 54.0192,199.187 55.3526,200.52 54.5,203.5C 50.4609,200.872 49.7942,201.539 52.5,205.5C 43.9776,201.637 36.9776,195.971 31.5,188.5C 30.9634,186.289 29.9634,184.289 28.5,182.5C 28.8333,181.833 29.1667,181.167 29.5,180.5C 30.6492,184.883 33.3159,186.216 37.5,184.5C 35.9547,183.548 34.288,183.215 32.5,183.5C 31.7416,170.778 32.7416,158.278 35.5,146C 34.1667,143.333 32.8333,140.667 31.5,138C 31.4934,136.188 32.16,134.688 33.5,133.5C 31.9936,132.253 30.4936,132.253 29,133.5C 28.51,132.207 28.3433,130.873 28.5,129.5C 30.1599,131.248 32.1599,131.748 34.5,131C 35.7256,129.365 37.059,127.865 38.5,126.5C 42.0889,134.022 46.4222,141.022 51.5,147.5 Z"/></g>
<g><path style="opacity:1" fill="#fefefb" d="M 223.5,122.5 C 223.5,156.167 223.5,189.833 223.5,223.5C 178.167,223.5 132.833,223.5 87.5,223.5C 85.8791,221.883 83.8791,220.716 81.5,220C 82.056,219.617 82.3893,219.117 82.5,218.5C 108.008,224.858 133.008,223.024 157.5,213C 164.23,209.643 170.563,205.81 176.5,201.5C 185.479,195.521 193.146,188.187 199.5,179.5C 204.479,174.225 208.479,168.225 211.5,161.5C 217.767,149.133 221.767,136.133 223.5,122.5 Z"/></g>
<g><path style="opacity:1" fill="#e7c706" d="M 51.5,147.5 C 58.2864,153.963 65.6198,159.629 73.5,164.5C 71.0628,164.244 68.7294,163.577 66.5,162.5C 65.5,162.833 64.8333,163.5 64.5,164.5C 63.4212,171.622 63.4212,178.955 64.5,186.5C 66.3159,187.815 67.9825,189.315 69.5,191C 68.7417,192.364 69.2417,193.531 71,194.5C 72.0843,198.77 74.5843,202.103 78.5,204.5C 79.3857,205.325 79.719,206.325 79.5,207.5C 86.8644,208.279 92.1977,211.945 95.5,218.5C 103.528,218.831 111.528,218.498 119.5,217.5C 114.198,216.671 108.864,216.171 103.5,216C 109.416,215.193 115.25,215.359 121,216.5C 123.74,215.718 126.574,215.218 129.5,215C 132.008,211.958 135.008,209.624 138.5,208C 140.134,207.506 141.801,207.34 143.5,207.5C 143.167,201.833 145.833,199.167 151.5,199.5C 152.27,193.842 154.103,188.508 157,183.5C 159.843,177.223 158.676,172.056 153.5,168C 155.531,167.368 157.198,166.201 158.5,164.5C 158.023,163.522 157.357,162.689 156.5,162C 158.619,161.658 158.953,160.825 157.5,159.5C 161.979,156.081 166.312,152.414 170.5,148.5C 171.919,148.639 173.252,149.139 174.5,150C 173.584,150.374 172.75,150.874 172,151.5C 172.861,154.863 171.361,156.697 167.5,157C 170.463,159.198 173.463,161.198 176.5,163C 177.167,164.333 177.833,165.667 178.5,167C 178.438,173.773 178.105,180.606 177.5,187.5C 177.667,188.833 177.833,190.167 178,191.5C 182.647,195.638 181.814,196.638 175.5,194.5C 175.674,196.861 176.007,199.194 176.5,201.5C 170.563,205.81 164.23,209.643 157.5,213C 133.008,223.024 108.008,224.858 82.5,218.5C 71.5758,216.088 61.5758,211.755 52.5,205.5C 49.7942,201.539 50.4609,200.872 54.5,203.5C 55.3526,200.52 54.0192,199.187 50.5,199.5C 50.5,196.833 50.5,194.167 50.5,191.5C 48.4884,192.014 46.4884,192.18 44.5,192C 45.8333,181 45.8333,170 44.5,159C 44.8333,156 46.5,154.333 49.5,154C 50.0611,152.324 51.0611,150.991 52.5,150C 51.7476,149.329 51.4142,148.496 51.5,147.5 Z"/></g>
<g><path style="opacity:1" fill="#e2be02" d="M 157.5,159.5 C 158.953,160.825 158.619,161.658 156.5,162C 157.357,162.689 158.023,163.522 158.5,164.5C 157.198,166.201 155.531,167.368 153.5,168C 158.676,172.056 159.843,177.223 157,183.5C 154.103,188.508 152.27,193.842 151.5,199.5C 145.833,199.167 143.167,201.833 143.5,207.5C 141.801,207.34 140.134,207.506 138.5,208C 135.008,209.624 132.008,211.958 129.5,215C 126.574,215.218 123.74,215.718 121,216.5C 115.25,215.359 109.416,215.193 103.5,216C 108.864,216.171 114.198,216.671 119.5,217.5C 111.528,218.498 103.528,218.831 95.5,218.5C 92.1977,211.945 86.8644,208.279 79.5,207.5C 79.719,206.325 79.3857,205.325 78.5,204.5C 74.5843,202.103 72.0843,198.77 71,194.5C 69.2417,193.531 68.7417,192.364 69.5,191C 67.9825,189.315 66.3159,187.815 64.5,186.5C 63.4212,178.955 63.4212,171.622 64.5,164.5C 64.8333,163.5 65.5,162.833 66.5,162.5C 68.7294,163.577 71.0628,164.244 73.5,164.5C 75.153,164.66 76.4863,165.326 77.5,166.5C 76.4168,166.539 75.4168,166.873 74.5,167.5C 73.5,169.5 72.5,171.5 71.5,173.5C 72.5833,183.33 76.5833,191.664 83.5,198.5C 84.6888,199.429 86.0222,199.762 87.5,199.5C 87.4802,201.143 88.1468,202.476 89.5,203.5C 96.3202,207.193 103.654,208.859 111.5,208.5C 119.893,208.966 126.893,206.133 132.5,200C 134.473,199.505 136.473,199.338 138.5,199.5C 138.755,196.984 139.589,194.65 141,192.5C 143.667,191.167 145.667,189.167 147,186.5C 147.667,182.167 147.667,177.833 147,173.5C 145.27,171.924 143.437,170.59 141.5,169.5C 140.761,169.631 140.094,169.464 139.5,169C 141.32,168.8 142.653,167.966 143.5,166.5C 148.128,164.186 152.795,161.853 157.5,159.5 Z"/></g>
<g><path style="opacity:1" fill="#cbac0f" d="M 140.5,156.5 C 141.5,156.5 142.5,156.5 143.5,156.5C 138.631,159.564 133.298,161.73 127.5,163C 111.739,166.029 96.4061,164.696 81.5,159C 80.4293,158.148 79.4293,157.315 78.5,156.5C 84.0756,158.054 89.4089,157.387 94.5,154.5C 95.1667,155.167 95.8333,155.833 96.5,156.5C 98.5,155.833 100.5,155.167 102.5,154.5C 103.833,155.167 103.833,155.833 102.5,156.5C 99.4693,157.366 96.8027,158.866 94.5,161C 106.205,163.122 117.872,162.956 129.5,160.5C 128.098,159.158 128.431,158.324 130.5,158C 128.405,157.444 128.238,156.944 130,156.5C 133.509,159.05 137.009,159.05 140.5,156.5 Z"/></g>
<g><path style="opacity:1" fill="#deb701" d="M 77.5,166.5 C 78.1667,166.5 78.8333,166.5 79.5,166.5C 80.0283,167.721 80.695,168.887 81.5,170C 83.6079,170.36 85.6079,171.027 87.5,172C 85.641,172.684 83.9743,173.684 82.5,175C 83.4438,177.719 83.7771,180.552 83.5,183.5C 84.8333,183.5 86.1667,183.5 87.5,183.5C 87.5,186.167 87.5,188.833 87.5,191.5C 90.1667,191.5 92.8333,191.5 95.5,191.5C 95.5,192.833 95.5,194.167 95.5,195.5C 106.27,198.389 116.936,198.056 127.5,194.5C 127.5,193.5 127.5,192.5 127.5,191.5C 128.552,191.649 129.552,191.483 130.5,191C 131.364,189.303 132.697,188.137 134.5,187.5C 135.327,183.541 135.827,179.541 136,175.5C 138.253,173.811 140.086,171.811 141.5,169.5C 143.437,170.59 145.27,171.924 147,173.5C 147.667,177.833 147.667,182.167 147,186.5C 145.667,189.167 143.667,191.167 141,192.5C 139.589,194.65 138.755,196.984 138.5,199.5C 136.473,199.338 134.473,199.505 132.5,200C 126.893,206.133 119.893,208.966 111.5,208.5C 103.654,208.859 96.3202,207.193 89.5,203.5C 88.1468,202.476 87.4802,201.143 87.5,199.5C 86.0222,199.762 84.6888,199.429 83.5,198.5C 76.5833,191.664 72.5833,183.33 71.5,173.5C 72.5,171.5 73.5,169.5 74.5,167.5C 75.4168,166.873 76.4168,166.539 77.5,166.5 Z"/></g>
<g><path style="opacity:1" fill="#d5ad02" d="M 79.5,166.5 C 84.9297,168.235 90.2631,169.902 95.5,171.5C 100.59,172.965 105.923,173.632 111.5,173.5C 117.077,173.632 122.41,172.965 127.5,171.5C 132.733,169.852 138.067,168.186 143.5,166.5C 142.653,167.966 141.32,168.8 139.5,169C 140.094,169.464 140.761,169.631 141.5,169.5C 140.086,171.811 138.253,173.811 136,175.5C 135.827,179.541 135.327,183.541 134.5,187.5C 132.697,188.137 131.364,189.303 130.5,191C 129.552,191.483 128.552,191.649 127.5,191.5C 127.5,192.5 127.5,193.5 127.5,194.5C 116.936,198.056 106.27,198.389 95.5,195.5C 95.5,194.167 95.5,192.833 95.5,191.5C 92.8333,191.5 90.1667,191.5 87.5,191.5C 87.5,188.833 87.5,186.167 87.5,183.5C 86.1667,183.5 84.8333,183.5 83.5,183.5C 83.7771,180.552 83.4438,177.719 82.5,175C 83.9743,173.684 85.641,172.684 87.5,172C 85.6079,171.027 83.6079,170.36 81.5,170C 80.695,168.887 80.0283,167.721 79.5,166.5 Z"/></g>
<g><path style="opacity:1" fill="#9e8307" d="M 95.5,171.5 C 106.167,172.833 116.833,172.833 127.5,171.5C 122.41,172.965 117.077,173.632 111.5,173.5C 105.923,173.632 100.59,172.965 95.5,171.5 Z"/></g>
</svg>
