<svg width="120" height="110" viewBox="0 0 120 110" fill="none" xmlns="http://www.w3.org/2000/svg">
<rect width="120" height="110" rx="16" fill="#EFEFEF"/>
<path d="M94.8468 37.6336C94.8847 38.4011 94.8989 39.1781 94.8989 39.9456C94.8989 63.5865 76.91 90.8375 44.0164 90.8375C33.911 90.8375 24.5162 87.8765 16.5996 82.7977C21.2822 83.3639 26.0305 83.0018 30.573 81.7321C35.1156 80.4623 39.3634 78.3097 43.0736 75.3975C39.3424 75.3269 35.7264 74.0922 32.7312 71.8658C29.7361 69.6394 27.5116 66.5327 26.3687 62.9801C29.0505 63.4816 31.8105 63.3763 34.4464 62.6721C30.3986 61.8513 26.759 59.6563 24.1446 56.459C21.5301 53.2617 20.1014 49.2587 20.1007 45.1286V44.9059C22.5842 46.2874 25.3617 47.0557 28.2021 47.1468C24.4114 44.6197 21.728 40.7411 20.6997 36.3028C19.6713 31.8645 20.3755 27.201 22.6686 23.2643C27.1589 28.7906 32.7614 33.3105 39.1124 36.5304C45.4633 39.7504 52.4206 41.5984 59.5323 41.9543C59.2246 40.6165 59.0704 39.248 59.0727 37.8752C59.0727 35.5274 59.5352 33.2026 60.4338 31.0336C61.3325 28.8646 62.6495 26.8938 64.3099 25.2339C65.9703 23.5739 67.9414 22.2574 70.1107 21.3593C72.2799 20.4613 74.6048 19.9994 76.9526 20C79.3995 19.996 81.821 20.4948 84.0671 21.4655C86.3131 22.4361 88.3358 23.8579 90.0096 25.6426C94.0136 24.85 97.8537 23.3825 101.366 21.3029C100.03 25.4446 97.2352 28.96 93.5013 31.1951C97.0463 30.7749 100.508 29.8263 103.773 28.3809C101.375 31.9742 98.3515 35.108 94.8468 37.6336Z" fill="#444444"/>
</svg>
