<svg width="29" height="28" viewBox="0 0 29 28" fill="none" xmlns="http://www.w3.org/2000/svg">
<path d="M27.7396 12.7877H27.726H26.5072H26.0072V12.2877V7.56664C26.0072 7.53371 25.9955 7.50222 25.9747 7.47744C25.939 7.44941 25.896 7.43221 25.8505 7.42797C25.6741 7.42879 24.2741 7.43518 22.2646 7.44349L21.7626 7.44556V6.94349V1.44609C21.7626 1.40911 21.748 1.37402 21.722 1.34793L22.0758 0.994691M27.7396 12.7877L1.5651 2.25385C2.26174 1.58841 3.20494 1.24501 4.1662 1.30694L4.18225 1.30798H4.19834H21.6246C21.6616 1.30798 21.6967 1.32262 21.7223 1.34824L22.0758 0.994691M27.7396 12.7877C27.7713 12.7908 27.8008 12.8048 27.8232 12.8272L27.8235 12.8275C27.8494 12.8534 27.8638 12.8885 27.8638 12.9245L28.1946 12.9249H27.8638V12.9251V18.827L27.8638 18.8276C27.8638 18.8637 27.8495 18.8988 27.8232 18.9252L28.177 19.2784M27.7396 12.7877L28.3638 12.9254V18.827C28.364 18.9964 28.2967 19.1586 28.177 19.2784M22.0758 0.994691C22.1955 1.11454 22.2626 1.27668 22.2626 1.44609V6.44349L4.19834 0.807975H21.6246C21.7938 0.807975 21.9562 0.875058 22.0758 0.994691ZM28.177 19.2784C28.0574 19.3981 27.895 19.4651 27.7258 19.4651H27.0071H26.5071V19.9651V26.9303C26.5071 27.0995 26.4398 27.2618 26.3202 27.3815C26.2005 27.5011 26.0382 27.5684 25.869 27.5684H4.16156C4.13422 27.5703 4.09684 27.5718 4.05069 27.5718M28.177 19.2784L27.8235 18.9249C27.7979 18.9505 27.7628 18.9651 27.7258 18.9651H26.5071H26.0071V19.4651V26.9303C26.0071 26.9668 25.9925 27.002 25.9666 27.0279C25.9407 27.0538 25.9055 27.0684 25.869 27.0684H4.16156H4.14401L4.12649 27.0696C4.1131 27.0706 4.09 27.0716 4.05803 27.0718M4.05069 27.5718L4.06513 27.072C4.06276 27.0719 4.0604 27.0719 4.05803 27.0718M4.05069 27.5718C3.28952 27.5498 2.56341 27.2475 2.01203 26.7226M4.05069 27.5718L2.01203 26.7226M4.05803 27.0718C3.42261 27.0517 2.81698 26.7986 2.35677 26.3605L2.21196 26.2226H2.21126M4.05803 27.0718L2.21126 26.2226M2.21126 26.2226C1.126 25.1346 0.502406 23.0979 0.502406 19.9947L0.50262 4.82767L0.502621 4.7759L0.500054 4.76364C0.49474 3.81689 0.879593 2.90893 1.56505 2.25391L2.21126 26.2226ZM2.01203 26.7226H2.01181C0.678534 25.5222 0.00240628 23.259 0.00240628 19.9947L2.01203 26.7226ZM1.09791 5.68472C1.22802 5.88476 1.411 6.10085 1.66818 6.31216C2.44488 6.95031 3.83441 7.49156 6.3199 7.49156C9.76821 7.49156 16.411 7.4672 20.9886 7.44861L21.4866 7.44659V6.94862V2.08425V1.58425H20.9866H4.21979C3.32994 1.51358 2.45083 1.81909 1.79648 2.42716L1.09791 5.68472ZM1.09791 5.68472L0.796849 5.98578L1.58367 6.59095C2.36866 7.19472 3.78146 7.76778 6.31968 7.76778C11.1878 7.76778 22.4258 7.7193 25.2291 7.70669L25.7314 7.70443V8.20668V12.2877V12.7877H25.2314H18.8644C18.1748 12.7884 17.5134 13.0628 17.0258 13.5504L17.0257 13.5505C16.5379 14.0382 16.2635 14.6995 16.2628 15.3891V16.3641C16.2635 17.0537 16.5379 17.715 17.0255 18.2027C17.5135 18.6906 18.1746 18.965 18.8644 18.9657H25.2314H25.7314L25.7314 19.4657L25.731 26.2926L25.731 26.7925L25.2311 26.7926L4.08151 26.795L4.06792 26.795L4.06793 26.7948C3.46743 26.7785 2.89738 26.5281 2.4791 26.0976C1.62988 25.2972 0.778832 23.5972 0.778832 19.9952V6.98728V5.97192L0.792397 5.98236L0.777807 4.80394C0.766661 3.90361 1.1365 3.0403 1.79641 2.42723L1.09791 5.68472ZM27.0879 18.6898H27.5879V18.1898V13.5638V13.0638H27.0879L18.8637 13.0638L18.863 13.0638C18.2469 13.0646 17.6561 13.3095 17.2202 13.7454C16.7846 14.181 16.5394 14.7717 16.5386 15.388V15.3886V16.3647V16.3654C16.5394 16.9817 16.7846 17.5723 17.2201 18.0081L17.2203 18.0083C17.6561 18.4438 18.2467 18.689 18.863 18.6898H18.8637H27.0879Z" fill="#444444" stroke="#444444"/>
</svg>
