<svg width="121" height="110" viewBox="0 0 121 110" fill="none" xmlns="http://www.w3.org/2000/svg">
<rect x="0.5" width="120" height="110" rx="16" fill="#EFEFEF"/>
<path d="M91.1524 36.4183C80.3761 19.9995 58.3745 15.1182 41.312 25.3245C24.6985 35.5308 19.3104 57.7185 30.0867 74.1374L30.9847 75.4686L27.3926 88.7812L40.863 85.2312L42.21 86.1187C48.0472 89.225 54.3334 91 60.6195 91C67.3547 91 74.0899 89.225 79.9271 85.675C96.5406 75.0249 101.48 53.281 91.1524 36.4183ZM81.7231 70.5873C79.9271 73.2499 77.682 75.0249 74.5389 75.4686C72.7429 75.4686 70.4978 76.3561 61.5176 72.8061C53.8843 69.2561 47.5982 63.4873 43.108 56.831C40.414 53.7247 39.0669 49.7309 38.6179 45.7372C38.6179 42.1871 39.965 39.0809 42.21 36.8621C43.108 35.9746 44.0061 35.5308 44.9041 35.5308H47.1492C48.0472 35.5308 48.9452 35.5308 49.3942 37.3058C50.2922 39.5246 52.5373 44.8496 52.5373 45.2934C52.9863 45.7372 52.9863 46.6247 52.5373 47.0684C52.9863 47.9559 52.5373 48.8434 52.0883 49.2872C51.6393 49.7309 51.1903 50.6184 50.7413 51.0622C49.8432 51.5059 49.3942 52.3935 49.8432 53.281C51.6393 55.9435 53.8843 58.606 56.1294 60.8248C58.8235 63.0435 61.5176 64.8186 64.6607 66.1498C65.5587 66.5936 66.4567 66.5936 66.9057 65.7061C67.3547 64.8186 69.5998 62.5998 70.4978 61.7123C71.3958 60.8248 71.8449 60.8248 72.7429 61.2685L79.9271 64.8186C80.8251 65.2623 81.7231 65.7061 82.1721 66.1498C82.6212 67.4811 82.6212 69.2561 81.7231 70.5873Z" fill="#444444"/>
</svg>
