<svg width="31" height="30" viewBox="0 0 31 30" fill="none" xmlns="http://www.w3.org/2000/svg">
<path d="M28.757 0.371582H2.24277C1.48654 0.371582 0.871338 0.986782 0.871338 1.74301V9.97158C0.871338 10.7278 1.48654 11.343 2.24277 11.343H6.35705V28.2573C6.35705 29.0135 6.97225 29.6287 7.72848 29.6287H23.2713C24.0276 29.6287 24.6428 29.0135 24.6428 28.2573V24.6002V21.4002V11.343H28.757C29.5133 11.343 30.1285 10.7278 30.1285 9.97158V1.74301C30.1285 0.986782 29.5133 0.371582 28.757 0.371582ZM7.72848 28.7144C7.00437 28.7144 7.36107 27.6448 7.27134 26.8129C7.65571 26.9316 23.4033 26.9133 23.7285 26.8129V28.2573C23.7285 29.1381 23.0283 28.5182 7.72848 28.7144ZM23.7285 25.6972C23.7285 25.8267 23.5329 25.9716 23.2713 25.9716C8.13591 25.8345 7.27134 26.235 7.27134 25.6972V24.0588C7.72446 24.2202 6.88763 24.1088 23.2713 24.143C23.4325 24.143 23.5847 24.11 23.7285 24.0588V25.6972ZM23.7285 21.4002C23.6425 22.1654 23.9912 23.2287 23.2713 23.2287C7.98448 23.0327 7.27134 23.6531 7.27134 22.7716V4.02872H23.7285V21.4002ZM6.35705 7.68587H4.98562V4.02872H6.35705V7.68587ZM28.757 10.4287H24.6428V8.60015H26.9285V3.11444H23.7285H4.07134V8.60015H6.35705V10.4287C2.88539 10.2729 1.78562 10.7803 1.78562 9.97158V1.74301C1.78562 1.491 1.99075 1.28587 2.24277 1.28587H28.757C29.0091 1.28587 29.2142 1.491 29.2142 1.74301C29.0345 9.34815 29.6258 10.4287 28.757 10.4287ZM24.6428 7.68587V4.02872H26.0142V7.68587H24.6428Z" fill="#034694"/>
</svg>
